shantell--light.ufo
<glyph name="dollar" format="2">
  <advance width="700"/>
  <unicode hex="0024"/>
  <outline>
    <contour>
      <point x="284" y="-9.0" type="curve" smooth="yes"/>
      <point x="447.4938271604938" y="-9.0"/>
      <point x="607.0" y="42.0"/>
      <point x="607" y="167.0" type="curve" smooth="yes"/>
      <point x="607.0" y="366.0"/>
      <point x="165.0" y="320.0"/>
      <point x="165.0" y="430" type="curve" smooth="yes"/>
      <point x="165.0" y="529.0"/>
      <point x="305.3169053376615" y="610.7373819460306"/>
      <point x="556" y="640.0" type="curve" smooth="yes"/>
      <point x="596" y="645"/>
      <point x="611" y="658.0"/>
      <point x="611" y="677.0" type="curve" smooth="yes"/>
      <point x="611" y="698.0"/>
      <point x="593" y="710"/>
      <point x="558" y="710.0" type="curve" smooth="yes"/>
      <point x="371.0126050420168" y="710.0"/>
      <point x="92.0" y="599.0"/>
      <point x="92" y="427" type="curve" smooth="yes"/>
      <point x="92.0" y="247.0"/>
      <point x="542.999999212018" y="292.0001048016146"/>
      <point x="544" y="159.0" type="curve"/>
      <point x="511.86108011170717" y="90.70479523737757"/>
      <point x="410.49629629629624" y="59.0"/>
      <point x="275" y="59.0" type="curve" smooth="yes"/>
      <point x="149.0" y="59.0"/>
      <point x="147.0" y="99.0"/>
      <point x="105" y="99.0" type="curve" smooth="yes"/>
      <point x="81" y="99"/>
      <point x="70" y="90.0"/>
      <point x="70" y="74.0" type="curve" smooth="yes"/>
      <point x="70.0" y="25.0"/>
      <point x="141" y="-9.0"/>
    </contour>
    <contour>
      <point x="383" y="395" type="curve" smooth="yes"/>
      <point x="398" y="395"/>
      <point x="404" y="405"/>
      <point x="407" y="421" type="curve" smooth="yes"/>
      <point x="424" y="520"/>
      <point x="430" y="668"/>
      <point x="404" y="790" type="curve" smooth="yes"/>
      <point x="401" y="806"/>
      <point x="389" y="817"/>
      <point x="370" y="817" type="curve" smooth="yes"/>
      <point x="335" y="817"/>
      <point x="332" y="798"/>
      <point x="337" y="777" type="curve" smooth="yes"/>
      <point x="362" y="663"/>
      <point x="353" y="539"/>
      <point x="341" y="450" type="curve" smooth="yes"/>
      <point x="337" y="413"/>
      <point x="362" y="395"/>
    </contour>
    <contour>
      <point x="332" y="217" type="curve" smooth="yes"/>
      <point x="317" y="217"/>
      <point x="311" y="207"/>
      <point x="308" y="191" type="curve" smooth="yes"/>
      <point x="292" y="103"/>
      <point x="288" y="-29"/>
      <point x="311" y="-138" type="curve" smooth="yes"/>
      <point x="314" y="-154"/>
      <point x="325" y="-165"/>
      <point x="345" y="-165" type="curve" smooth="yes"/>
      <point x="379" y="-165"/>
      <point x="383" y="-146"/>
      <point x="378" y="-125" type="curve" smooth="yes"/>
      <point x="356" y="-24"/>
      <point x="363" y="84"/>
      <point x="374" y="162" type="curve" smooth="yes"/>
      <point x="378" y="199"/>
      <point x="353" y="217"/>
    </contour>
  </outline>
</glyph>
<glyph name="parenleft" format="2">
  <advance width="421"/>
  <unicode hex="0028"/>
  <outline>
    <contour>
      <point x="374" y="746" type="curve" smooth="yes"/>
      <point x="385" y="761"/>
      <point x="388" y="768"/>
      <point x="388" y="776" type="curve" smooth="yes"/>
      <point x="388" y="794"/>
      <point x="376" y="811"/>
      <point x="353" y="811" type="curve" smooth="yes"/>
      <point x="343" y="811"/>
      <point x="332" y="806"/>
      <point x="320" y="790" type="curve" smooth="yes"/>
      <point x="199" y="630"/>
      <point x="92" y="420"/>
      <point x="92" y="176" type="curve" smooth="yes"/>
      <point x="92" y="-61"/>
      <point x="183" y="-195"/>
      <point x="318" y="-249" type="curve" smooth="yes"/>
      <point x="342" y="-259"/>
      <point x="349" y="-261"/>
      <point x="365" y="-261" type="curve" smooth="yes"/>
      <point x="378" y="-261"/>
      <point x="391" y="-244.89"/>
      <point x="391" y="-227" type="curve" smooth="yes"/>
      <point x="391" y="-213"/>
      <point x="382" y="-199"/>
      <point x="356" y="-189" type="curve" smooth="yes"/>
      <point x="231" y="-140"/>
      <point x="162" y="-21"/>
      <point x="162" y="176" type="curve" smooth="yes"/>
      <point x="162" y="404"/>
      <point x="263" y="600"/>
    </contour>
  </outline>
</glyph>
<glyph name="parenright" format="2">
  <advance width="387"/>
  <unicode hex="0029"/>
  <outline>
    <contour>
      <point x="54" y="-191" type="curve" smooth="yes"/>
      <point x="177.0" y="-94.0"/>
      <point x="259" y="68"/>
      <point x="259" y="253" type="curve" smooth="yes"/>
      <point x="259.0" y="463.13168724279836"/>
      <point x="173.8398102955852" y="655.116243856301"/>
      <point x="61" y="737" type="curve" smooth="yes"/>
      <point x="35" y="755"/>
      <point x="30" y="767"/>
      <point x="30" y="778" type="curve" smooth="yes"/>
      <point x="30.0" y="798.2666666666667"/>
      <point x="48.0" y="810.0"/>
      <point x="62" y="810" type="curve" smooth="yes"/>
      <point x="72" y="810"/>
      <point x="79" y="809"/>
      <point x="104" y="791" type="curve" smooth="yes"/>
      <point x="223" y="707"/>
      <point x="329.0" y="497"/>
      <point x="329" y="253" type="curve" smooth="yes"/>
      <point x="329" y="46"/>
      <point x="237" y="-136"/>
      <point x="101" y="-243" type="curve" smooth="yes"/>
      <point x="83" y="-257"/>
      <point x="75" y="-260"/>
      <point x="68" y="-260" type="curve" smooth="yes"/>
      <point x="47" y="-260"/>
      <point x="33" y="-242"/>
      <point x="33" y="-225" type="curve" smooth="yes"/>
      <point x="33" y="-214"/>
      <point x="38" y="-204"/>
    </contour>
  </outline>
</glyph>
<glyph name="asterisk" format="2">
  <advance width="480"/>
  <unicode hex="002A"/>
  <outline>
    <contour>
      <point x="210" y="751" type="curve" smooth="yes"/>
      <point x="192" y="751"/>
      <point x="183" y="740"/>
      <point x="183" y="724" type="curve" smooth="yes"/>
      <point x="183" y="686.782"/>
      <point x="225" y="670.688"/>
      <point x="225" y="553" type="curve" smooth="yes"/>
      <point x="225" y="480.269"/>
      <point x="211.262" y="368.657"/>
      <point x="228" y="283" type="curve" smooth="yes"/>
      <point x="232" y="262"/>
      <point x="244" y="251"/>
      <point x="264" y="251" type="curve" smooth="yes"/>
      <point x="279" y="251"/>
      <point x="297" y="263"/>
      <point x="291" y="293" type="curve" smooth="yes"/>
      <point x="273" y="381"/>
      <point x="288" y="484"/>
      <point x="288" y="556" type="curve" smooth="yes"/>
      <point x="288" y="670"/>
      <point x="248" y="751"/>
    </contour>
    <contour>
      <point x="421" y="603" type="curve" smooth="yes"/>
      <point x="432" y="622"/>
      <point x="434" y="631"/>
      <point x="434" y="638" type="curve" smooth="yes"/>
      <point x="434" y="653"/>
      <point x="420.714" y="668"/>
      <point x="403" y="668" type="curve" smooth="yes"/>
      <point x="388" y="668"/>
      <point x="381" y="660"/>
      <point x="373" y="648" type="curve" smooth="yes"/>
      <point x="322" y="566"/>
      <point x="143" y="493"/>
      <point x="70" y="405" type="curve" smooth="yes"/>
      <point x="65" y="399"/>
      <point x="62" y="391"/>
      <point x="62" y="383" type="curve" smooth="yes"/>
      <point x="62" y="367.943"/>
      <point x="76.171" y="352"/>
      <point x="93" y="352" type="curve" smooth="yes"/>
      <point x="103" y="352"/>
      <point x="113" y="357"/>
      <point x="120" y="365" type="curve" smooth="yes"/>
      <point x="195" y="455"/>
      <point x="382" y="541"/>
    </contour>
    <contour>
      <point x="99" y="635" type="curve" smooth="yes"/>
      <point x="80" y="646"/>
      <point x="74" y="648"/>
      <point x="59" y="648" type="curve" smooth="yes"/>
      <point x="44.519" y="648"/>
      <point x="36" y="636.857"/>
      <point x="36" y="624" type="curve" smooth="yes"/>
      <point x="36" y="609"/>
      <point x="41" y="594"/>
      <point x="62" y="582" type="curve" smooth="yes"/>
      <point x="141" y="535"/>
      <point x="274" y="473"/>
      <point x="373" y="398" type="curve" smooth="yes"/>
      <point x="394" y="382"/>
      <point x="401" y="379"/>
      <point x="410" y="379" type="curve" smooth="yes"/>
      <point x="423.235" y="379"/>
      <point x="440" y="391.4"/>
      <point x="440" y="410" type="curve" smooth="yes"/>
      <point x="440" y="420"/>
      <point x="435" y="431"/>
      <point x="426" y="438" type="curve" smooth="yes"/>
      <point x="310" y="527"/>
      <point x="177" y="591"/>
    </contour>
  </outline>
</glyph>
<glyph name="comma" format="2">
  <advance width="234"/>
  <unicode hex="002C"/>
  <outline>
    <contour>
      <point x="153.0" y="128.0"/>
      <point x="138.69767441860466" y="147.0"/>
      <point x="112" y="147" type="curve" smooth="yes"/>
      <point x="91" y="147"/>
      <point x="78" y="130"/>
      <point x="78" y="96" type="curve" smooth="yes"/>
      <point x="78" y="23"/>
      <point x="65" y="-30"/>
      <point x="36" y="-84" type="curve" smooth="yes"/>
      <point x="21" y="-113"/>
      <point x="14" y="-131"/>
      <point x="14" y="-144" type="curve" smooth="yes"/>
      <point x="14" y="-158"/>
      <point x="24" y="-168"/>
      <point x="39" y="-168" type="curve" smooth="yes"/>
      <point x="60.72222222222223" y="-168.0"/>
      <point x="77" y="-158"/>
      <point x="90" y="-136" type="curve" smooth="yes"/>
      <point x="130" y="-70"/>
      <point x="153.0" y="24.999999999999993"/>
      <point x="153" y="86.0" type="curve" smooth="yes"/>
    </contour>
  </outline>
</glyph>
<glyph name="period" format="2">
	<unicode hex="002E"/>
	<advance width="239"/>
	<outline>
		<contour>
			<point x="135" y="-10" type="curve" smooth="yes"/>
			<point x="169" y="-10"/>
			<point x="182" y="16"/>
			<point x="182" y="41" type="curve" smooth="yes"/>
			<point x="182" y="76"/>
			<point x="153" y="119"/>
			<point x="105" y="119" type="curve" smooth="yes"/>
			<point x="79" y="119"/>
			<point x="57" y="99"/>
			<point x="57" y="71" type="curve" smooth="yes"/>
			<point x="57" y="30"/>
			<point x="93" y="-10"/>
		</contour>
	</outline>
</glyph>
<glyph name="slash" format="2">
  <advance width="330"/>
  <unicode hex="002F"/>
  <outline>
    <contour>
      <point x="392" y="773" type="curve" smooth="yes"/>
      <point x="206.17425105807015" y="465.2261033149287"/>
      <point x="134.62836490181306" y="179.09452674705886"/>
      <point x="78" y="-106" type="curve" smooth="yes"/>
      <point x="72" y="-135"/>
      <point x="58" y="-148"/>
      <point x="40" y="-148" type="curve" smooth="yes"/>
      <point x="11.806451612903224" y="-148.0"/>
      <point x="-4.193739010623156" y="-126.92368626161431"/>
      <point x="2" y="-91" type="curve" smooth="yes"/>
      <point x="61.91914014061609" y="213.42788942409783"/>
      <point x="147.64238957266946" y="511.4980224473269"/>
      <point x="322" y="805" type="curve" smooth="yes"/>
      <point x="341" y="837"/>
      <point x="354" y="850"/>
      <point x="372" y="850" type="curve" smooth="yes"/>
      <point x="395" y="850"/>
      <point x="420" y="820"/>
    </contour>
  </outline>
</glyph>
<glyph name="zero" format="2">
  <advance width="700"/>
  <unicode hex="0030"/>
  <image fileName="zero.png" xScale="2.36629" yScale="2.36629" xOffset="-8471.825" yOffset="-212.645"/>
  <outline>
    <contour>
      <point x="278" y="566" type="curve" smooth="yes"/>
      <point x="296" y="580"/>
      <point x="304" y="593"/>
      <point x="304" y="610" type="curve" smooth="yes"/>
      <point x="304" y="634"/>
      <point x="295" y="639"/>
      <point x="278" y="639" type="curve" smooth="yes"/>
      <point x="213" y="639"/>
      <point x="81" y="478"/>
      <point x="81" y="270" type="curve" smooth="yes"/>
      <point x="81" y="74"/>
      <point x="187" y="-11"/>
      <point x="317" y="-11" type="curve" smooth="yes"/>
      <point x="464" y="-11"/>
      <point x="618" y="128"/>
      <point x="618" y="417" type="curve" smooth="yes"/>
      <point x="618" y="598"/>
      <point x="545" y="711"/>
      <point x="400" y="711" type="curve" smooth="yes"/>
      <point x="252" y="711"/>
      <point x="130" y="583"/>
      <point x="130" y="527" type="curve" smooth="yes"/>
      <point x="130" y="513"/>
      <point x="137" y="504"/>
      <point x="151" y="504" type="curve" smooth="yes"/>
      <point x="176" y="504"/>
      <point x="188" y="514"/>
      <point x="195" y="525" type="curve" smooth="yes"/>
      <point x="248" y="605"/>
      <point x="320" y="646"/>
      <point x="400" y="646" type="curve" smooth="yes"/>
      <point x="504" y="646"/>
      <point x="551" y="549"/>
      <point x="551" y="417" type="curve" smooth="yes"/>
      <point x="551" y="182"/>
      <point x="444" y="55"/>
      <point x="317" y="55" type="curve" smooth="yes"/>
      <point x="195" y="55"/>
      <point x="148" y="147"/>
      <point x="148" y="270" type="curve" smooth="yes"/>
      <point x="148" y="398"/>
      <point x="208" y="511"/>
    </contour>
  </outline>
</glyph>
<glyph name="one" format="2">
  <advance width="700"/>
  <unicode hex="0031"/>
  <image fileName="zero.png" xScale="2.36629" yScale="2.36629" xOffset="-35.825" yOffset="-212.645"/>
  <outline>
    <contour>
      <point x="141" y="57" type="curve" smooth="yes"/>
      <point x="106" y="57"/>
      <point x="91" y="49"/>
      <point x="91" y="30" type="curve" smooth="yes"/>
      <point x="91" y="6"/>
      <point x="125" y="-10"/>
      <point x="194" y="-10" type="curve" smooth="yes"/>
      <point x="308" y="-10"/>
      <point x="476" y="0"/>
      <point x="592" y="0" type="curve" smooth="yes"/>
      <point x="612" y="0"/>
      <point x="628" y="12"/>
      <point x="629" y="27" type="curve" smooth="yes"/>
      <point x="630" y="55"/>
      <point x="586" y="66"/>
      <point x="545" y="66" type="curve" smooth="yes"/>
      <point x="417" y="66"/>
      <point x="252" y="57"/>
    </contour>
    <contour>
      <point x="136" y="612" type="curve" smooth="yes"/>
      <point x="118" y="612"/>
      <point x="107" y="602"/>
      <point x="107" y="586" type="curve" smooth="yes"/>
      <point x="107" y="560"/>
      <point x="127" y="547"/>
      <point x="151" y="547" type="curve" smooth="yes"/>
      <point x="245" y="547"/>
      <point x="339" y="578"/>
      <point x="430" y="637" type="curve"/>
      <point x="409" y="651" type="line"/>
      <point x="379" y="475"/>
      <point x="352" y="252"/>
      <point x="352" y="69" type="curve" smooth="yes"/>
      <point x="352" y="47"/>
      <point x="372" y="28"/>
      <point x="395" y="28" type="curve" smooth="yes"/>
      <point x="408" y="28"/>
      <point x="419" y="43"/>
      <point x="419" y="61" type="curve" smooth="yes"/>
      <point x="419" y="404"/>
      <point x="483" y="622"/>
      <point x="483" y="663" type="curve" smooth="yes"/>
      <point x="483" y="690"/>
      <point x="468" y="707"/>
      <point x="443" y="707" type="curve" smooth="yes"/>
      <point x="430" y="707"/>
      <point x="414" y="702"/>
      <point x="396" y="691" type="curve" smooth="yes"/>
      <point x="305" y="636"/>
      <point x="215" y="612"/>
    </contour>
  </outline>
</glyph>
<glyph name="two" format="2">
  <advance width="700"/>
  <unicode hex="0032"/>
  <image fileName="zero.png" xScale="2.36629" yScale="2.36629" xOffset="-763.825" yOffset="-212.645"/>
  <outline>
    <contour>
      <point x="143" y="632" type="curve" smooth="yes"/>
      <point x="125" y="618"/>
      <point x="117" y="608"/>
      <point x="117" y="596" type="curve" smooth="yes"/>
      <point x="117" y="581"/>
      <point x="130" y="568"/>
      <point x="148" y="568" type="curve" smooth="yes"/>
      <point x="181.542" y="568"/>
      <point x="237.781" y="648"/>
      <point x="378" y="648" type="curve" smooth="yes"/>
      <point x="470" y="648"/>
      <point x="513" y="598.813"/>
      <point x="513" y="519" type="curve" smooth="yes"/>
      <point x="513" y="403.335"/>
      <point x="424.949" y="268.223"/>
      <point x="133" y="85" type="curve" smooth="yes"/>
      <point x="119" y="77"/>
      <point x="110" y="61"/>
      <point x="110" y="44" type="curve" smooth="yes"/>
      <point x="110" y="0"/>
      <point x="142" y="-20"/>
      <point x="201" y="-20" type="curve" smooth="yes"/>
      <point x="297" y="-20"/>
      <point x="378.659" y="0"/>
      <point x="569" y="0" type="curve" smooth="yes"/>
      <point x="601" y="0"/>
      <point x="614" y="8"/>
      <point x="614" y="26" type="curve" smooth="yes"/>
      <point x="614" y="43"/>
      <point x="601" y="66"/>
      <point x="545" y="66" type="curve" smooth="yes"/>
      <point x="408" y="66"/>
      <point x="286" y="44"/>
      <point x="205" y="44" type="curve" smooth="yes"/>
      <point x="186" y="44"/>
      <point x="169" y="46"/>
      <point x="150" y="56" type="curve"/>
      <point x="162" y="30" type="line"/>
      <point x="496.775" y="225.034"/>
      <point x="580" y="393.432"/>
      <point x="580" y="519" type="curve" smooth="yes"/>
      <point x="580" y="633.118"/>
      <point x="524" y="713"/>
      <point x="378" y="713" type="curve" smooth="yes"/>
      <point x="288.796" y="713"/>
      <point x="202.148" y="676.838"/>
    </contour>
  </outline>
</glyph>
<glyph name="six" format="2">
	<unicode hex="0036"/>
	<advance width="700"/>
	<image fileName="zero.png" xScale="2.36629" yScale="2.36629" xOffset="-5902.825" yOffset="-192.645"/>
	<outline>
		<contour>
			<point x="429" y="633" type="curve" smooth="yes"/>
			<point x="460" y="655"/>
			<point x="468" y="665"/>
			<point x="468" y="686" type="curve" smooth="yes"/>
			<point x="468" y="701"/>
			<point x="459" y="711"/>
			<point x="446" y="711" type="curve" smooth="yes"/>
			<point x="428" y="711"/>
			<point x="418" y="703"/>
			<point x="385" y="680" type="curve" smooth="yes"/>
			<point x="192.859" y="541.176"/>
			<point x="85" y="385.665"/>
			<point x="85" y="239" type="curve" smooth="yes"/>
			<point x="85" y="82"/>
			<point x="163.569" y="-10"/>
			<point x="351" y="-10" type="curve" smooth="yes"/>
			<point x="525.94" y="-10"/>
			<point x="615" y="87.953"/>
			<point x="615" y="185" type="curve" smooth="yes"/>
			<point x="615" y="294.2"/>
			<point x="538.697" y="380"/>
			<point x="384" y="380" type="curve" smooth="yes"/>
			<point x="233.382" y="380"/>
			<point x="148" y="341"/>
			<point x="148" y="307" type="curve" smooth="yes"/>
			<point x="148" y="289"/>
			<point x="153" y="281"/>
			<point x="170" y="281" type="curve" smooth="yes"/>
			<point x="212" y="281"/>
			<point x="233.955" y="315"/>
			<point x="380" y="315" type="curve" smooth="yes"/>
			<point x="505.516" y="315"/>
			<point x="547" y="252.495"/>
			<point x="547" y="196" type="curve" smooth="yes"/>
			<point x="547" y="92.658"/>
			<point x="450.624" y="55"/>
			<point x="351" y="55" type="curve" smooth="yes"/>
			<point x="235.692" y="55"/>
			<point x="152" y="101"/>
			<point x="152" y="239" type="curve" smooth="yes"/>
			<point x="152" y="373.318"/>
			<point x="254.873" y="505.173"/>
		</contour>
	</outline>
</glyph>
<glyph name="seven" format="2">
	<unicode hex="0037"/>
	<advance width="700"/>
	<image fileName="zero.png" xScale="2.36629" yScale="2.36629" xOffset="-6555.825" yOffset="-192.645"/>
	<outline>
		<contour>
			<point x="222" y="346" type="curve" smooth="yes"/>
			<point x="211" y="346"/>
			<point x="199" y="336"/>
			<point x="199" y="322" type="curve" smooth="yes"/>
			<point x="199" y="303"/>
			<point x="225" y="281"/>
			<point x="260" y="281" type="curve" smooth="yes"/>
			<point x="343.55" y="281"/>
			<point x="411.441" y="309"/>
			<point x="601" y="309" type="curve" smooth="yes"/>
			<point x="621" y="309"/>
			<point x="632" y="317"/>
			<point x="632" y="329" type="curve" smooth="yes"/>
			<point x="632" y="356"/>
			<point x="607" y="374"/>
			<point x="566" y="374" type="curve" smooth="yes"/>
			<point x="414.599" y="374"/>
			<point x="324.034" y="346"/>
		</contour>
		<contour>
			<point x="120" y="647" type="curve" smooth="yes"/>
			<point x="103" y="639"/>
			<point x="93" y="626"/>
			<point x="93" y="612" type="curve" smooth="yes"/>
			<point x="93" y="592"/>
			<point x="109" y="580"/>
			<point x="129" y="580" type="curve" smooth="yes"/>
			<point x="172.721" y="580"/>
			<point x="236.221" y="643"/>
			<point x="383" y="643" type="curve" smooth="yes"/>
			<point x="487" y="643"/>
			<point x="513" y="617"/>
			<point x="513" y="562" type="curve" smooth="yes"/>
			<point x="513" y="451"/>
			<point x="313" y="247"/>
			<point x="313" y="49" type="curve" smooth="yes"/>
			<point x="313" y="10"/>
			<point x="331" y="-9"/>
			<point x="353" y="-9" type="curve" smooth="yes"/>
			<point x="373" y="-9"/>
			<point x="380" y="4"/>
			<point x="380" y="49" type="curve" smooth="yes"/>
			<point x="380" y="235"/>
			<point x="580" y="425"/>
			<point x="580" y="565" type="curve" smooth="yes"/>
			<point x="580" y="651"/>
			<point x="524" y="710"/>
			<point x="376" y="710" type="curve" smooth="yes"/>
			<point x="276.098" y="710"/>
			<point x="197.487" y="684.194"/>
		</contour>
	</outline>
</glyph>
<glyph name="semicolon" format="2">
  <advance width="270"/>
  <unicode hex="003B"/>
  <outline>
    <contour>
      <point x="142" y="367" type="curve" smooth="yes"/>
      <point x="183" y="367"/>
      <point x="199" y="393"/>
      <point x="199" y="418" type="curve" smooth="yes"/>
      <point x="199" y="453"/>
      <point x="174" y="496"/>
      <point x="132" y="496" type="curve" smooth="yes"/>
      <point x="101" y="496"/>
      <point x="74" y="472"/>
      <point x="74" y="438" type="curve" smooth="yes"/>
      <point x="74" y="402"/>
      <point x="105" y="367"/>
    </contour>
    <component base="comma" xOffset="36"/>
  </outline>
</glyph>
<glyph name="greater" format="2">
  <advance width="700"/>
  <unicode hex="003E"/>
  <outline>
    <contour>
      <point x="170" y="144" type="curve" smooth="yes"/>
      <point x="143" y="136"/>
      <point x="135" y="124"/>
      <point x="135" y="112" type="curve" smooth="yes"/>
      <point x="135" y="92"/>
      <point x="145" y="74"/>
      <point x="167" y="74" type="curve" smooth="yes"/>
      <point x="179" y="74"/>
      <point x="190" y="75"/>
      <point x="226" y="86" type="curve" smooth="yes"/>
      <point x="329" y="113"/>
      <point x="507" y="193"/>
      <point x="570" y="248" type="curve" smooth="yes"/>
      <point x="587" y="262"/>
      <point x="588" y="270"/>
      <point x="588" y="280" type="curve" smooth="yes"/>
      <point x="588" y="289"/>
      <point x="587" y="299"/>
      <point x="575" y="318" type="curve" smooth="yes"/>
      <point x="534" y="385"/>
      <point x="349" y="462"/>
      <point x="194" y="489" type="curve" smooth="yes"/>
      <point x="156" y="495"/>
      <point x="148" y="496"/>
      <point x="138" y="496" type="curve" smooth="yes"/>
      <point x="120" y="496"/>
      <point x="99" y="481"/>
      <point x="99" y="456" type="curve" smooth="yes"/>
      <point x="99" y="444"/>
      <point x="107" y="434"/>
      <point x="129" y="430" type="curve" smooth="yes"/>
      <point x="295" y="404"/>
      <point x="469" y="336"/>
      <point x="525" y="269" type="curve"/>
      <point x="532" y="306" type="line"/>
      <point x="432" y="234"/>
      <point x="278" y="173"/>
    </contour>
  </outline>
</glyph>
<glyph name="at" format="2">
	<unicode hex="0040"/>
	<advance width="848"/>
	<outline>
		<contour>
			<point x="498" y="341" type="curve" smooth="yes"/>
			<point x="397" y="331"/>
			<point x="346" y="275"/>
			<point x="346" y="219" type="curve" smooth="yes"/>
			<point x="346" y="204"/>
			<point x="346" y="188"/>
			<point x="363" y="148" type="curve"/>
			<point x="325" y="191" type="line"/>
			<point x="361" y="170"/>
			<point x="375" y="167"/>
			<point x="387" y="167" type="curve" smooth="yes"/>
			<point x="417" y="167"/>
			<point x="431" y="183"/>
			<point x="449" y="228" type="curve" smooth="yes"/>
			<point x="476" y="298"/>
			<point x="498" y="309"/>
			<point x="526" y="309" type="curve" smooth="yes"/>
			<point x="555" y="309"/>
			<point x="582" y="297"/>
			<point x="607" y="243" type="curve" smooth="yes"/>
			<point x="635" y="183"/>
			<point x="638" y="180"/>
			<point x="657" y="180" type="curve" smooth="yes"/>
			<point x="698" y="180"/>
			<point x="710" y="241"/>
			<point x="710" y="290" type="curve" smooth="yes"/>
			<point x="710" y="399.8088235294"/>
			<point x="647" y="552"/>
			<point x="459" y="552" type="curve" smooth="yes"/>
			<point x="294" y="552"/>
			<point x="138" y="392"/>
			<point x="138" y="231" type="curve" smooth="yes"/>
			<point x="138" y="52"/>
			<point x="287" y="-34"/>
			<point x="447" y="-34" type="curve" smooth="yes"/>
			<point x="637" y="-34"/>
			<point x="648" y="21"/>
			<point x="684" y="21" type="curve" smooth="yes"/>
			<point x="703" y="21"/>
			<point x="711" y="8"/>
			<point x="711" y="-12" type="curve" smooth="yes"/>
			<point x="711" y="-27"/>
			<point x="704" y="-40"/>
			<point x="685" y="-54" type="curve" smooth="yes"/>
			<point x="646" y="-83"/>
			<point x="582" y="-102"/>
			<point x="447" y="-102" type="curve" smooth="yes"/>
			<point x="245" y="-102"/>
			<point x="70" y="12"/>
			<point x="70" y="231" type="curve"/>
			<point x="70" y="426"/>
			<point x="258" y="620"/>
			<point x="459" y="620" type="curve" smooth="yes"/>
			<point x="693" y="620"/>
			<point x="778" y="429.7647058824"/>
			<point x="778" y="290" type="curve" smooth="yes"/>
			<point x="778" y="159"/>
			<point x="715" y="112"/>
			<point x="657" y="112" type="curve" smooth="yes"/>
			<point x="547" y="112"/>
			<point x="570" y="231"/>
			<point x="510" y="256" type="curve"/>
			<point x="535" y="256" type="line"/>
			<point x="499" y="219"/>
			<point x="494" y="101"/>
			<point x="389" y="101" type="curve" smooth="yes"/>
			<point x="331" y="101"/>
			<point x="278" y="138"/>
			<point x="278" y="219" type="curve" smooth="yes"/>
			<point x="278" y="324"/>
			<point x="390" y="409"/>
			<point x="495" y="409" type="curve" smooth="yes"/>
			<point x="516" y="409"/>
			<point x="529" y="397"/>
			<point x="529" y="378" type="curve" smooth="yes"/>
			<point x="529" y="358"/>
			<point x="517" y="343"/>
		</contour>
	</outline>
</glyph>
<glyph name="A" format="2">
  <advance width="713"/>
  <unicode hex="0041"/>
  <anchor x="401" y="700" name="top"/>
  <anchor x="355" y="0" name="bottom"/>
  <anchor x="401" y="699" name="ring"/>
  <anchor x="619" y="0" name="ogonek"/>
  <outline>
    <contour>
      <point x="605" y="-9" type="curve" smooth="yes"/>
      <point x="619" y="-9"/>
      <point x="628" y="1"/>
      <point x="628" y="19" type="curve" smooth="yes"/>
      <point x="628" y="71"/>
      <point x="569" y="165"/>
      <point x="543" y="397" type="curve" smooth="yes"/>
      <point x="520" y="612"/>
      <point x="511" y="710"/>
      <point x="403" y="710" type="curve" smooth="yes"/>
      <point x="338" y="710"/>
      <point x="287" y="650"/>
      <point x="223" y="519" type="curve"/>
      <point x="252" y="526" type="line"/>
      <point x="241" y="544"/>
      <point x="227" y="555"/>
      <point x="211" y="555" type="curve"/>
      <point x="195" y="555"/>
      <point x="187" y="541"/>
      <point x="186" y="520" type="curve" smooth="yes"/>
      <point x="175" y="351"/>
      <point x="93" y="188"/>
      <point x="93" y="39" type="curve" smooth="yes"/>
      <point x="93" y="3"/>
      <point x="106" y="-8"/>
      <point x="126" y="-8" type="curve" smooth="yes"/>
      <point x="141" y="-8"/>
      <point x="148" y="5"/>
      <point x="151" y="25" type="curve" smooth="yes"/>
      <point x="203" y="395"/>
      <point x="325" y="645"/>
      <point x="403" y="645" type="curve" smooth="yes"/>
      <point x="456" y="645"/>
      <point x="462" y="568"/>
      <point x="481" y="392" type="curve" smooth="yes"/>
      <point x="493" y="283"/>
      <point x="524" y="150"/>
      <point x="548" y="77" type="curve" smooth="yes"/>
      <point x="568" y="15"/>
      <point x="579" y="-9"/>
    </contour>
    <contour>
      <point x="70" y="194" type="curve" smooth="yes"/>
      <point x="160.0" y="194.0"/>
      <point x="182.99999999999994" y="265.0"/>
      <point x="607" y="265" type="curve" smooth="yes"/>
      <point x="649.0" y="265.0"/>
      <point x="669.0" y="280.55555555555554"/>
      <point x="669" y="300" type="curve" smooth="yes"/>
      <point x="669" y="320"/>
      <point x="659.6122448979592" y="330.0"/>
      <point x="623" y="330" type="curve" smooth="yes"/>
      <point x="409" y="330"/>
      <point x="217" y="305"/>
      <point x="72" y="248" type="curve" smooth="yes"/>
      <point x="50.19179984440375" y="239.07846357271063"/>
      <point x="44.0" y="231.125"/>
      <point x="44" y="218" type="curve" smooth="yes"/>
      <point x="44.0" y="203.8181818181818"/>
      <point x="53.0" y="194.0"/>
    </contour>
  </outline>
</glyph>
<glyph name="C" format="2">
	<unicode hex="0043"/>
	<advance width="618"/>
	<image fileName="B_.png" xScale="2.61189" yScale="2.61189" xOffset="-677.79" yOffset="-300.368"/>
	<outline>
		<contour>
			<point x="336" y="-10" type="curve" smooth="yes"/>
			<point x="495" y="-10"/>
			<point x="568" y="87"/>
			<point x="568" y="136" type="curve" smooth="yes"/>
			<point x="568" y="154"/>
			<point x="561" y="169"/>
			<point x="548" y="169" type="curve" smooth="yes"/>
			<point x="515" y="169"/>
			<point x="495" y="55"/>
			<point x="335" y="55" type="curve" smooth="yes"/>
			<point x="214" y="55"/>
			<point x="137" y="138"/>
			<point x="137" y="288" type="curve" smooth="yes"/>
			<point x="137" y="471"/>
			<point x="246" y="646"/>
			<point x="404" y="646" type="curve" smooth="yes"/>
			<point x="465" y="646"/>
			<point x="473" y="618"/>
			<point x="473" y="590" type="curve" smooth="yes"/>
			<point x="473" y="558"/>
			<point x="466" y="530"/>
			<point x="496" y="530" type="curve" smooth="yes"/>
			<point x="526" y="530"/>
			<point x="541" y="562"/>
			<point x="541" y="595" type="curve" smooth="yes"/>
			<point x="541" y="665"/>
			<point x="504" y="711"/>
			<point x="406" y="711" type="curve" smooth="yes"/>
			<point x="207" y="711"/>
			<point x="70" y="506"/>
			<point x="70" y="289" type="curve" smooth="yes"/>
			<point x="70" y="121"/>
			<point x="143" y="-10"/>
		</contour>
	</outline>
	<anchor name="bottom" x="332" y="0"/>
	<anchor name="top" x="375" y="700"/>
</glyph>
<glyph name="D" format="2">
  <advance width="642"/>
  <unicode hex="0044"/>
  <anchor x="348" y="700" name="top"/>
  <anchor x="213" y="0" name="bottom"/>
  <outline>
    <contour>
      <point x="204" y="-10" type="curve" smooth="yes"/>
      <point x="371" y="-10"/>
      <point x="589" y="182"/>
      <point x="589" y="458" type="curve" smooth="yes"/>
      <point x="589.0" y="621.0"/>
      <point x="509" y="709.0"/>
      <point x="356" y="709" type="curve" smooth="yes"/>
      <point x="234" y="709"/>
      <point x="104" y="661"/>
      <point x="49" y="632" type="curve" smooth="yes"/>
      <point x="37.328486771658994" y="625.7153390308932"/>
      <point x="33.0" y="617.1428571428571"/>
      <point x="33" y="606" type="curve" smooth="yes"/>
      <point x="33.0" y="591.8695652173913"/>
      <point x="42.375" y="581.0"/>
      <point x="63" y="581" type="curve" smooth="yes"/>
      <point x="132" y="581"/>
      <point x="195" y="644"/>
      <point x="346" y="644" type="curve" smooth="yes"/>
      <point x="474.77966101694915" y="644.0"/>
      <point x="520.0" y="575.0"/>
      <point x="520" y="456" type="curve" smooth="yes"/>
      <point x="520.0" y="224.00000000000003"/>
      <point x="345" y="44"/>
      <point x="157" y="51" type="curve"/>
      <point x="188" y="36" type="line"/>
      <point x="169" y="75"/>
      <point x="167" y="102"/>
      <point x="167" y="147" type="curve" smooth="yes"/>
      <point x="167" y="362"/>
      <point x="191" y="486"/>
      <point x="191" y="583" type="curve" smooth="yes"/>
      <point x="191" y="609"/>
      <point x="179" y="631"/>
      <point x="165" y="631" type="curve" smooth="yes"/>
      <point x="145" y="631"/>
      <point x="136" y="617"/>
      <point x="131" y="578" type="curve" smooth="yes"/>
      <point x="113" y="433"/>
      <point x="103" y="291"/>
      <point x="103" y="94" type="curve" smooth="yes"/>
      <point x="103" y="43"/>
      <point x="146" y="-10"/>
    </contour>
  </outline>
</glyph>
<glyph name="E" format="2">
	<unicode hex="0045"/>
	<advance width="633"/>
	<outline>
		<contour>
			<point x="149" y="569" type="curve" smooth="yes"/>
			<point x="105" y="499"/>
			<point x="68" y="393"/>
			<point x="68" y="293" type="curve" smooth="yes"/>
			<point x="68" y="119"/>
			<point x="175" y="-7"/>
			<point x="361" y="-7" type="curve" smooth="yes"/>
			<point x="521.1954022989" y="-7"/>
			<point x="592" y="52.0227272727"/>
			<point x="592" y="91" type="curve" smooth="yes"/>
			<point x="592" y="107"/>
			<point x="586" y="119"/>
			<point x="568" y="119" type="curve" smooth="yes"/>
			<point x="541" y="119"/>
			<point x="517" y="58"/>
			<point x="357" y="58" type="curve" smooth="yes"/>
			<point x="224" y="58"/>
			<point x="135" y="153"/>
			<point x="136" y="295" type="curve" smooth="yes"/>
			<point x="137" y="401"/>
			<point x="181" y="512"/>
			<point x="244" y="602" type="curve" smooth="yes"/>
			<point x="267" y="635"/>
			<point x="257" y="646"/>
			<point x="231" y="646" type="curve" smooth="yes"/>
			<point x="199" y="646"/>
			<point x="174" y="609"/>
		</contour>
		<contour>
			<point x="155" y="281" type="curve" smooth="yes"/>
			<point x="219.5538986092" y="295.9690199673"/>
			<point x="343.2310338048" y="314.4063717699"/>
			<point x="429" y="320" type="curve" smooth="yes"/>
			<point x="467" y="322"/>
			<point x="502" y="330"/>
			<point x="502" y="360" type="curve" smooth="yes"/>
			<point x="502" y="376"/>
			<point x="492" y="386"/>
			<point x="456" y="386" type="curve" smooth="yes"/>
			<point x="397.9860656719" y="385.0642913818"/>
			<point x="261.5577249945" y="367.9367118923"/>
			<point x="165" y="352" type="curve" smooth="yes"/>
			<point x="122" y="345"/>
			<point x="98" y="330"/>
			<point x="98" y="312" type="curve" smooth="yes"/>
			<point x="98" y="293"/>
			<point x="112" y="271"/>
		</contour>
		<contour>
			<point x="128" y="616" type="curve" smooth="yes"/>
			<point x="204.3386727689" y="616"/>
			<point x="278.7688787185" y="643"/>
			<point x="545" y="643" type="curve" smooth="yes"/>
			<point x="578" y="643"/>
			<point x="590" y="660"/>
			<point x="590" y="683" type="curve" smooth="yes"/>
			<point x="590" y="697"/>
			<point x="580" y="708"/>
			<point x="561" y="708" type="curve" smooth="yes"/>
			<point x="438.4817987152" y="708"/>
			<point x="248.1652813992" y="698.041439087"/>
			<point x="114" y="676" type="curve" smooth="yes"/>
			<point x="95" y="672"/>
			<point x="87" y="656"/>
			<point x="87" y="645" type="curve" smooth="yes"/>
			<point x="87" y="627"/>
			<point x="101" y="616"/>
		</contour>
	</outline>
	<anchor name="top" x="365" y="700"/>
	<anchor name="bottom" x="361" y="0"/>
	<anchor name="ogonek" x="546" y="37"/>
</glyph>
<glyph name="F" format="2">
	<unicode hex="0046"/>
	<advance width="559"/>
	<outline>
		<contour>
			<point x="163" y="270" type="curve" smooth="yes"/>
			<point x="160" y="363"/>
			<point x="190" y="514"/>
			<point x="207" y="604" type="curve" smooth="yes"/>
			<point x="211" y="632"/>
			<point x="210" y="652"/>
			<point x="192" y="652" type="curve" smooth="yes"/>
			<point x="163" y="652"/>
			<point x="145" y="632"/>
			<point x="132" y="572" type="curve" smooth="yes"/>
			<point x="112" y="483"/>
			<point x="95" y="376"/>
			<point x="95" y="294" type="curve" smooth="yes"/>
			<point x="95" y="175"/>
			<point x="111" y="117"/>
			<point x="136" y="63" type="curve" smooth="yes"/>
			<point x="161" y="8"/>
			<point x="175" y="-10"/>
			<point x="201" y="-10" type="curve" smooth="yes"/>
			<point x="218" y="-10"/>
			<point x="227" y="4"/>
			<point x="227" y="22" type="curve" smooth="yes"/>
			<point x="227" y="61"/>
			<point x="168" y="96"/>
		</contour>
		<contour>
			<point x="472" y="646" type="curve" smooth="yes"/>
			<point x="505" y="646"/>
			<point x="516" y="654"/>
			<point x="516" y="671" type="curve" smooth="yes"/>
			<point x="516" y="695"/>
			<point x="495" y="711"/>
			<point x="455" y="711" type="curve" smooth="yes"/>
			<point x="336" y="711"/>
			<point x="168" y="695"/>
			<point x="71" y="675" type="curve" smooth="yes"/>
			<point x="50" y="670"/>
			<point x="43" y="658"/>
			<point x="43" y="642" type="curve" smooth="yes"/>
			<point x="43" y="626"/>
			<point x="59" y="614"/>
			<point x="84" y="614" type="curve" smooth="yes"/>
			<point x="128" y="614"/>
			<point x="260" y="646"/>
		</contour>
		<contour>
			<point x="189" y="303" type="curve" smooth="yes"/>
			<point x="241" y="313"/>
			<point x="283" y="315"/>
			<point x="381" y="322" type="curve" smooth="yes"/>
			<point x="446" y="327"/>
			<point x="470" y="337"/>
			<point x="470" y="365" type="curve"/>
			<point x="470" y="385"/>
			<point x="458" y="389"/>
			<point x="418" y="389" type="curve" smooth="yes"/>
			<point x="343" y="388"/>
			<point x="247" y="379"/>
			<point x="171" y="368" type="curve" smooth="yes"/>
			<point x="129" y="362"/>
			<point x="118" y="351"/>
			<point x="118" y="326" type="curve" smooth="yes"/>
			<point x="118" y="316"/>
			<point x="127" y="291"/>
		</contour>
	</outline>
	<anchor name="bottom" x="197" y="0"/>
	<anchor name="top" x="297" y="700"/>
</glyph>
<glyph name="I" format="2">
	<unicode hex="0049"/>
	<advance width="547"/>
	<outline>
		<contour>
			<point x="76" y="-11" type="curve" smooth="yes"/>
			<point x="137" y="-11"/>
			<point x="275" y="0"/>
			<point x="443" y="0" type="curve" smooth="yes"/>
			<point x="493" y="0"/>
			<point x="514" y="18"/>
			<point x="514" y="40" type="curve" smooth="yes"/>
			<point x="514" y="55"/>
			<point x="505" y="66"/>
			<point x="468" y="66" type="curve" smooth="yes"/>
			<point x="313" y="66"/>
			<point x="174" y="61"/>
			<point x="62" y="49" type="curve" smooth="yes"/>
			<point x="40" y="47"/>
			<point x="33" y="36"/>
			<point x="33" y="20" type="curve" smooth="yes"/>
			<point x="33" y="1"/>
			<point x="46" y="-11"/>
		</contour>
		<contour>
			<point x="67" y="615" type="curve" smooth="yes"/>
			<point x="150" y="615"/>
			<point x="182" y="639"/>
			<point x="417" y="639" type="curve" smooth="yes"/>
			<point x="479" y="639"/>
			<point x="514" y="655"/>
			<point x="514" y="683" type="curve" smooth="yes"/>
			<point x="514" y="700"/>
			<point x="504" y="705"/>
			<point x="471" y="705" type="curve" smooth="yes"/>
			<point x="327" y="705"/>
			<point x="161" y="692"/>
			<point x="72" y="677" type="curve" smooth="yes"/>
			<point x="41" y="671"/>
			<point x="33" y="655"/>
			<point x="33" y="643" type="curve" smooth="yes"/>
			<point x="33" y="625"/>
			<point x="48" y="615"/>
		</contour>
		<contour>
			<point x="278" y="40" type="curve" smooth="yes"/>
			<point x="293" y="40"/>
			<point x="302" y="49"/>
			<point x="302" y="69" type="curve" smooth="yes"/>
			<point x="302" y="305"/>
			<point x="319" y="496"/>
			<point x="319" y="595" type="curve" smooth="yes"/>
			<point x="319" y="634"/>
			<point x="300" y="665"/>
			<point x="277" y="665" type="curve" smooth="yes"/>
			<point x="258" y="665"/>
			<point x="252" y="651"/>
			<point x="252" y="624" type="curve" smooth="yes"/>
			<point x="252" y="489"/>
			<point x="235" y="304"/>
			<point x="235" y="117" type="curve" smooth="yes"/>
			<point x="235" y="70"/>
			<point x="252" y="40"/>
		</contour>
	</outline>
	<anchor name="bottom" x="277" y="0"/>
	<anchor name="ogonek" x="443" y="3"/>
	<anchor name="top" x="277" y="700"/>
</glyph>
<glyph name="M" format="2">
	<unicode hex="004D"/>
	<advance width="936"/>
	<image fileName="B_.png" xScale="2.61189" yScale="2.61189" xOffset="-3165.79" yOffset="-300.368"/>
	<outline>
		<contour>
			<point x="167" y="478" type="line"/>
			<point x="155" y="588"/>
			<point x="126" y="648"/>
			<point x="92" y="648" type="curve" smooth="yes"/>
			<point x="74" y="648"/>
			<point x="64" y="638"/>
			<point x="64" y="619" type="curve" smooth="yes"/>
			<point x="64" y="582"/>
			<point x="102" y="549"/>
			<point x="102" y="379" type="curve" smooth="yes"/>
			<point x="102" y="300"/>
			<point x="90" y="226"/>
			<point x="90" y="74" type="curve" smooth="yes"/>
			<point x="90" y="2"/>
			<point x="115" y="-12"/>
			<point x="134" y="-12" type="curve" smooth="yes"/>
			<point x="151" y="-12"/>
			<point x="164" y="-1"/>
			<point x="164" y="24" type="curve" smooth="yes"/>
			<point x="164" y="308"/>
			<point x="197" y="515"/>
			<point x="279" y="640" type="curve"/>
			<point x="256" y="640" type="line"/>
			<point x="288" y="577"/>
			<point x="302" y="497"/>
			<point x="314" y="387" type="curve" smooth="yes"/>
			<point x="333" y="231"/>
			<point x="362" y="100"/>
			<point x="407" y="29" type="curve" smooth="yes"/>
			<point x="425" y="2"/>
			<point x="438" y="-9"/>
			<point x="459" y="-9" type="curve" smooth="yes"/>
			<point x="483" y="-9"/>
			<point x="490" y="2"/>
			<point x="503" y="32" type="curve" smooth="yes"/>
			<point x="596" y="261"/>
			<point x="636" y="499"/>
			<point x="716" y="629" type="curve"/>
			<point x="705" y="634" type="line"/>
			<point x="726" y="574"/>
			<point x="731" y="533"/>
			<point x="738" y="429" type="curve" smooth="yes"/>
			<point x="746" y="301"/>
			<point x="775" y="145"/>
			<point x="807" y="65" type="curve" smooth="yes"/>
			<point x="831" y="8"/>
			<point x="848" y="-9"/>
			<point x="870" y="-9" type="curve" smooth="yes"/>
			<point x="893" y="-9"/>
			<point x="907" y="8"/>
			<point x="889" y="49" type="curve" smooth="yes"/>
			<point x="839" y="169"/>
			<point x="819" y="296"/>
			<point x="808" y="437" type="curve" smooth="yes"/>
			<point x="790" y="662"/>
			<point x="761" y="703"/>
			<point x="719" y="703" type="curve" smooth="yes"/>
			<point x="680" y="703"/>
			<point x="650" y="666"/>
			<point x="610" y="568" type="curve" smooth="yes"/>
			<point x="563" y="450"/>
			<point x="505" y="213"/>
			<point x="437" y="54" type="curve"/>
			<point x="465" y="69" type="line"/>
			<point x="430" y="139"/>
			<point x="406" y="232"/>
			<point x="394" y="325" type="curve" smooth="yes"/>
			<point x="366" y="538"/>
			<point x="344" y="709"/>
			<point x="271" y="709" type="curve" smooth="yes"/>
			<point x="226" y="709"/>
			<point x="177" y="637"/>
			<point x="143" y="481" type="curve"/>
		</contour>
	</outline>
	<anchor name="bottom" x="459" y="0"/>
	<anchor name="top" x="491" y="700"/>
</glyph>
<glyph name="P" format="2">
  <advance width="570"/>
  <unicode hex="0050"/>
  <image fileName="B_.png" xScale="2.61189" yScale="2.61189" xOffset="-4065.79" yOffset="-300.368"/>
  <anchor x="171" y="0" name="bottom"/>
  <anchor x="299" y="700" name="top"/>
  <outline>
    <contour>
      <point x="138" y="47" type="curve" smooth="yes"/>
      <point x="138" y="8"/>
      <point x="152" y="-10"/>
      <point x="171" y="-10" type="curve" smooth="yes"/>
      <point x="192" y="-10"/>
      <point x="205" y="4"/>
      <point x="205" y="25" type="curve" smooth="yes"/>
      <point x="205" y="233"/>
      <point x="140" y="341"/>
      <point x="140" y="466" type="curve" smooth="yes"/>
      <point x="140" y="581"/>
      <point x="193" y="643"/>
      <point x="298" y="643" type="curve" smooth="yes"/>
      <point x="381" y="643"/>
      <point x="458" y="589"/>
      <point x="458" y="480" type="curve" smooth="yes"/>
      <point x="458" y="389"/>
      <point x="377" y="308"/>
      <point x="256" y="308" type="curve" smooth="yes"/>
      <point x="197" y="308"/>
      <point x="185" y="326"/>
      <point x="158" y="326" type="curve" smooth="yes"/>
      <point x="147" y="326"/>
      <point x="139" y="318"/>
      <point x="139" y="303" type="curve" smooth="yes"/>
      <point x="139" y="272"/>
      <point x="189" y="243"/>
      <point x="259" y="243" type="curve" smooth="yes"/>
      <point x="416" y="243"/>
      <point x="525" y="360"/>
      <point x="525" y="480" type="curve" smooth="yes"/>
      <point x="525" y="625"/>
      <point x="423" y="708"/>
      <point x="299" y="708" type="curve" smooth="yes"/>
      <point x="141" y="708"/>
      <point x="73" y="610"/>
      <point x="73" y="466" type="curve" smooth="yes"/>
      <point x="73" y="335"/>
      <point x="138" y="219"/>
    </contour>
  </outline>
</glyph>
<glyph name="Q" format="2">
	<unicode hex="0051"/>
	<advance width="716"/>
	<image fileName="B_.png" xScale="2.61189" yScale="2.61189" xOffset="-4656.79" yOffset="-300.368"/>
	<outline>
		<contour>
			<point x="438" y="275" type="curve" smooth="yes"/>
			<point x="409" y="323"/>
			<point x="399" y="335"/>
			<point x="375" y="335" type="curve" smooth="yes"/>
			<point x="348" y="335"/>
			<point x="336" y="303"/>
			<point x="361" y="268" type="curve" smooth="yes"/>
			<point x="415" y="189"/>
			<point x="485" y="5"/>
			<point x="557" y="-74" type="curve" smooth="yes"/>
			<point x="587" y="-106"/>
			<point x="603" y="-111"/>
			<point x="622" y="-111" type="curve" smooth="yes"/>
			<point x="648" y="-111"/>
			<point x="667" y="-87"/>
			<point x="638" y="-54" type="curve" smooth="yes"/>
			<point x="532" y="67"/>
			<point x="468" y="227"/>
		</contour>
		<contour>
			<point x="218" y="575" type="curve" smooth="yes"/>
			<point x="246" y="603"/>
			<point x="264" y="609"/>
			<point x="264" y="626" type="curve" smooth="yes"/>
			<point x="264" y="639"/>
			<point x="256" y="654"/>
			<point x="233" y="654" type="curve" smooth="yes"/>
			<point x="191" y="654"/>
			<point x="70" y="538"/>
			<point x="70" y="313" type="curve" smooth="yes"/>
			<point x="70" y="144"/>
			<point x="147" y="-9"/>
			<point x="360" y="-9" type="curve" smooth="yes"/>
			<point x="539" y="-9"/>
			<point x="644" y="144"/>
			<point x="644" y="327" type="curve" smooth="yes"/>
			<point x="644" y="546"/>
			<point x="532" y="709"/>
			<point x="399" y="709" type="curve" smooth="yes"/>
			<point x="277" y="709"/>
			<point x="156" y="588"/>
			<point x="156" y="499" type="curve" smooth="yes"/>
			<point x="156" y="487"/>
			<point x="161" y="478"/>
			<point x="169" y="478" type="curve" smooth="yes"/>
			<point x="192" y="478"/>
			<point x="207" y="488"/>
			<point x="223" y="519" type="curve" smooth="yes"/>
			<point x="264" y="598"/>
			<point x="331" y="644"/>
			<point x="384" y="644" type="curve" smooth="yes"/>
			<point x="509" y="644"/>
			<point x="577" y="484"/>
			<point x="577" y="315" type="curve" smooth="yes"/>
			<point x="577" y="183"/>
			<point x="494" y="56"/>
			<point x="360" y="56" type="curve" smooth="yes"/>
			<point x="197" y="56"/>
			<point x="137" y="179"/>
			<point x="137" y="313" type="curve" smooth="yes"/>
			<point x="137" y="409"/>
			<point x="166" y="523"/>
		</contour>
	</outline>
	<anchor name="bottom" x="359" y="0"/>
	<anchor name="top" x="388" y="700"/>
</glyph>
<glyph name="X" format="2">
	<unicode hex="0058"/>
	<advance width="637"/>
	<image fileName="W_.png" xScale="2.1183007847" xyScale="-0.3644236559" yxScale="0.3644236559" yScale="2.1183007847" xOffset="-7152.8449585541" yOffset="1029.1221139848" color="0,0,0,0.26332"/>
	<outline>
		<contour>
			<point x="131" y="681" type="curve" smooth="yes"/>
			<point x="174" y="511"/>
			<point x="494" y="213"/>
			<point x="556" y="95" type="curve" smooth="yes"/>
			<point x="594" y="21"/>
			<point x="574" y="-6"/>
			<point x="553" y="-6" type="curve" smooth="yes"/>
			<point x="541" y="-6"/>
			<point x="529" y="1"/>
			<point x="503" y="47" type="curve" smooth="yes"/>
			<point x="415" y="213"/>
			<point x="152" y="434"/>
			<point x="91" y="591" type="curve" smooth="yes"/>
			<point x="56" y="684"/>
			<point x="67" y="709"/>
			<point x="95" y="709" type="curve" smooth="yes"/>
			<point x="114" y="709"/>
			<point x="126" y="700"/>
		</contour>
		<contour>
			<point x="556" y="618" type="curve" smooth="yes"/>
			<point x="441" y="512"/>
			<point x="260" y="284"/>
			<point x="105" y="28" type="curve" smooth="yes"/>
			<point x="84" y="-7"/>
			<point x="72" y="-13"/>
			<point x="57" y="-13" type="curve" smooth="yes"/>
			<point x="31" y="-13"/>
			<point x="21" y="18"/>
			<point x="53" y="75" type="curve" smooth="yes"/>
			<point x="134" y="213"/>
			<point x="380" y="547"/>
			<point x="536" y="692" type="curve" smooth="yes"/>
			<point x="552" y="706"/>
			<point x="560" y="709"/>
			<point x="568" y="709" type="curve" smooth="yes"/>
			<point x="590" y="709"/>
			<point x="609" y="668"/>
		</contour>
	</outline>
	<anchor name="top" x="307" y="700"/>
	<anchor name="bottom" x="307" y="0"/>
</glyph>
<glyph name="Y" format="2">
  <advance width="598"/>
  <unicode hex="0059"/>
  <image fileName="W_.png" xScale="2.14942" yScale="2.14942" xOffset="-7799.938" yOffset="-239.078"/>
  <anchor x="220" y="0" name="bottom"/>
  <anchor x="296" y="700" name="top"/>
  <outline>
    <contour>
      <point x="539" y="614" type="curve" smooth="yes"/>
      <point x="576" y="652"/>
      <point x="580" y="659"/>
      <point x="580" y="683" type="curve" smooth="yes"/>
      <point x="580" y="702"/>
      <point x="567" y="713"/>
      <point x="554" y="713" type="curve" smooth="yes"/>
      <point x="539" y="713"/>
      <point x="524" y="708"/>
      <point x="498" y="680" type="curve" smooth="yes"/>
      <point x="341" y="509"/>
      <point x="235" y="264"/>
      <point x="195" y="69" type="curve" smooth="yes"/>
      <point x="181" y="8"/>
      <point x="193" y="-14"/>
      <point x="219" y="-14" type="curve" smooth="yes"/>
      <point x="244" y="-14"/>
      <point x="256" y="-2"/>
      <point x="265" y="48" type="curve" smooth="yes"/>
      <point x="305" y="267"/>
      <point x="405" y="470"/>
    </contour>
    <contour>
      <point x="93" y="679" type="curve" smooth="yes"/>
      <point x="80" y="702"/>
      <point x="69" y="712"/>
      <point x="50" y="712" type="curve" smooth="yes"/>
      <point x="33" y="712"/>
      <point x="22" y="701"/>
      <point x="22" y="684" type="curve" smooth="yes"/>
      <point x="22" y="668"/>
      <point x="26" y="659"/>
      <point x="48" y="620" type="curve" smooth="yes"/>
      <point x="105" y="525"/>
      <point x="149" y="483"/>
      <point x="237" y="338" type="curve" smooth="yes"/>
      <point x="247" y="321"/>
      <point x="259" y="309"/>
      <point x="277" y="309" type="curve" smooth="yes"/>
      <point x="309" y="309"/>
      <point x="306" y="344"/>
      <point x="297" y="362" type="curve" smooth="yes"/>
      <point x="217" y="512"/>
      <point x="169" y="540"/>
    </contour>
  </outline>
</glyph>
<glyph name="Z" format="2">
	<unicode hex="005A"/>
	<advance width="616"/>
	<image fileName="W_.png" xScale="2.149419181" yScale="2.149419181" xOffset="-8482.561352475" yOffset="-239.078106569" color="0,0,0,0.26332"/>
	<outline>
		<contour>
			<point x="128" y="690" type="curve" smooth="yes"/>
			<point x="212" y="702"/>
			<point x="292" y="710"/>
			<point x="370" y="710" type="curve" smooth="yes"/>
			<point x="492" y="710"/>
			<point x="548" y="672"/>
			<point x="548" y="606" type="curve" smooth="yes"/>
			<point x="548" y="529"/>
			<point x="515" y="479"/>
			<point x="327" y="318" type="curve" smooth="yes"/>
			<point x="154" y="168"/>
			<point x="122" y="113"/>
			<point x="133" y="44" type="curve"/>
			<point x="113" y="92" type="line"/>
			<point x="127" y="71"/>
			<point x="146" y="60"/>
			<point x="182" y="60" type="curve" smooth="yes"/>
			<point x="254" y="60"/>
			<point x="326" y="68"/>
			<point x="409" y="68" type="curve" smooth="yes"/>
			<point x="536" y="68"/>
			<point x="588" y="55.4893617021"/>
			<point x="588" y="19" type="curve" smooth="yes"/>
			<point x="588" y="2"/>
			<point x="573" y="-7"/>
			<point x="541" y="-7" type="curve" smooth="yes"/>
			<point x="495" y="-7"/>
			<point x="474" y="0"/>
			<point x="393" y="0" type="curve" smooth="yes"/>
			<point x="317.2807017544" y="0"/>
			<point x="246.1228070175" y="-7"/>
			<point x="185" y="-7" type="curve" smooth="yes"/>
			<point x="93" y="-7"/>
			<point x="61" y="23.1875"/>
			<point x="61" y="77" type="curve" smooth="yes"/>
			<point x="61" y="139.8385093168"/>
			<point x="112" y="226"/>
			<point x="294" y="379" type="curve" smooth="yes"/>
			<point x="450" y="510"/>
			<point x="494" y="575"/>
			<point x="479" y="637" type="curve"/>
			<point x="493" y="610" type="line"/>
			<point x="469" y="629"/>
			<point x="437" y="642"/>
			<point x="362" y="642" type="curve" smooth="yes"/>
			<point x="241" y="642"/>
			<point x="177.1729957806" y="623"/>
			<point x="129" y="623" type="curve" smooth="yes"/>
			<point x="103.7" y="623"/>
			<point x="85" y="633.303030303"/>
			<point x="85" y="657" type="curve" smooth="yes"/>
			<point x="85" y="673"/>
			<point x="97" y="685"/>
		</contour>
	</outline>
	<anchor name="top" x="319" y="700"/>
	<anchor name="bottom" x="319" y="0"/>
</glyph>
<glyph name="bracketleft" format="2">
  <advance width="452"/>
  <unicode hex="005B"/>
  <outline>
    <contour>
      <point x="347" y="748" type="curve" smooth="yes"/>
      <point x="279" y="748"/>
      <point x="174" y="732"/>
      <point x="123" y="734" type="curve"/>
      <point x="163" y="764" type="line"/>
      <point x="142" y="628"/>
      <point x="162" y="351"/>
      <point x="156" y="238" type="curve" smooth="yes"/>
      <point x="151" y="133"/>
      <point x="136" y="-83"/>
      <point x="185" y="-211" type="curve"/>
      <point x="143" y="-196" type="line"/>
      <point x="182" y="-183"/>
      <point x="248" y="-191"/>
      <point x="310" y="-191" type="curve" smooth="yes"/>
      <point x="342" y="-191"/>
      <point x="379" y="-185"/>
      <point x="394" y="-185" type="curve" smooth="yes"/>
      <point x="411" y="-185"/>
      <point x="420" y="-198"/>
      <point x="420" y="-213" type="curve" smooth="yes"/>
      <point x="420" y="-247"/>
      <point x="387" y="-259"/>
      <point x="327" y="-259" type="curve" smooth="yes"/>
      <point x="293" y="-259"/>
      <point x="256" y="-256"/>
      <point x="224" y="-256" type="curve" smooth="yes"/>
      <point x="195" y="-256"/>
      <point x="173" y="-264"/>
      <point x="153" y="-264" type="curve" smooth="yes"/>
      <point x="138" y="-264"/>
      <point x="129" y="-256"/>
      <point x="123" y="-245" type="curve" smooth="yes"/>
      <point x="58" y="-123"/>
      <point x="81" y="127"/>
      <point x="86" y="242" type="curve" smooth="yes"/>
      <point x="92" y="356"/>
      <point x="73" y="637"/>
      <point x="93" y="774" type="curve" smooth="yes"/>
      <point x="96" y="793"/>
      <point x="114" y="804"/>
      <point x="133" y="804" type="curve" smooth="yes"/>
      <point x="181" y="804"/>
      <point x="286" y="817"/>
      <point x="357" y="817" type="curve" smooth="yes"/>
      <point x="396" y="817"/>
      <point x="422" y="813"/>
      <point x="422" y="786" type="curve" smooth="yes"/>
      <point x="422" y="764"/>
      <point x="403" y="746"/>
      <point x="382" y="746" type="curve" smooth="yes"/>
      <point x="368" y="746"/>
      <point x="360" y="748"/>
    </contour>
  </outline>
</glyph>
<glyph name="backslash" format="2">
	<unicode hex="005C"/>
	<advance width="330"/>
	<outline>
		<contour>
			<point x="74" y="789" type="curve" smooth="yes"/>
			<point x="107" y="432"/>
			<point x="220" y="160"/>
			<point x="344" y="-104" type="curve" smooth="yes"/>
			<point x="363" y="-147"/>
			<point x="343" y="-169"/>
			<point x="313" y="-169" type="curve" smooth="yes"/>
			<point x="298" y="-169"/>
			<point x="285" y="-158"/>
			<point x="274" y="-137" type="curve" smooth="yes"/>
			<point x="141" y="143"/>
			<point x="34" y="435"/>
			<point x="-1" y="774" type="curve" smooth="yes"/>
			<point x="-7" y="824"/>
			<point x="5" y="846"/>
			<point x="32" y="846" type="curve" smooth="yes"/>
			<point x="50" y="846"/>
			<point x="70" y="828"/>
		</contour>
	</outline>
</glyph>
<glyph name="a" format="2">
	<unicode hex="0061"/>
	<advance width="624"/>
	<outline>
		<contour>
			<point x="524" y="14" type="curve" smooth="yes"/>
			<point x="534" y="0"/>
			<point x="543" y="-7"/>
			<point x="561" y="-7" type="curve" smooth="yes"/>
			<point x="585" y="-7"/>
			<point x="598" y="28"/>
			<point x="580" y="51" type="curve" smooth="yes"/>
			<point x="504" y="152"/>
			<point x="494" y="243"/>
			<point x="481" y="388" type="curve" smooth="yes"/>
			<point x="478" y="428"/>
			<point x="459" y="454"/>
			<point x="429" y="454" type="curve"/>
			<point x="423" y="454"/>
			<point x="420" y="456"/>
			<point x="420" y="460" type="curve" smooth="yes"/>
			<point x="420" y="482"/>
			<point x="402" y="494"/>
			<point x="378" y="494" type="curve" smooth="yes"/>
			<point x="197" y="494"/>
			<point x="66" y="320"/>
			<point x="66" y="163" type="curve" smooth="yes"/>
			<point x="66" y="58"/>
			<point x="119" y="-10"/>
			<point x="206" y="-10" type="curve" smooth="yes"/>
			<point x="285" y="-10"/>
			<point x="375" y="57"/>
			<point x="424" y="231" type="curve" smooth="yes"/>
			<point x="428" y="247"/>
			<point x="436" y="241"/>
			<point x="438" y="230" type="curve" smooth="yes"/>
			<point x="453" y="124"/>
			<point x="485" y="66"/>
		</contour>
		<contour>
			<point x="401" y="422" type="curve" smooth="yes"/>
			<point x="362" y="181"/>
			<point x="293" y="54"/>
			<point x="202" y="54" type="curve" smooth="yes"/>
			<point x="161" y="54"/>
			<point x="137" y="86"/>
			<point x="137" y="163" type="curve" smooth="yes"/>
			<point x="137" y="289"/>
			<point x="238" y="409"/>
			<point x="390" y="431" type="curve" smooth="yes"/>
			<point x="398" y="432"/>
			<point x="402" y="430"/>
		</contour>
	</outline>
	<anchor name="top" x="320" y="485"/>
	<anchor name="bottom" x="320" y="0"/>
	<anchor name="ogonek" x="561" y="-7"/>
</glyph>
<glyph name="b" format="2">
	<unicode hex="0062"/>
	<advance width="582"/>
	<image fileName="b.png" xScale="2.580311745" yScale="2.580311745" xOffset="-92.140747017" yOffset="-580.570142633" color="0,0,0,0.24109"/>
	<outline>
		<contour>
			<point x="162" y="693" type="curve" smooth="yes"/>
			<point x="162" y="735"/>
			<point x="142" y="759"/>
			<point x="122" y="759" type="curve" smooth="yes"/>
			<point x="104" y="759"/>
			<point x="94" y="739"/>
			<point x="94" y="718" type="curve" smooth="yes"/>
			<point x="94" y="631.7362637363"/>
			<point x="78" y="568.7637362637"/>
			<point x="78" y="404" type="curve" smooth="yes"/>
			<point x="78" y="338"/>
			<point x="87" y="220"/>
			<point x="107" y="110" type="curve" smooth="yes"/>
			<point x="114" y="73"/>
			<point x="123" y="49"/>
			<point x="137" y="49" type="curve" smooth="yes"/>
			<point x="148" y="49"/>
			<point x="158" y="55"/>
			<point x="163" y="78" type="curve" smooth="yes"/>
			<point x="200" y="282"/>
			<point x="255" y="427"/>
			<point x="353" y="427" type="curve" smooth="yes"/>
			<point x="430" y="427"/>
			<point x="450" y="362"/>
			<point x="450" y="294" type="curve" smooth="yes"/>
			<point x="450" y="138"/>
			<point x="326" y="55"/>
			<point x="168" y="55" type="curve" smooth="yes"/>
			<point x="144" y="55"/>
			<point x="117" y="67"/>
			<point x="100" y="67" type="curve" smooth="yes"/>
			<point x="86" y="67"/>
			<point x="76" y="58"/>
			<point x="76" y="41" type="curve" smooth="yes"/>
			<point x="76" y="4"/>
			<point x="131" y="-10"/>
			<point x="180" y="-10" type="curve" smooth="yes"/>
			<point x="354" y="-10"/>
			<point x="517" y="99"/>
			<point x="517" y="285" type="curve" smooth="yes"/>
			<point x="517" y="431"/>
			<point x="449" y="493"/>
			<point x="353" y="493" type="curve" smooth="yes"/>
			<point x="277" y="493"/>
			<point x="176" y="420"/>
			<point x="140" y="217" type="curve" smooth="yes"/>
			<point x="129" y="154"/>
			<point x="159" y="130"/>
			<point x="156" y="186" type="curve" smooth="yes"/>
			<point x="151" y="269"/>
			<point x="146" y="334"/>
			<point x="146" y="388" type="curve" smooth="yes"/>
			<point x="146" y="552.9577464789"/>
			<point x="162" y="604.5070422535"/>
		</contour>
	</outline>
	<anchor name="top" x="125" y="750"/>
	<anchor name="bottom" x="308" y="0"/>
</glyph>
<glyph name="c" format="2">
  <advance width="502"/>
  <unicode hex="0063"/>
  <image fileName="b.png" xScale="2.580311745" yScale="2.580311745" xOffset="-593.3109110762" yOffset="-580.570142633" color="0,0,0,0.24109"/>
  <anchor x="280.0" y="485" name="top"/>
  <anchor x="280.0" y="0" name="bottom"/>
  <outline>
    <contour>
      <point x="454" y="94" type="curve" smooth="yes"/>
      <point x="454" y="116"/>
      <point x="447" y="124"/>
      <point x="433" y="124" type="curve" smooth="yes"/>
      <point x="403" y="124"/>
      <point x="409" y="56"/>
      <point x="286" y="56" type="curve"/>
      <point x="198" y="56"/>
      <point x="134" y="115"/>
      <point x="134" y="211" type="curve" smooth="yes"/>
      <point x="134" y="322"/>
      <point x="221" y="427"/>
      <point x="341" y="427" type="curve" smooth="yes"/>
      <point x="370" y="427"/>
      <point x="371" y="414"/>
      <point x="392" y="414" type="curve" smooth="yes"/>
      <point x="409" y="414"/>
      <point x="418" y="427"/>
      <point x="418" y="444" type="curve" smooth="yes"/>
      <point x="418" y="487"/>
      <point x="385" y="495"/>
      <point x="351" y="495" type="curve" smooth="yes"/>
      <point x="197" y="495"/>
      <point x="66" y="374"/>
      <point x="66" y="220" type="curve" smooth="yes"/>
      <point x="66" y="81"/>
      <point x="152" y="-9"/>
      <point x="286" y="-9" type="curve"/>
      <point x="379" y="-9"/>
      <point x="454" y="33"/>
    </contour>
  </outline>
</glyph>
<glyph name="e" format="2">
	<unicode hex="0065"/>
	<advance width="537"/>
	<outline>
		<contour>
			<point x="204" y="179" type="curve" smooth="yes"/>
			<point x="342.7053941909" y="179"/>
			<point x="448" y="243"/>
			<point x="448" y="349" type="curve" smooth="yes"/>
			<point x="448" y="447"/>
			<point x="391" y="495"/>
			<point x="303" y="495" type="curve" smooth="yes"/>
			<point x="145" y="495"/>
			<point x="45" y="343"/>
			<point x="45" y="210" type="curve" smooth="yes"/>
			<point x="45" y="82"/>
			<point x="107" y="-10"/>
			<point x="249" y="-10" type="curve" smooth="yes"/>
			<point x="365" y="-10"/>
			<point x="480" y="66"/>
			<point x="480" y="114" type="curve" smooth="yes"/>
			<point x="480" y="134"/>
			<point x="476" y="143"/>
			<point x="461" y="143" type="curve" smooth="yes"/>
			<point x="427" y="143"/>
			<point x="387" y="55"/>
			<point x="246" y="55" type="curve" smooth="yes"/>
			<point x="148" y="55"/>
			<point x="112" y="121"/>
			<point x="112" y="201" type="curve" smooth="yes"/>
			<point x="112" y="320"/>
			<point x="191" y="429"/>
			<point x="300" y="429" type="curve" smooth="yes"/>
			<point x="358" y="429"/>
			<point x="381" y="403"/>
			<point x="381" y="353" type="curve" smooth="yes"/>
			<point x="381" y="286"/>
			<point x="310" y="241"/>
			<point x="200" y="241" type="curve" smooth="yes"/>
			<point x="156" y="241"/>
			<point x="137" y="249"/>
			<point x="122" y="249" type="curve" smooth="yes"/>
			<point x="103" y="249"/>
			<point x="97" y="242"/>
			<point x="97" y="227" type="curve" smooth="yes"/>
			<point x="97" y="203.4705882353"/>
			<point x="120.7777777778" y="179"/>
		</contour>
	</outline>
	<anchor name="top" x="279" y="485"/>
	<anchor name="bottom" x="252" y="0"/>
	<anchor name="ogonek" x="412" y="39"/>
</glyph>
<glyph name="f" format="2">
  <advance width="345"/>
  <unicode hex="0066"/>
  <anchor x="237.0" y="800" name="top"/>
  <anchor x="120.0" y="0" name="bottom"/>
  <outline>
    <contour>
      <point x="154" y="419"/>
      <point x="180" y="434"/>
      <point x="284" y="434" type="curve" smooth="yes"/>
      <point x="310" y="434"/>
      <point x="321" y="443"/>
      <point x="321" y="458" type="curve" smooth="yes"/>
      <point x="321" y="476"/>
      <point x="307" y="494"/>
      <point x="277" y="494" type="curve" smooth="yes"/>
      <point x="225" y="494"/>
      <point x="182" y="489"/>
      <point x="139" y="481" type="curve" smooth="yes"/>
      <point x="112" y="475"/>
      <point x="102" y="457"/>
      <point x="102" y="440" type="curve" smooth="yes"/>
      <point x="102" y="426"/>
      <point x="113" y="419"/>
      <point x="126" y="419" type="curve" smooth="yes"/>
    </contour>
    <contour>
      <point x="128" y="-13" type="curve" smooth="yes"/>
      <point x="146" y="-13"/>
      <point x="155" y="-4"/>
      <point x="155" y="29" type="curve" smooth="yes"/>
      <point x="155" y="227"/>
      <point x="137" y="337"/>
      <point x="137" y="446" type="curve" smooth="yes"/>
      <point x="137" y="603"/>
      <point x="162" y="716"/>
      <point x="331" y="750" type="curve" smooth="yes"/>
      <point x="355" y="755"/>
      <point x="365" y="768"/>
      <point x="365" y="783" type="curve" smooth="yes"/>
      <point x="365" y="801"/>
      <point x="343" y="810"/>
      <point x="327" y="810" type="curve" smooth="yes"/>
      <point x="185" y="810"/>
      <point x="67" y="696"/>
      <point x="67" y="489" type="curve" smooth="yes"/>
      <point x="67" y="314"/>
      <point x="85" y="246"/>
      <point x="85" y="46" type="curve" smooth="yes"/>
      <point x="85" y="9"/>
      <point x="107" y="-13"/>
    </contour>
  </outline>
</glyph>
<glyph name="h" format="2">
	<unicode hex="0068"/>
	<advance width="613"/>
	<outline>
		<contour>
			<point x="520" y="-10" type="curve" smooth="yes"/>
			<point x="536" y="-10"/>
			<point x="550" y="4"/>
			<point x="550" y="20" type="curve" smooth="yes"/>
			<point x="550" y="32"/>
			<point x="545" y="43"/>
			<point x="540" y="53" type="curve" smooth="yes"/>
			<point x="520" y="88"/>
			<point x="509" y="132"/>
			<point x="496" y="268" type="curve" smooth="yes"/>
			<point x="483" y="410"/>
			<point x="466" y="494"/>
			<point x="389" y="494" type="curve" smooth="yes"/>
			<point x="306" y="494"/>
			<point x="234" y="398"/>
			<point x="127" y="108" type="curve"/>
			<point x="145" y="106" type="line"/>
			<point x="141.3715722527" y="277.4432110582"/>
			<point x="194.8263556326" y="454.0629383713"/>
			<point x="213" y="594" type="curve" smooth="yes"/>
			<point x="228" y="715"/>
			<point x="217" y="759"/>
			<point x="182" y="760" type="curve" smooth="yes"/>
			<point x="162" y="760"/>
			<point x="153" y="742"/>
			<point x="150" y="723" type="curve" smooth="yes"/>
			<point x="145" y="682"/>
			<point x="149" y="631"/>
			<point x="142" y="575" type="curve" smooth="yes"/>
			<point x="127.4861111182" y="456.1675347799"/>
			<point x="75" y="310.5471698113"/>
			<point x="75" y="95" type="curve" smooth="yes"/>
			<point x="75" y="20"/>
			<point x="97" y="-10"/>
			<point x="123" y="-10" type="curve" smooth="yes"/>
			<point x="144" y="-10"/>
			<point x="160" y="-2"/>
			<point x="169" y="28" type="curve" smooth="yes"/>
			<point x="242" y="279"/>
			<point x="343" y="429"/>
			<point x="388" y="429" type="curve"/>
			<point x="413" y="392"/>
			<point x="424" y="340"/>
			<point x="433" y="210" type="curve" smooth="yes"/>
			<point x="441" y="96"/>
			<point x="480" y="-10"/>
		</contour>
	</outline>
	<anchor name="top" x="182" y="750"/>
	<anchor name="bottom" x="323" y="0"/>
</glyph>
<glyph name="l" format="2">
  <advance width="294"/>
  <unicode hex="006C"/>
  <image fileName="b.png" xScale="2.580311745" yScale="2.580311745" xOffset="-2454.3109110762" yOffset="-580.570142633" color="0,0,0,0.24109"/>
  <anchor x="127" y="800" name="top"/>
  <anchor x="192" y="0" name="bottom"/>
  <outline>
    <contour>
      <point x="157" y="751" type="curve" smooth="yes"/>
      <point x="157" y="678"/>
      <point x="129" y="594"/>
      <point x="129" y="347" type="curve" smooth="yes"/>
      <point x="129" y="126"/>
      <point x="157" y="56"/>
      <point x="193" y="56" type="curve" smooth="yes"/>
      <point x="233.62337662337" y="56.0"/>
      <point x="239.75" y="74.0"/>
      <point x="261" y="74" type="curve" smooth="yes"/>
      <point x="279" y="74"/>
      <point x="285" y="62"/>
      <point x="285" y="45" type="curve" smooth="yes"/>
      <point x="285.0" y="15.303030303030305"/>
      <point x="238.23529411764704" y="-11.0"/>
      <point x="195" y="-11" type="curve" smooth="yes"/>
      <point x="113" y="-11"/>
      <point x="61" y="33"/>
      <point x="61" y="367" type="curve" smooth="yes"/>
      <point x="61" y="540.536"/>
      <point x="73" y="636"/>
      <point x="89" y="741" type="curve" smooth="yes"/>
      <point x="98" y="793"/>
      <point x="108.2727272727" y="810"/>
      <point x="126" y="810" type="curve" smooth="yes"/>
      <point x="144.6" y="810"/>
      <point x="157" y="794"/>
    </contour>
  </outline>
</glyph>
<glyph name="p" format="2">
	<unicode hex="0070"/>
	<advance width="550"/>
	<outline>
		<contour>
			<point x="131" y="384" type="curve" smooth="yes"/>
			<point x="131" y="423"/>
			<point x="117.718" y="456"/>
			<point x="94" y="456" type="curve" smooth="yes"/>
			<point x="72" y="456"/>
			<point x="61" y="441"/>
			<point x="61" y="406" type="curve" smooth="yes"/>
			<point x="61" y="249"/>
			<point x="119" y="93"/>
			<point x="119" y="-50" type="curve" smooth="yes"/>
			<point x="119" y="-181"/>
			<point x="84" y="-200"/>
			<point x="84" y="-233" type="curve" smooth="yes"/>
			<point x="84" y="-254"/>
			<point x="93" y="-261"/>
			<point x="113" y="-261" type="curve" smooth="yes"/>
			<point x="157" y="-261"/>
			<point x="187" y="-186"/>
			<point x="187" y="-46" type="curve" smooth="yes"/>
			<point x="187" y="101"/>
			<point x="131" y="223"/>
		</contour>
		<contour>
			<point x="189" y="494" type="curve" smooth="yes"/>
			<point x="107" y="494"/>
			<point x="76" y="473"/>
			<point x="76" y="447" type="curve" smooth="yes"/>
			<point x="76" y="432"/>
			<point x="85" y="418"/>
			<point x="104" y="418" type="curve" smooth="yes"/>
			<point x="124" y="418"/>
			<point x="161" y="429"/>
			<point x="196" y="429" type="curve" smooth="yes"/>
			<point x="327" y="429"/>
			<point x="424" y="335"/>
			<point x="424" y="197" type="curve" smooth="yes"/>
			<point x="424" y="94"/>
			<point x="369" y="56"/>
			<point x="289" y="56" type="curve" smooth="yes"/>
			<point x="183" y="56"/>
			<point x="180" y="92"/>
			<point x="156" y="92" type="curve" smooth="yes"/>
			<point x="140" y="92"/>
			<point x="136" y="81"/>
			<point x="136" y="67" type="curve" smooth="yes"/>
			<point x="136" y="29"/>
			<point x="204" y="-10"/>
			<point x="294" y="-10" type="curve" smooth="yes"/>
			<point x="408" y="-10"/>
			<point x="492" y="62"/>
			<point x="492" y="191" type="curve" smooth="yes"/>
			<point x="492" y="376"/>
			<point x="362" y="494"/>
		</contour>
	</outline>
	<anchor name="bottom" x="116" y="-250"/>
	<anchor name="top" x="269" y="485"/>
</glyph>
<glyph name="q" format="2">
	<unicode hex="0071"/>
	<advance width="558"/>
	<outline>
		<contour>
			<point x="205" y="-10" type="curve" smooth="yes"/>
			<point x="293" y="-10"/>
			<point x="387" y="50"/>
			<point x="432" y="155" type="curve" smooth="yes"/>
			<point x="464" y="230"/>
			<point x="413.7404881503" y="229.8253767356"/>
			<point x="412" y="175" type="curve" smooth="yes"/>
			<point x="405.6234225467" y="-2.4814057842"/>
			<point x="417" y="-11"/>
			<point x="417" y="-214" type="curve" smooth="yes"/>
			<point x="417" y="-248"/>
			<point x="431" y="-260"/>
			<point x="451" y="-260" type="curve" smooth="yes"/>
			<point x="478" y="-260"/>
			<point x="567" y="-188"/>
			<point x="597" y="-162" type="curve" smooth="yes"/>
			<point x="609" y="-151"/>
			<point x="617" y="-135"/>
			<point x="617" y="-117" type="curve" smooth="yes"/>
			<point x="617" y="-105"/>
			<point x="608" y="-95"/>
			<point x="598" y="-95" type="curve" smooth="yes"/>
			<point x="575" y="-95"/>
			<point x="564.687315679" y="-99.3269983667"/>
			<point x="467" y="-181" type="curve"/>
			<point x="483" y="-183" type="line"/>
			<point x="483" y="-14.7568238213"/>
			<point x="476.0297619408" y="52.7425580007"/>
			<point x="472" y="223" type="curve"/>
			<point x="484.6944123995" y="256.2007708911"/>
			<point x="492" y="291.7659574468"/>
			<point x="492" y="324" type="curve" smooth="yes"/>
			<point x="492" y="348.4444444444"/>
			<point x="481.2941176471" y="368"/>
			<point x="464" y="368" type="curve" smooth="yes"/>
			<point x="442" y="368"/>
			<point x="430" y="356"/>
			<point x="426" y="335" type="curve" smooth="yes"/>
			<point x="392" y="161"/>
			<point x="306" y="55"/>
			<point x="205" y="55" type="curve" smooth="yes"/>
			<point x="145.2142857143" y="55"/>
			<point x="112" y="91.064516129"/>
			<point x="112" y="159" type="curve" smooth="yes"/>
			<point x="112" y="288.6"/>
			<point x="213.5153061224" y="429"/>
			<point x="309" y="429" type="curve" smooth="yes"/>
			<point x="350" y="429"/>
			<point x="367" y="412"/>
			<point x="395" y="370" type="curve" smooth="yes"/>
			<point x="404.0213272539" y="355.3403432125"/>
			<point x="415" y="347"/>
			<point x="429" y="347" type="curve" smooth="yes"/>
			<point x="444" y="347"/>
			<point x="457" y="360.59375"/>
			<point x="457" y="376" type="curve" smooth="yes"/>
			<point x="457" y="428.0625"/>
			<point x="396" y="495"/>
			<point x="309" y="495" type="curve" smooth="yes"/>
			<point x="179" y="495"/>
			<point x="45" y="325.6416938111"/>
			<point x="45" y="168" type="curve" smooth="yes"/>
			<point x="45" y="61.0202020202"/>
			<point x="98" y="-10"/>
		</contour>
	</outline>
	<anchor name="top" x="309" y="485"/>
	<anchor name="bottom" x="451" y="-250"/>
</glyph>
<glyph name="t" format="2">
	<unicode hex="0074"/>
	<advance width="443"/>
	<outline>
		<contour>
			<point x="148" y="286" type="curve" smooth="yes"/>
			<point x="148" y="400"/>
			<point x="168" y="440"/>
			<point x="183" y="557" type="curve" smooth="yes"/>
			<point x="196" y="654"/>
			<point x="192" y="706"/>
			<point x="158" y="706" type="curve" smooth="yes"/>
			<point x="137" y="706"/>
			<point x="131" y="694"/>
			<point x="129" y="679" type="curve" smooth="yes"/>
			<point x="125" y="645"/>
			<point x="122" y="609"/>
			<point x="114" y="544" type="curve" smooth="yes"/>
			<point x="103" y="466"/>
			<point x="81" y="392.1991701245"/>
			<point x="81" y="282" type="curve" smooth="yes"/>
			<point x="81" y="105"/>
			<point x="140" y="-13"/>
			<point x="301" y="-13" type="curve" smooth="yes"/>
			<point x="365" y="-13"/>
			<point x="401" y="18"/>
			<point x="401" y="49" type="curve" smooth="yes"/>
			<point x="401" y="67"/>
			<point x="394.8888888889" y="76"/>
			<point x="381" y="76" type="curve" smooth="yes"/>
			<point x="354.1126760563" y="76"/>
			<point x="355.2816901408" y="53"/>
			<point x="298" y="53" type="curve" smooth="yes"/>
			<point x="198.9259259259" y="53"/>
			<point x="148" y="112"/>
		</contour>
		<contour>
			<point x="156" y="387" type="curve" smooth="yes"/>
			<point x="208" y="409"/>
			<point x="256" y="425"/>
			<point x="339" y="432" type="curve" smooth="yes"/>
			<point x="364" y="434"/>
			<point x="374" y="441"/>
			<point x="374" y="460" type="curve" smooth="yes"/>
			<point x="374" y="479"/>
			<point x="353" y="495"/>
			<point x="327" y="495" type="curve" smooth="yes"/>
			<point x="280" y="495"/>
			<point x="218" y="482"/>
			<point x="171" y="464" type="curve" smooth="yes"/>
			<point x="119" y="445"/>
			<point x="111" y="429"/>
			<point x="111" y="405" type="curve" smooth="yes"/>
			<point x="111" y="386"/>
			<point x="127" y="374"/>
		</contour>
	</outline>
	<anchor name="top" x="160" y="700"/>
	<anchor name="bottom" x="253" y="0"/>
</glyph>
<glyph name="u" format="2">
  <advance width="559"/>
  <unicode hex="0075"/>
  <anchor x="287" y="485" name="top"/>
  <anchor x="287" y="0" name="bottom"/>
  <anchor x="366" y="12" name="ogonek"/>
  <outline>
    <contour>
      <point x="301" y="-10" type="curve" smooth="yes"/>
      <point x="408" y="-10"/>
      <point x="493" y="109"/>
      <point x="493" y="355" type="curve" smooth="yes"/>
      <point x="493" y="459"/>
      <point x="473" y="489"/>
      <point x="442" y="489" type="curve" smooth="yes"/>
      <point x="424" y="489"/>
      <point x="419" y="478"/>
      <point x="419" y="461" type="curve" smooth="yes"/>
      <point x="419" y="426"/>
      <point x="426" y="410"/>
      <point x="426" y="354" type="curve" smooth="yes"/>
      <point x="426" y="148"/>
      <point x="375" y="55"/>
      <point x="289" y="55" type="curve" smooth="yes"/>
      <point x="214" y="55"/>
      <point x="130" y="184"/>
      <point x="130" y="291" type="curve" smooth="yes"/>
      <point x="130" y="398"/>
      <point x="154" y="408"/>
      <point x="154" y="451" type="curve" smooth="yes"/>
      <point x="154" y="472"/>
      <point x="144" y="486"/>
      <point x="125" y="486" type="curve" smooth="yes"/>
      <point x="111" y="486"/>
      <point x="99" y="477"/>
      <point x="95" y="465" type="curve" smooth="yes"/>
      <point x="73" y="408"/>
      <point x="63" y="353"/>
      <point x="63" y="291" type="curve" smooth="yes"/>
      <point x="63" y="165"/>
      <point x="156" y="-10"/>
    </contour>
  </outline>
</glyph>
<glyph name="v" format="2">
  <advance width="538"/>
  <unicode hex="0076"/>
  <anchor x="252" y="485" name="top"/>
  <anchor x="254" y="0" name="bottom"/>
  <outline>
    <contour>
      <point x="222" y="27.0" type="curve" smooth="yes"/>
      <point x="240" y="1.0"/>
      <point x="253" y="-10.0"/>
      <point x="271" y="-10.0" type="curve" smooth="yes"/>
      <point x="291" y="-10.0"/>
      <point x="301" y="-1.0"/>
      <point x="313" y="25.0" type="curve" smooth="yes"/>
      <point x="391" y="196.0"/>
      <point x="391" y="310.0"/>
      <point x="494" y="431.0" type="curve" smooth="yes"/>
      <point x="501" y="440.0"/>
      <point x="507" y="450.0"/>
      <point x="507" y="462.0" type="curve" smooth="yes"/>
      <point x="507" y="477.0"/>
      <point x="491" y="494.0"/>
      <point x="473" y="494.0" type="curve" smooth="yes"/>
      <point x="454" y="494.0"/>
      <point x="447" y="486.0"/>
      <point x="433" y="471.0" type="curve" smooth="yes"/>
      <point x="343" y="365.0"/>
      <point x="327" y="222.0"/>
      <point x="253" y="64.0" type="curve"/>
      <point x="285" y="67.0" type="line"/>
      <point x="234" y="145.0"/>
      <point x="200" y="271.0"/>
      <point x="163" y="366.0" type="curve" smooth="yes"/>
      <point x="137" y="429.0"/>
      <point x="117" y="492.0"/>
      <point x="62" y="492.0" type="curve" smooth="yes"/>
      <point x="42" y="492.0"/>
      <point x="31" y="482.0"/>
      <point x="31" y="472.0" type="curve" smooth="yes"/>
      <point x="31" y="438.0"/>
      <point x="60" y="442.0"/>
      <point x="119" y="286.0" type="curve" smooth="yes"/>
      <point x="155" y="191.0"/>
      <point x="189" y="76.0"/>
    </contour>
  </outline>
</glyph>
<glyph name="w" format="2">
  <advance width="857"/>
  <unicode hex="0077"/>
  <image fileName="b.png" xScale="2.58031" yScale="2.58031" xOffset="-5180.837" yOffset="-580.57"/>
  <anchor x="431" y="0" name="bottom"/>
  <anchor x="417" y="485" name="top"/>
  <outline>
    <contour>
      <point x="131" y="432" type="curve" smooth="yes"/>
      <point x="103" y="490"/>
      <point x="82" y="495"/>
      <point x="64" y="495" type="curve" smooth="yes"/>
      <point x="36" y="495"/>
      <point x="26" y="474"/>
      <point x="52" y="435" type="curve" smooth="yes"/>
      <point x="110" y="345"/>
      <point x="127" y="198"/>
      <point x="151" y="97" type="curve" smooth="yes"/>
      <point x="171" y="11"/>
      <point x="195" y="-15"/>
      <point x="223" y="-15" type="curve" smooth="yes"/>
      <point x="261" y="-15"/>
      <point x="274" y="0"/>
      <point x="297" y="58" type="curve" smooth="yes"/>
      <point x="350" y="195"/>
      <point x="375" y="365"/>
      <point x="426" y="428" type="curve"/>
      <point x="413" y="422" type="line"/>
      <point x="473" y="356"/>
      <point x="503" y="166"/>
      <point x="563" y="66" type="curve" smooth="yes"/>
      <point x="601" y="4"/>
      <point x="618.398" y="-13"/>
      <point x="652" y="-13" type="curve" smooth="yes"/>
      <point x="696" y="-13"/>
      <point x="713" y="17"/>
      <point x="736" y="161" type="curve" smooth="yes"/>
      <point x="749.982" y="250.268"/>
      <point x="758.014" y="383.455"/>
      <point x="795" y="417" type="curve" smooth="yes"/>
      <point x="811" y="431"/>
      <point x="822" y="451"/>
      <point x="822" y="472" type="curve" smooth="yes"/>
      <point x="822" y="483"/>
      <point x="809.661" y="494"/>
      <point x="796" y="494" type="curve" smooth="yes"/>
      <point x="757.113" y="494"/>
      <point x="726" y="454"/>
      <point x="709" y="397" type="curve" smooth="yes"/>
      <point x="678" y="291"/>
      <point x="684" y="153"/>
      <point x="639" y="56" type="curve"/>
      <point x="651" y="60" type="line"/>
      <point x="601" y="118"/>
      <point x="565" y="252"/>
      <point x="537" y="327" type="curve" smooth="yes"/>
      <point x="491" y="444"/>
      <point x="462" y="492"/>
      <point x="412" y="492" type="curve" smooth="yes"/>
      <point x="380" y="492"/>
      <point x="357" y="461"/>
      <point x="325" y="377" type="curve" smooth="yes"/>
      <point x="290" y="287"/>
      <point x="258" y="111"/>
      <point x="219" y="50" type="curve"/>
      <point x="239" y="53" type="line"/>
      <point x="193" y="150"/>
      <point x="187" y="322"/>
    </contour>
  </outline>
</glyph>
<glyph name="x" format="2">
	<unicode hex="0078"/>
	<advance width="504"/>
	<image fileName="b.png" xScale="2.58031" yScale="2.58031" xOffset="-6195.299" yOffset="-580.57"/>
	<outline>
		<contour>
			<point x="447" y="426" type="curve" smooth="yes"/>
			<point x="471" y="441"/>
			<point x="479" y="454"/>
			<point x="479" y="470" type="curve" smooth="yes"/>
			<point x="479" y="487"/>
			<point x="470" y="497"/>
			<point x="455" y="497" type="curve" smooth="yes"/>
			<point x="432" y="497"/>
			<point x="410" y="488"/>
			<point x="338" y="428" type="curve" smooth="yes"/>
			<point x="172" y="290"/>
			<point x="47" y="92"/>
			<point x="39" y="28" type="curve" smooth="yes"/>
			<point x="35" y="-3"/>
			<point x="48" y="-13"/>
			<point x="65" y="-13" type="curve" smooth="yes"/>
			<point x="76" y="-13"/>
			<point x="90" y="-4"/>
			<point x="99" y="16" type="curve" smooth="yes"/>
			<point x="178" y="174"/>
			<point x="296" y="337"/>
		</contour>
		<contour>
			<point x="412" y="112" type="curve" smooth="yes"/>
			<point x="351" y="197"/>
			<point x="200" y="384"/>
			<point x="133" y="447" type="curve" smooth="yes"/>
			<point x="93" y="484"/>
			<point x="79" y="496"/>
			<point x="53" y="496" type="curve" smooth="yes"/>
			<point x="35" y="496"/>
			<point x="29" y="485"/>
			<point x="29" y="473" type="curve" smooth="yes"/>
			<point x="29" y="451"/>
			<point x="47" y="432"/>
			<point x="79" y="405" type="curve" smooth="yes"/>
			<point x="172" y="326"/>
			<point x="300" y="158"/>
			<point x="388" y="29" type="curve" smooth="yes"/>
			<point x="408" y="-3"/>
			<point x="419" y="-11"/>
			<point x="435" y="-11" type="curve" smooth="yes"/>
			<point x="451" y="-11"/>
			<point x="460" y="-1"/>
			<point x="460" y="15" type="curve" smooth="yes"/>
			<point x="460" y="33"/>
			<point x="451" y="56"/>
		</contour>
	</outline>
	<anchor name="bottom" x="258" y="0"/>
	<anchor name="top" x="244" y="485"/>
</glyph>
<glyph name="y" format="2">
  <advance width="563"/>
  <unicode hex="0079"/>
  <image fileName="b.png" xScale="2.58031" yScale="2.58031" xOffset="-6701.815" yOffset="-580.57"/>
  <anchor x="282" y="-250" name="bottom"/>
  <anchor x="270" y="485" name="top"/>
  <outline>
    <contour>
      <point x="139" y="421" type="curve" smooth="yes"/>
      <point x="143" y="483"/>
      <point x="132" y="497"/>
      <point x="113" y="497" type="curve" smooth="yes"/>
      <point x="88" y="497"/>
      <point x="68" y="472.102"/>
      <point x="68" y="343" type="curve" smooth="yes"/>
      <point x="68" y="123.586"/>
      <point x="132" y="28"/>
      <point x="236" y="28" type="curve" smooth="yes"/>
      <point x="294.859" y="28"/>
      <point x="379" y="67"/>
      <point x="427" y="271" type="curve"/>
      <point x="397" y="299" type="line"/>
      <point x="400" y="127"/>
      <point x="418" y="66"/>
      <point x="418" y="-5" type="curve" smooth="yes"/>
      <point x="418" y="-117.836"/>
      <point x="386" y="-194"/>
      <point x="281" y="-194" type="curve" smooth="yes"/>
      <point x="178.7" y="-194"/>
      <point x="168.8" y="-164"/>
      <point x="138" y="-164" type="curve" smooth="yes"/>
      <point x="117" y="-164"/>
      <point x="108" y="-175"/>
      <point x="108" y="-191" type="curve" smooth="yes"/>
      <point x="108" y="-236.5"/>
      <point x="179.296" y="-261"/>
      <point x="283" y="-261" type="curve" smooth="yes"/>
      <point x="401" y="-261"/>
      <point x="485" y="-187"/>
      <point x="485" y="-5" type="curve" smooth="yes"/>
      <point x="485" y="187"/>
      <point x="445" y="231"/>
      <point x="462" y="400" type="curve" smooth="yes"/>
      <point x="469.902" y="476.386"/>
      <point x="444.81" y="496"/>
      <point x="424" y="496" type="curve" smooth="yes"/>
      <point x="404.28" y="496"/>
      <point x="399.002" y="489.019"/>
      <point x="395" y="452" type="curve" smooth="yes"/>
      <point x="373.826" y="247.666"/>
      <point x="320.734" y="93"/>
      <point x="232" y="93" type="curve" smooth="yes"/>
      <point x="160.379" y="93"/>
      <point x="127" y="226"/>
    </contour>
  </outline>
</glyph>
<glyph name="braceright" format="2">
	<unicode hex="007D"/>
	<advance width="513"/>
	<image fileName="braceleft.png" xScale="2.7649451141" yScale="2.7649451141" xOffset="-1288.9991468395" yOffset="-340.5270469168" color="0,0,0,0.24164"/>
	<outline>
		<contour>
			<point x="65" y="-192" type="curve" smooth="yes"/>
			<point x="150" y="-192"/>
			<point x="259" y="-154"/>
			<point x="259" y="-76" type="curve" smooth="yes"/>
			<point x="259" y="-11"/>
			<point x="207" y="34"/>
			<point x="207" y="111" type="curve" smooth="yes"/>
			<point x="207" y="182"/>
			<point x="278" y="256"/>
			<point x="399" y="294" type="curve"/>
			<point x="404" y="268" type="line"/>
			<point x="243" y="298"/>
			<point x="198" y="372"/>
			<point x="198" y="436" type="curve" smooth="yes"/>
			<point x="198" y="515"/>
			<point x="240" y="544"/>
			<point x="240" y="605" type="curve" smooth="yes"/>
			<point x="240" y="675"/>
			<point x="171" y="725"/>
			<point x="67" y="743" type="curve" smooth="yes"/>
			<point x="36" y="749"/>
			<point x="19" y="757"/>
			<point x="19" y="785" type="curve" smooth="yes"/>
			<point x="19" y="800"/>
			<point x="29" y="813"/>
			<point x="50" y="813" type="curve" smooth="yes"/>
			<point x="176" y="813"/>
			<point x="310" y="721"/>
			<point x="310" y="610" type="curve" smooth="yes"/>
			<point x="310" y="534"/>
			<point x="268" y="503"/>
			<point x="268" y="444" type="curve" smooth="yes"/>
			<point x="268" y="379"/>
			<point x="354" y="339"/>
			<point x="484" y="321" type="curve" smooth="yes"/>
			<point x="504" y="318"/>
			<point x="511" y="302"/>
			<point x="511" y="286" type="curve" smooth="yes"/>
			<point x="511" y="272"/>
			<point x="506" y="258"/>
			<point x="489" y="253" type="curve" smooth="yes"/>
			<point x="387" y="222"/>
			<point x="277" y="175"/>
			<point x="277" y="106" type="curve" smooth="yes"/>
			<point x="277" y="43"/>
			<point x="329" y="14"/>
			<point x="329" y="-87" type="curve" smooth="yes"/>
			<point x="329" y="-194"/>
			<point x="200" y="-262"/>
			<point x="99" y="-262" type="curve" smooth="yes"/>
			<point x="59" y="-262"/>
			<point x="37" y="-245"/>
			<point x="37" y="-220" type="curve" smooth="yes"/>
			<point x="37" y="-203"/>
			<point x="49" y="-192"/>
		</contour>
	</outline>
</glyph>
<glyph name="asciitilde" format="2">
  <advance width="700"/>
  <unicode hex="007E"/>
  <image fileName="S_creen S_hot 2020-09-24 at 10.58.01 P_M_.png" xScale="5.88565" yScale="5.88565" xOffset="-8568.991" yOffset="-705.564"/>
  <outline>
    <contour>
      <point x="113" y="185" type="curve" smooth="yes"/>
      <point x="181" y="185"/>
      <point x="127" y="328"/>
      <point x="214" y="328" type="curve" smooth="yes"/>
      <point x="314" y="328"/>
      <point x="342" y="124"/>
      <point x="481" y="124" type="curve" smooth="yes"/>
      <point x="570" y="124"/>
      <point x="622" y="190"/>
      <point x="622" y="302" type="curve" smooth="yes"/>
      <point x="622" y="339"/>
      <point x="607" y="351"/>
      <point x="587" y="351" type="curve" smooth="yes"/>
      <point x="521" y="351"/>
      <point x="582" y="195"/>
      <point x="481" y="195" type="curve" smooth="yes"/>
      <point x="391" y="195"/>
      <point x="376" y="400"/>
      <point x="214" y="400" type="curve" smooth="yes"/>
      <point x="115" y="400"/>
      <point x="78" y="321"/>
      <point x="78" y="236" type="curve" smooth="yes"/>
      <point x="78" y="206"/>
      <point x="93" y="185"/>
    </contour>
  </outline>
</glyph>
<glyph name="cent" format="2">
  <advance width="555"/>
  <unicode hex="00A2"/>
  <image fileName="b.png" xScale="2.580311745" yScale="2.580311745" xOffset="-593.3109110762" yOffset="-580.570142633" color="0,0,0,0.24109"/>
  <outline>
    <contour>
      <point x="472.0" y="104" type="curve" smooth="yes"/>
      <point x="472.0" y="123"/>
      <point x="464.6666666666667" y="131.0"/>
      <point x="450" y="131" type="curve" smooth="yes"/>
      <point x="415.0" y="131.0"/>
      <point x="421" y="56"/>
      <point x="278" y="56" type="curve" smooth="yes"/>
      <point x="188.0" y="56.0"/>
      <point x="124.0" y="111.19354838709677"/>
      <point x="124" y="201" type="curve" smooth="yes"/>
      <point x="124.0" y="317.13888888888886"/>
      <point x="211.0" y="427.0"/>
      <point x="331" y="427" type="curve" smooth="yes"/>
      <point x="429.0" y="427.0"/>
      <point x="405.0" y="383.0"/>
      <point x="442" y="383.0" type="curve" smooth="yes"/>
      <point x="461.0" y="383.0"/>
      <point x="469.0" y="398.3214285714286"/>
      <point x="469.0" y="416" type="curve" smooth="yes"/>
      <point x="469.0" y="461.8395061728395"/>
      <point x="418.7846153846154" y="495.0"/>
      <point x="341" y="495" type="curve" smooth="yes"/>
      <point x="187.0" y="495.0"/>
      <point x="56.0" y="369.6"/>
      <point x="56" y="210" type="curve" smooth="yes"/>
      <point x="56.0" y="75.15720524017468"/>
      <point x="145.0" y="-9.0"/>
      <point x="278" y="-9.0" type="curve" smooth="yes"/>
      <point x="389.57512953367876" y="-9.0"/>
      <point x="472.0" y="42"/>
    </contour>
    <contour>
      <point x="444" y="630" type="curve" smooth="yes"/>
      <point x="426" y="630"/>
      <point x="413" y="617"/>
      <point x="394" y="585" type="curve" smooth="yes"/>
      <point x="260" y="358"/>
      <point x="180" y="139"/>
      <point x="138" y="-95" type="curve" smooth="yes"/>
      <point x="132" y="-132"/>
      <point x="144" y="-148.0"/>
      <point x="170" y="-148" type="curve" smooth="yes"/>
      <point x="188" y="-148"/>
      <point x="202" y="-135.0"/>
      <point x="207" y="-105" type="curve" smooth="yes"/>
      <point x="246" y="117"/>
      <point x="314" y="324"/>
      <point x="458" y="559" type="curve" smooth="yes"/>
      <point x="485" y="602"/>
      <point x="464" y="630.0"/>
    </contour>
  </outline>
</glyph>
<glyph name="sterling" format="2">
  <advance width="700"/>
  <unicode hex="00A3"/>
  <outline>
    <contour>
      <point x="299" y="706" type="curve" smooth="yes"/>
      <point x="430.17808219178085" y="706.0"/>
      <point x="488.0" y="650.0"/>
      <point x="488" y="587" type="curve" smooth="yes"/>
      <point x="488" y="536"/>
      <point x="466" y="498"/>
      <point x="437" y="498" type="curve" smooth="yes"/>
      <point x="414" y="498"/>
      <point x="403" y="513"/>
      <point x="403" y="529" type="curve" smooth="yes"/>
      <point x="403" y="549"/>
      <point x="418" y="558"/>
      <point x="418" y="587" type="curve" smooth="yes"/>
      <point x="418.0" y="617.0"/>
      <point x="361.2953020134228" y="638.0"/>
      <point x="299" y="638" type="curve" smooth="yes"/>
      <point x="231.55445544554453" y="638.0"/>
      <point x="168.0" y="620.6190476190476"/>
      <point x="168" y="565" type="curve" smooth="yes"/>
      <point x="168.0" y="481.4022346368715"/>
      <point x="339" y="398"/>
      <point x="339" y="222" type="curve" smooth="yes"/>
      <point x="339" y="111"/>
      <point x="243" y="-6"/>
      <point x="149" y="-6" type="curve" smooth="yes"/>
      <point x="79.0" y="-6"/>
      <point x="30" y="48.0"/>
      <point x="30" y="101" type="curve" smooth="yes"/>
      <point x="30" y="150"/>
      <point x="71.49532710280374" y="198.0"/>
      <point x="150" y="198" type="curve" smooth="yes"/>
      <point x="262.2091503267974" y="198.0"/>
      <point x="352" y="56.0"/>
      <point x="463" y="56.0" type="curve" smooth="yes"/>
      <point x="552.0" y="56.0"/>
      <point x="557.0" y="125.0"/>
      <point x="596" y="125" type="curve" smooth="yes"/>
      <point x="611.2" y="125.0"/>
      <point x="624" y="105"/>
      <point x="624" y="87" type="curve" smooth="yes"/>
      <point x="624.0" y="48.0"/>
      <point x="558.0" y="-14.0"/>
      <point x="463" y="-14" type="curve" smooth="yes"/>
      <point x="322.4891640866873" y="-14.0"/>
      <point x="240.12074303405572" y="134.0"/>
      <point x="150" y="134" type="curve" smooth="yes"/>
      <point x="114.86486486486486" y="134.0"/>
      <point x="100" y="121"/>
      <point x="100" y="101" type="curve" smooth="yes"/>
      <point x="100.0" y="83.0"/>
      <point x="123.0" y="61"/>
      <point x="148" y="61" type="curve" smooth="yes"/>
      <point x="209" y="61"/>
      <point x="269.0" y="144.0"/>
      <point x="269" y="222" type="curve" smooth="yes"/>
      <point x="269" y="377"/>
      <point x="96.0" y="444.4453781512605"/>
      <point x="96" y="564" type="curve" smooth="yes"/>
      <point x="96.0" y="643.6060606060606"/>
      <point x="154.67052023121386" y="706.0"/>
    </contour>
    <contour>
      <point x="149" y="339" type="curve" smooth="yes"/>
      <point x="235.5165165165165" y="358.0"/>
      <point x="410" y="375"/>
      <point x="506" y="375.0" type="curve" smooth="yes"/>
      <point x="575.0" y="375.0"/>
      <point x="592" y="364"/>
      <point x="592" y="345" type="curve" smooth="yes"/>
      <point x="592.0" y="323.0"/>
      <point x="569.0" y="303.0"/>
      <point x="534" y="303" type="curve" smooth="yes"/>
      <point x="515" y="303"/>
      <point x="502" y="305"/>
      <point x="460" y="305" type="curve" smooth="yes"/>
      <point x="331" y="305"/>
      <point x="184" y="270"/>
      <point x="156" y="270" type="curve" smooth="yes"/>
      <point x="136" y="270"/>
      <point x="115" y="287"/>
      <point x="115" y="311" type="curve" smooth="yes"/>
      <point x="115" y="326"/>
      <point x="126" y="334"/>
    </contour>
  </outline>
</glyph>
<glyph name="currency" format="2">
	<unicode hex="00A4"/>
	<advance width="700"/>
	<outline>
		<contour>
			<point x="328" y="446" type="curve" smooth="yes"/>
			<point x="275" y="414"/>
			<point x="242" y="367"/>
			<point x="242" y="304" type="curve" smooth="yes"/>
			<point x="242" y="251"/>
			<point x="273" y="211"/>
			<point x="345" y="211" type="curve" smooth="yes"/>
			<point x="423" y="211"/>
			<point x="497" y="274"/>
			<point x="498" y="388" type="curve" smooth="yes"/>
			<point x="498" y="445"/>
			<point x="475" y="489"/>
			<point x="406" y="489" type="curve" smooth="yes"/>
			<point x="289" y="489"/>
			<point x="302" y="421"/>
			<point x="242" y="421" type="curve" smooth="yes"/>
			<point x="223" y="421"/>
			<point x="208" y="432"/>
			<point x="208" y="448" type="curve" smooth="yes"/>
			<point x="208" y="485"/>
			<point x="292.9951219512" y="554"/>
			<point x="406" y="554" type="curve" smooth="yes"/>
			<point x="520.3314285714" y="554"/>
			<point x="570" y="491"/>
			<point x="570" y="388" type="curve" smooth="yes"/>
			<point x="570" y="223"/>
			<point x="455.6170212766" y="146"/>
			<point x="346" y="146" type="curve" smooth="yes"/>
			<point x="244.3529411765" y="146"/>
			<point x="170" y="194"/>
			<point x="170" y="304" type="curve" smooth="yes"/>
			<point x="170" y="428"/>
			<point x="271.4591194969" y="507"/>
			<point x="318" y="507" type="curve" smooth="yes"/>
			<point x="340" y="507"/>
			<point x="350" y="500"/>
			<point x="351" y="479" type="curve" smooth="yes"/>
			<point x="351" y="468"/>
			<point x="344" y="456"/>
		</contour>
		<contour>
			<point x="268" y="205" type="line"/>
			<point x="242" y="166"/>
			<point x="219" y="126"/>
			<point x="199" y="86" type="curve" smooth="yes"/>
			<point x="190" y="66"/>
			<point x="176" y="57"/>
			<point x="165" y="57" type="curve" smooth="yes"/>
			<point x="148" y="57"/>
			<point x="135" y="67"/>
			<point x="139" y="98" type="curve" smooth="yes"/>
			<point x="143" y="128"/>
			<point x="174" y="184"/>
			<point x="223" y="250" type="curve"/>
		</contour>
		<contour>
			<point x="552" y="182" type="curve" smooth="yes"/>
			<point x="591" y="126"/>
			<point x="600" y="103"/>
			<point x="600" y="85" type="curve" smooth="yes"/>
			<point x="600" y="69"/>
			<point x="591" y="59"/>
			<point x="575" y="59" type="curve" smooth="yes"/>
			<point x="559" y="59"/>
			<point x="548" y="67"/>
			<point x="528" y="99" type="curve" smooth="yes"/>
			<point x="504" y="135"/>
			<point x="476" y="173"/>
			<point x="447" y="211" type="curve"/>
			<point x="491" y="262" type="line"/>
			<point x="515" y="231"/>
			<point x="536" y="204"/>
		</contour>
		<contour>
			<point x="597" y="526" type="curve" smooth="yes"/>
			<point x="567" y="508"/>
			<point x="537" y="488"/>
			<point x="509" y="466" type="curve"/>
			<point x="467" y="510" type="line"/>
			<point x="474" y="516"/>
			<point x="481" y="522"/>
			<point x="488" y="528" type="curve" smooth="yes"/>
			<point x="560" y="588"/>
			<point x="582" y="597"/>
			<point x="605" y="597" type="curve" smooth="yes"/>
			<point x="620" y="597"/>
			<point x="629" y="587"/>
			<point x="629" y="570" type="curve" smooth="yes"/>
			<point x="629" y="554"/>
			<point x="621" y="541"/>
		</contour>
		<contour>
			<point x="251" y="446" type="line"/>
			<point x="225" y="473"/>
			<point x="201" y="496"/>
			<point x="179" y="515" type="curve" smooth="yes"/>
			<point x="147" y="542"/>
			<point x="129" y="561"/>
			<point x="129" y="583" type="curve" smooth="yes"/>
			<point x="129" y="595"/>
			<point x="135" y="606"/>
			<point x="153" y="606" type="curve" smooth="yes"/>
			<point x="179" y="606"/>
			<point x="193" y="594"/>
			<point x="233" y="557" type="curve" smooth="yes"/>
			<point x="251" y="540"/>
			<point x="274" y="516"/>
			<point x="300" y="488" type="curve"/>
		</contour>
	</outline>
</glyph>
<glyph name="yen" format="2">
  <advance width="700"/>
  <unicode hex="00A5"/>
  <image fileName="yen.png" xScale="1.2064947692404642" yScale="1.2064947692404642" xOffset="-35.64857332877227" yOffset="-59.2494237166546" color="0,0,0,0.21984"/>
  <outline>
    <contour>
      <point x="135" y="681" type="curve" smooth="yes"/>
      <point x="193" y="590"/>
      <point x="303" y="537"/>
      <point x="375" y="435" type="curve" smooth="yes"/>
      <point x="389.10573267107077" y="413.8414009933938"/>
      <point x="371.84807682497075" y="380.0"/>
      <point x="346" y="380" type="curve" smooth="yes"/>
      <point x="335" y="380"/>
      <point x="324" y="385"/>
      <point x="308" y="408" type="curve" smooth="yes"/>
      <point x="245" y="499"/>
      <point x="131" y="552"/>
      <point x="82" y="633" type="curve" smooth="yes"/>
      <point x="64" y="661"/>
      <point x="62" y="672"/>
      <point x="62" y="682" type="curve" smooth="yes"/>
      <point x="62" y="703"/>
      <point x="75" y="718"/>
      <point x="92" y="718" type="curve" smooth="yes"/>
      <point x="104" y="718"/>
      <point x="116" y="712"/>
    </contour>
    <contour>
      <point x="627" y="644" type="curve" smooth="yes"/>
      <point x="421" y="501"/>
      <point x="346" y="360"/>
      <point x="346" y="227" type="curve" smooth="yes"/>
      <point x="346" y="66"/>
      <point x="391" y="52"/>
      <point x="391" y="17" type="curve" smooth="yes"/>
      <point x="391" y="-3"/>
      <point x="377" y="-14"/>
      <point x="361" y="-14" type="curve" smooth="yes"/>
      <point x="323" y="-14"/>
      <point x="276" y="66"/>
      <point x="276" y="227" type="curve" smooth="yes"/>
      <point x="276.0" y="376.0"/>
      <point x="349" y="535"/>
      <point x="575" y="693" type="curve" smooth="yes"/>
      <point x="592" y="705"/>
      <point x="600" y="708"/>
      <point x="611" y="708" type="curve" smooth="yes"/>
      <point x="630" y="708"/>
      <point x="642" y="691"/>
      <point x="642" y="673" type="curve" smooth="yes"/>
      <point x="642" y="662"/>
      <point x="637" y="651"/>
    </contour>
    <contour>
      <point x="95" y="306" type="curve" smooth="yes"/>
      <point x="203" y="343"/>
      <point x="349" y="368.0"/>
      <point x="467" y="368.0" type="curve" smooth="yes"/>
      <point x="559.0" y="368.0"/>
      <point x="634.0" y="355.0"/>
      <point x="634" y="319" type="curve" smooth="yes"/>
      <point x="634" y="304"/>
      <point x="622" y="284"/>
      <point x="599" y="284" type="curve" smooth="yes"/>
      <point x="566" y="284"/>
      <point x="552" y="298"/>
      <point x="436" y="298" type="curve" smooth="yes"/>
      <point x="271.0" y="298.0"/>
      <point x="135" y="236"/>
      <point x="103" y="236" type="curve" smooth="yes"/>
      <point x="79.0" y="236.0"/>
      <point x="63.0" y="253"/>
      <point x="63" y="274" type="curve" smooth="yes"/>
      <point x="63.0" y="290.0"/>
      <point x="74" y="299"/>
    </contour>
    <contour>
      <point x="127" y="159" type="curve" smooth="yes"/>
      <point x="260" y="176"/>
      <point x="365" y="208"/>
      <point x="466" y="208" type="curve" smooth="yes"/>
      <point x="584" y="208"/>
      <point x="602" y="197"/>
      <point x="602" y="171" type="curve" smooth="yes"/>
      <point x="602" y="143"/>
      <point x="576" y="133"/>
      <point x="558" y="133" type="curve" smooth="yes"/>
      <point x="533" y="133"/>
      <point x="514" y="138"/>
      <point x="466" y="138" type="curve" smooth="yes"/>
      <point x="365" y="138"/>
      <point x="191" y="89"/>
      <point x="133" y="89" type="curve" smooth="yes"/>
      <point x="108" y="89.0"/>
      <point x="92.0" y="108"/>
      <point x="92" y="129" type="curve" smooth="yes"/>
      <point x="92.0" y="143"/>
      <point x="102" y="156"/>
    </contour>
  </outline>
</glyph>
<glyph name="brokenbar" format="2">
  <advance width="296"/>
  <unicode hex="00A6"/>
  <outline>
    <contour>
      <point x="184" y="752" type="curve" smooth="yes"/>
      <point x="184" y="704"/>
      <point x="172.0" y="675.9166666666666"/>
      <point x="172" y="586" type="curve" smooth="yes"/>
      <point x="172.0" y="478.9767441860465"/>
      <point x="182.0" y="464.56976744186045"/>
      <point x="182" y="409" type="curve" smooth="yes"/>
      <point x="182" y="374"/>
      <point x="169" y="364"/>
      <point x="154" y="364.0" type="curve" smooth="yes"/>
      <point x="136" y="364"/>
      <point x="124" y="378"/>
      <point x="120" y="400" type="curve" smooth="yes"/>
      <point x="95" y="555"/>
      <point x="116" y="690"/>
      <point x="116" y="770" type="curve" smooth="yes"/>
      <point x="116.0" y="795.0"/>
      <point x="127.0" y="811.0"/>
      <point x="146" y="811" type="curve" smooth="yes"/>
      <point x="169" y="811"/>
      <point x="184.0" y="791.0"/>
    </contour>
    <contour>
      <point x="118" y="-100" type="curve" smooth="yes"/>
      <point x="118" y="-50"/>
      <point x="120.0" y="-21"/>
      <point x="120" y="72" type="curve" smooth="yes"/>
      <point x="120" y="176"/>
      <point x="110" y="190"/>
      <point x="110" y="244" type="curve" smooth="yes"/>
      <point x="110" y="279"/>
      <point x="121" y="289"/>
      <point x="141" y="289" type="curve" smooth="yes"/>
      <point x="157.0" y="289.0"/>
      <point x="168.0" y="277.0"/>
      <point x="172" y="253" type="curve" smooth="yes"/>
      <point x="197" y="105"/>
      <point x="186.0" y="-38"/>
      <point x="186.0" y="-121" type="curve" smooth="yes"/>
      <point x="186" y="-141"/>
      <point x="176" y="-159"/>
      <point x="158" y="-159" type="curve" smooth="yes"/>
      <point x="132" y="-159.0"/>
      <point x="118.0" y="-141"/>
    </contour>
  </outline>
</glyph>
<glyph name="copyright" format="2">
  <advance width="929"/>
  <unicode hex="00A9"/>
  <outline>
    <contour>
      <point x="321" y="597" type="curve" smooth="yes"/>
      <point x="362" y="622"/>
      <point x="376" y="637"/>
      <point x="376" y="657" type="curve" smooth="yes"/>
      <point x="376" y="672"/>
      <point x="369" y="676"/>
      <point x="354" y="676" type="curve" smooth="yes"/>
      <point x="279" y="676"/>
      <point x="85" y="526"/>
      <point x="85" y="278" type="curve" smooth="yes"/>
      <point x="85" y="56"/>
      <point x="236" y="-39"/>
      <point x="440" y="-39" type="curve" smooth="yes"/>
      <point x="670" y="-39"/>
      <point x="864" y="107"/>
      <point x="864" y="403" type="curve" smooth="yes"/>
      <point x="864" y="606"/>
      <point x="752" y="739"/>
      <point x="503" y="739" type="curve" smooth="yes"/>
      <point x="293" y="739"/>
      <point x="156" y="622"/>
      <point x="156" y="565" type="curve" smooth="yes"/>
      <point x="156" y="547"/>
      <point x="161" y="539"/>
      <point x="177" y="539" type="curve" smooth="yes"/>
      <point x="188" y="539"/>
      <point x="199" y="545"/>
      <point x="211" y="554" type="curve" smooth="yes"/>
      <point x="286" y="614"/>
      <point x="351" y="675"/>
      <point x="512" y="676" type="curve" smooth="yes"/>
      <point x="714" y="677"/>
      <point x="796" y="568"/>
      <point x="796" y="394" type="curve" smooth="yes"/>
      <point x="796" y="159"/>
      <point x="662" y="24"/>
      <point x="427" y="24" type="curve" smooth="yes"/>
      <point x="245" y="24"/>
      <point x="152" y="141"/>
      <point x="152" y="279" type="curve" smooth="yes"/>
      <point x="152" y="404"/>
      <point x="203" y="525"/>
    </contour>
    <contour>
      <point x="466" y="134" type="curve" smooth="yes"/>
      <point x="580.279" y="134"/>
      <point x="634" y="199.825"/>
      <point x="634" y="247" type="curve" smooth="yes"/>
      <point x="634" y="262"/>
      <point x="627" y="273"/>
      <point x="617" y="273" type="curve" smooth="yes"/>
      <point x="594.597" y="273"/>
      <point x="576" y="198"/>
      <point x="467" y="198" type="curve" smooth="yes"/>
      <point x="391" y="198"/>
      <point x="343" y="237"/>
      <point x="343" y="308" type="curve" smooth="yes"/>
      <point x="343" y="404"/>
      <point x="414" y="499"/>
      <point x="513" y="499" type="curve" smooth="yes"/>
      <point x="569" y="499"/>
      <point x="578" y="474"/>
      <point x="578" y="444" type="curve" smooth="yes"/>
      <point x="578" y="416"/>
      <point x="582" y="406"/>
      <point x="596" y="406" type="curve" smooth="yes"/>
      <point x="623" y="406"/>
      <point x="635" y="432"/>
      <point x="635" y="461" type="curve" smooth="yes"/>
      <point x="635" y="520"/>
      <point x="602" y="562"/>
      <point x="523" y="562" type="curve" smooth="yes"/>
      <point x="384" y="562"/>
      <point x="276" y="440"/>
      <point x="276" y="311" type="curve" smooth="yes"/>
      <point x="276" y="210"/>
      <point x="335" y="134"/>
    </contour>
  </outline>
</glyph>
<glyph name="guillemetleft" format="2">
  <advance width="618"/>
  <unicode hex="00AB"/>
  <outline>
    <contour>
      <point x="262" y="387.0" type="curve" smooth="yes"/>
      <point x="211.91133364363182" y="356.58902399791936"/>
      <point x="139.37918300653547" y="293.19758848193294"/>
      <point x="92" y="219.0" type="curve"/>
      <point x="98" y="262.0" type="line"/>
      <point x="125.656442830794" y="188.56737593202973"/>
      <point x="211.66834314501122" y="118.2987394110093"/>
      <point x="277" y="88" type="curve" smooth="yes"/>
      <point x="291" y="82"/>
      <point x="298" y="73"/>
      <point x="298" y="57" type="curve" smooth="yes"/>
      <point x="298" y="30"/>
      <point x="279" y="20"/>
      <point x="264" y="20" type="curve" smooth="yes"/>
      <point x="254" y="20"/>
      <point x="248" y="21"/>
      <point x="232" y="29" type="curve" smooth="yes"/>
      <point x="172.26808311077804" y="61.23627260688169"/>
      <point x="76.49053387243072" y="137.05994337760015"/>
      <point x="49" y="211.0" type="curve" smooth="yes"/>
      <point x="37.0" y="243.0"/>
      <point x="37.0" y="257.0"/>
      <point x="52" y="280.0" type="curve" smooth="yes"/>
      <point x="89.50456474540385" y="337.1498129453773"/>
      <point x="175.5952730565547" y="416.37827807188205"/>
      <point x="223" y="445.0" type="curve" smooth="yes"/>
      <point x="242" y="457.0"/>
      <point x="248" y="458.0"/>
      <point x="254" y="458.0" type="curve" smooth="yes"/>
      <point x="274" y="458.0"/>
      <point x="286.0" y="441.0"/>
      <point x="286" y="422.0" type="curve" smooth="yes"/>
      <point x="286" y="409.0"/>
      <point x="280" y="398.0"/>
    </contour>
    <contour>
      <point x="532" y="407.0" type="curve" smooth="yes"/>
      <point x="476.0" y="373.0"/>
      <point x="395.0" y="302.0"/>
      <point x="342" y="219.0" type="curve"/>
      <point x="350" y="264.0" type="line"/>
      <point x="376.28976122194206" y="193.28960774787996"/>
      <point x="468.7732770174049" y="121.76346820644085"/>
      <point x="553" y="96.0" type="curve" smooth="yes"/>
      <point x="570" y="91.0"/>
      <point x="578" y="80"/>
      <point x="578" y="67.0" type="curve" smooth="yes"/>
      <point x="578" y="41"/>
      <point x="558.0" y="27.0"/>
      <point x="544" y="27" type="curve" smooth="yes"/>
      <point x="534" y="27.0"/>
      <point x="529" y="28.0"/>
      <point x="510" y="35.0" type="curve" smooth="yes"/>
      <point x="429.99658864063093" y="64.63089309606261"/>
      <point x="325.4003605787026" y="139.99213361590344"/>
      <point x="299" y="211.0" type="curve" smooth="yes"/>
      <point x="287.0" y="243.0"/>
      <point x="287.0" y="257.0"/>
      <point x="302" y="280.0" type="curve" smooth="yes"/>
      <point x="344" y="344"/>
      <point x="440" y="433"/>
      <point x="493" y="465.0" type="curve" smooth="yes"/>
      <point x="512" y="477.0"/>
      <point x="518" y="478.0"/>
      <point x="524" y="478.0" type="curve" smooth="yes"/>
      <point x="544" y="478.0"/>
      <point x="556.0" y="461.0"/>
      <point x="556" y="442.0" type="curve" smooth="yes"/>
      <point x="556" y="429.0"/>
      <point x="550" y="418.0"/>
    </contour>
  </outline>
</glyph>
<glyph name="logicalnot" format="2">
  <advance width="700"/>
  <unicode hex="00AC"/>
  <outline>
    <contour>
      <point x="567" y="386" type="curve" smooth="yes"/>
      <point x="590" y="386"/>
      <point x="602" y="397"/>
      <point x="602" y="414" type="curve" smooth="yes"/>
      <point x="602" y="434"/>
      <point x="583" y="449"/>
      <point x="519" y="449" type="curve" smooth="yes"/>
      <point x="435" y="449"/>
      <point x="290" y="447"/>
      <point x="165" y="425" type="curve" smooth="yes"/>
      <point x="112" y="417"/>
      <point x="96" y="404"/>
      <point x="96" y="383" type="curve" smooth="yes"/>
      <point x="96" y="354"/>
      <point x="117" y="342"/>
      <point x="172" y="353" type="curve" smooth="yes"/>
      <point x="289" y="376"/>
      <point x="381" y="386"/>
    </contour>
    <contour>
      <point x="614" y="416" type="curve" smooth="yes"/>
      <point x="614" y="454"/>
      <point x="594" y="475"/>
      <point x="574" y="475" type="curve" smooth="yes"/>
      <point x="556" y="475"/>
      <point x="546" y="457"/>
      <point x="546" y="438" type="curve" smooth="yes"/>
      <point x="546" y="392"/>
      <point x="532" y="303"/>
      <point x="537" y="232" type="curve" smooth="yes"/>
      <point x="540" y="186"/>
      <point x="552" y="172"/>
      <point x="567" y="172" type="curve" smooth="yes"/>
      <point x="580" y="172"/>
      <point x="598" y="182"/>
      <point x="598" y="217" type="curve" smooth="yes"/>
      <point x="598" y="269"/>
      <point x="614" y="361"/>
    </contour>
  </outline>
</glyph>
<glyph name="registered" format="2">
  <advance width="799"/>
  <unicode hex="00AE"/>
  <outline>
    <contour>
      <point x="262" y="651" type="curve" smooth="yes"/>
      <point x="238" y="651"/>
      <point x="232" y="635"/>
      <point x="240" y="610" type="curve" smooth="yes"/>
      <point x="253" y="572"/>
      <point x="257" y="548"/>
      <point x="258" y="513" type="curve"/>
      <point x="237" y="456"/>
      <point x="228" y="411"/>
      <point x="228" y="375" type="curve" smooth="yes"/>
      <point x="228" y="326"/>
      <point x="251" y="302"/>
      <point x="276" y="302" type="curve" smooth="yes"/>
      <point x="293" y="302"/>
      <point x="298" y="308"/>
      <point x="298" y="341" type="curve" smooth="yes"/>
      <point x="298" y="539"/>
      <point x="400" y="648"/>
      <point x="469" y="648" type="curve" smooth="yes"/>
      <point x="495" y="648"/>
      <point x="504" y="633"/>
      <point x="504" y="614" type="curve" smooth="yes"/>
      <point x="504" y="578"/>
      <point x="459" y="521"/>
      <point x="321" y="481" type="curve" smooth="yes"/>
      <point x="297" y="474"/>
      <point x="291" y="445"/>
      <point x="304" y="427" type="curve" smooth="yes"/>
      <point x="341" y="379"/>
      <point x="461" y="324"/>
      <point x="495" y="324" type="curve" smooth="yes"/>
      <point x="526" y="324"/>
      <point x="544" y="338"/>
      <point x="544" y="359" type="curve" smooth="yes"/>
      <point x="544" y="372"/>
      <point x="533" y="381"/>
      <point x="502" y="389" type="curve" smooth="yes"/>
      <point x="457" y="403"/>
      <point x="414" y="422"/>
      <point x="386" y="442" type="curve"/>
      <point x="520" y="488"/>
      <point x="572" y="553"/>
      <point x="572" y="617" type="curve" smooth="yes"/>
      <point x="572" y="672"/>
      <point x="543" y="715"/>
      <point x="475" y="715" type="curve" smooth="yes"/>
      <point x="405" y="715"/>
      <point x="342" y="673"/>
      <point x="301" y="587" type="curve"/>
      <point x="314" y="590" type="line"/>
      <point x="308" y="635"/>
      <point x="289" y="651"/>
    </contour>
    <contour>
      <point x="267" y="725" type="curve" smooth="yes"/>
      <point x="303" y="746"/>
      <point x="315" y="759"/>
      <point x="315" y="777" type="curve" smooth="yes"/>
      <point x="315" y="790"/>
      <point x="309" y="793"/>
      <point x="296" y="793" type="curve" smooth="yes"/>
      <point x="231" y="793"/>
      <point x="54" y="669"/>
      <point x="54" y="448" type="curve" smooth="yes"/>
      <point x="54" y="251"/>
      <point x="188" y="167"/>
      <point x="369" y="167" type="curve" smooth="yes"/>
      <point x="573" y="167"/>
      <point x="745" y="297"/>
      <point x="745" y="559" type="curve" smooth="yes"/>
      <point x="745" y="740"/>
      <point x="646" y="857"/>
      <point x="425" y="857" type="curve" smooth="yes"/>
      <point x="238" y="857"/>
      <point x="117" y="753"/>
      <point x="117" y="703" type="curve" smooth="yes"/>
      <point x="117" y="687"/>
      <point x="130" y="675"/>
      <point x="143" y="675" type="curve" smooth="yes"/>
      <point x="153" y="675"/>
      <point x="162" y="680"/>
      <point x="173" y="688" type="curve" smooth="yes"/>
      <point x="237" y="740"/>
      <point x="293" y="792"/>
      <point x="432" y="793" type="curve" smooth="yes"/>
      <point x="606" y="794"/>
      <point x="677" y="700"/>
      <point x="677" y="550" type="curve" smooth="yes"/>
      <point x="677" y="348"/>
      <point x="561" y="231"/>
      <point x="359" y="231" type="curve" smooth="yes"/>
      <point x="202" y="231"/>
      <point x="122" y="332"/>
      <point x="122" y="451" type="curve" smooth="yes"/>
      <point x="122" y="559"/>
      <point x="166" y="663"/>
    </contour>
  </outline>
</glyph>
<glyph name="degree" format="2">
  <advance width="553"/>
  <unicode hex="00B0"/>
  <outline>
    <contour>
      <point x="279" y="290" type="curve" smooth="yes"/>
      <point x="393.41269841269843" y="290.0"/>
      <point x="481.99999455326883" y="381.9993409455264"/>
      <point x="483" y="503" type="curve" smooth="yes"/>
      <point x="485.0000428745009" y="628.0026796563039"/>
      <point x="410.4166666666667" y="706.0"/>
      <point x="288" y="706" type="curve" smooth="yes"/>
      <point x="217" y="706"/>
      <point x="148" y="642"/>
      <point x="147" y="595" type="curve" smooth="yes"/>
      <point x="147" y="574"/>
      <point x="156" y="566"/>
      <point x="171" y="566" type="curve" smooth="yes"/>
      <point x="193" y="566"/>
      <point x="194" y="584"/>
      <point x="220" y="609" type="curve" smooth="yes"/>
      <point x="242" y="631"/>
      <point x="260" y="645"/>
      <point x="295" y="645" type="curve" smooth="yes"/>
      <point x="371.4811320754717" y="645.0"/>
      <point x="417.0000197649874" y="592.0016800239327"/>
      <point x="416" y="507" type="curve" smooth="yes"/>
      <point x="414.9999862049969" y="412.9987032697113"/>
      <point x="359.95161290322585" y="351.0"/>
      <point x="277" y="351" type="curve" smooth="yes"/>
      <point x="190" y="351"/>
      <point x="136" y="410"/>
      <point x="137" y="501" type="curve" smooth="yes"/>
      <point x="138" y="552"/>
      <point x="162" y="591"/>
      <point x="216" y="625" type="curve" smooth="yes"/>
      <point x="242" y="639"/>
      <point x="248" y="654"/>
      <point x="248" y="675" type="curve" smooth="yes"/>
      <point x="248" y="692"/>
      <point x="237" y="697"/>
      <point x="222" y="697" type="curve" smooth="yes"/>
      <point x="178" y="697"/>
      <point x="72" y="619"/>
      <point x="70" y="496" type="curve" smooth="yes"/>
      <point x="69" y="377"/>
      <point x="156" y="290"/>
    </contour>
  </outline>
</glyph>
<glyph name="paragraph" format="2">
  <advance width="759"/>
  <unicode hex="00B6"/>
  <image fileName="paragraph.png" xScale="1.8658943303863345" yScale="1.8658943303863347" xOffset="-95.4880853232109" yOffset="-402.2480295189743" color="0,0,0,0.19656"/>
  <outline>
    <contour>
      <point x="666" y="676" type="curve" smooth="yes"/>
      <point x="723" y="194"/>
      <point x="602" y="22"/>
      <point x="626" y="-203" type="curve" smooth="yes"/>
      <point x="629" y="-233"/>
      <point x="624" y="-253"/>
      <point x="597" y="-253.0" type="curve" smooth="yes"/>
      <point x="570.0" y="-253.0"/>
      <point x="559" y="-241"/>
      <point x="555" y="-203" type="curve" smooth="yes"/>
      <point x="532" y="16"/>
      <point x="657" y="189"/>
      <point x="595" y="672" type="curve" smooth="yes"/>
      <point x="591" y="703.0"/>
      <point x="600" y="716"/>
      <point x="620" y="716" type="curve" smooth="yes"/>
      <point x="646.0" y="716.0"/>
      <point x="662.3618939950876" y="699.0413380311124"/>
    </contour>
    <contour>
      <point x="390" y="179" type="curve" smooth="yes"/>
      <point x="161.45691677352727" y="221.10004164698182"/>
      <point x="45.0" y="304.3215859030837"/>
      <point x="45" y="403" type="curve" smooth="yes"/>
      <point x="45" y="541"/>
      <point x="191" y="704"/>
      <point x="339" y="704" type="curve" smooth="yes"/>
      <point x="445.0" y="704.0"/>
      <point x="472.0" y="652.0"/>
      <point x="472" y="409" type="curve" smooth="yes"/>
      <point x="472" y="105"/>
      <point x="384" y="-80"/>
      <point x="432" y="-221" type="curve" smooth="yes"/>
      <point x="439.30384048104054" y="-242.9115214431216"/>
      <point x="425" y="-267.0"/>
      <point x="399" y="-267" type="curve" smooth="yes"/>
      <point x="385" y="-267"/>
      <point x="371" y="-257"/>
      <point x="366" y="-243" type="curve" smooth="yes"/>
      <point x="316" y="-98"/>
      <point x="402" y="92"/>
      <point x="402" y="413" type="curve" smooth="yes"/>
      <point x="402.0" y="619.7692307692307"/>
      <point x="380.8918918918919" y="637.0"/>
      <point x="331" y="637" type="curve" smooth="yes"/>
      <point x="230.6056338028169" y="637.0"/>
      <point x="115.0" y="510.34070796460173"/>
      <point x="115" y="408" type="curve" smooth="yes"/>
      <point x="115" y="346"/>
      <point x="220" y="278"/>
      <point x="401" y="244" type="curve" smooth="yes"/>
      <point x="420" y="240"/>
      <point x="433" y="222"/>
      <point x="429" y="204" type="curve" smooth="yes"/>
      <point x="426.3151659504889" y="186.99605101976294"/>
      <point x="407.5116801301816" y="176.08138664496974"/>
    </contour>
  </outline>
</glyph>
<glyph name="ordmasculine" format="2">
  <advance width="538"/>
  <unicode hex="00BA"/>
  <outline>
    <contour>
      <point x="279" y="290" type="curve" smooth="yes"/>
      <point x="385" y="290"/>
      <point x="468" y="380"/>
      <point x="468" y="503" type="curve" smooth="yes"/>
      <point x="468" y="628"/>
      <point x="401" y="706"/>
      <point x="288" y="706" type="curve" smooth="yes"/>
      <point x="217" y="706"/>
      <point x="147" y="642"/>
      <point x="147" y="595" type="curve" smooth="yes"/>
      <point x="147" y="574"/>
      <point x="156" y="566"/>
      <point x="171" y="566" type="curve" smooth="yes"/>
      <point x="193" y="566"/>
      <point x="194" y="584"/>
      <point x="220" y="609" type="curve" smooth="yes"/>
      <point x="242" y="631"/>
      <point x="260" y="645"/>
      <point x="295" y="645" type="curve" smooth="yes"/>
      <point x="362" y="645"/>
      <point x="401" y="592"/>
      <point x="401" y="507" type="curve" smooth="yes"/>
      <point x="401" y="412"/>
      <point x="353" y="351"/>
      <point x="277" y="351" type="curve" smooth="yes"/>
      <point x="190" y="351"/>
      <point x="136" y="410"/>
      <point x="137" y="501" type="curve" smooth="yes"/>
      <point x="138" y="552"/>
      <point x="162" y="590"/>
      <point x="216" y="625" type="curve" smooth="yes"/>
      <point x="241" y="641"/>
      <point x="248" y="654"/>
      <point x="248" y="675" type="curve" smooth="yes"/>
      <point x="248" y="692"/>
      <point x="237" y="697"/>
      <point x="222" y="697" type="curve" smooth="yes"/>
      <point x="178" y="697"/>
      <point x="70" y="619"/>
      <point x="70" y="496" type="curve" smooth="yes"/>
      <point x="70" y="378"/>
      <point x="156" y="290"/>
    </contour>
  </outline>
</glyph>
<glyph name="questiondown" format="2">
	<unicode hex="00BF"/>
	<advance width="302"/>
	<outline>
		<contour>
			<point x="358" y="-224" type="curve" smooth="yes"/>
			<point x="315" y="-246"/>
			<point x="240" y="-262"/>
			<point x="185" y="-262" type="curve" smooth="yes"/>
			<point x="42.4898989899" y="-262"/>
			<point x="-18" y="-190.9467455621"/>
			<point x="-18" y="-104" type="curve" smooth="yes"/>
			<point x="-18" y="-50.4968152866"/>
			<point x="-6.1378086101" y="-3.6134038576"/>
			<point x="90" y="64" type="curve" smooth="yes"/>
			<point x="165" y="115"/>
			<point x="173" y="134"/>
			<point x="173" y="159" type="curve" smooth="yes"/>
			<point x="173" y="203"/>
			<point x="121" y="203"/>
			<point x="121" y="242" type="curve" smooth="yes"/>
			<point x="121" y="257"/>
			<point x="132" y="268"/>
			<point x="148" y="268" type="curve" smooth="yes"/>
			<point x="194" y="268"/>
			<point x="243" y="220"/>
			<point x="243" y="163" type="curve" smooth="yes"/>
			<point x="243" y="127"/>
			<point x="239" y="88"/>
			<point x="126" y="8" type="curve" smooth="yes"/>
			<point x="60.8765540921" y="-39.7571936658"/>
			<point x="50" y="-66.297029703"/>
			<point x="50" y="-104" type="curve" smooth="yes"/>
			<point x="50" y="-161.9207920792"/>
			<point x="88.4230769231" y="-194"/>
			<point x="185" y="-194" type="curve" smooth="yes"/>
			<point x="272" y="-194"/>
			<point x="309" y="-160"/>
			<point x="342" y="-160" type="curve" smooth="yes"/>
			<point x="362" y="-160"/>
			<point x="376" y="-175"/>
			<point x="376" y="-194" type="curve" smooth="yes"/>
			<point x="376" y="-206"/>
			<point x="369" y="-218"/>
		</contour>
		<contour>
			<point x="154" y="494" type="curve" smooth="yes"/>
			<point x="118" y="494"/>
			<point x="104" y="468"/>
			<point x="104" y="443" type="curve" smooth="yes"/>
			<point x="104" y="406"/>
			<point x="125" y="371"/>
			<point x="179" y="371" type="curve" smooth="yes"/>
			<point x="206" y="371"/>
			<point x="229" y="393"/>
			<point x="229" y="423" type="curve" smooth="yes"/>
			<point x="229" y="468"/>
			<point x="195" y="494"/>
		</contour>
	</outline>
</glyph>
<glyph name="multiply" format="2">
  <advance width="700"/>
  <unicode hex="00D7"/>
  <outline>
    <contour>
      <point x="557" y="496" type="curve" smooth="yes"/>
      <point x="581" y="511"/>
      <point x="589" y="524"/>
      <point x="589" y="540" type="curve" smooth="yes"/>
      <point x="589" y="557"/>
      <point x="580" y="567"/>
      <point x="565" y="567" type="curve" smooth="yes"/>
      <point x="542" y="567"/>
      <point x="523" y="557"/>
      <point x="445" y="496" type="curve" smooth="yes"/>
      <point x="262" y="353"/>
      <point x="137.211" y="170.612"/>
      <point x="129" y="108" type="curve" smooth="yes"/>
      <point x="125" y="77"/>
      <point x="138" y="67"/>
      <point x="155" y="67" type="curve" smooth="yes"/>
      <point x="166" y="67"/>
      <point x="180" y="76"/>
      <point x="189" y="96" type="curve" smooth="yes"/>
      <point x="266.983" y="252.993"/>
      <point x="400" y="401"/>
    </contour>
    <contour>
      <point x="532" y="192" type="curve" smooth="yes"/>
      <point x="473.417" y="273.42"/>
      <point x="318.167" y="445.723"/>
      <point x="253" y="507" type="curve" smooth="yes"/>
      <point x="213" y="544"/>
      <point x="199" y="556"/>
      <point x="177" y="556" type="curve" smooth="yes"/>
      <point x="158" y="556"/>
      <point x="149" y="545"/>
      <point x="149" y="533" type="curve" smooth="yes"/>
      <point x="149" y="511"/>
      <point x="167" y="492"/>
      <point x="199" y="465" type="curve" smooth="yes"/>
      <point x="289.975" y="387.72"/>
      <point x="423.655" y="233.037"/>
      <point x="508" y="109" type="curve" smooth="yes"/>
      <point x="528" y="77"/>
      <point x="539" y="69"/>
      <point x="555" y="69" type="curve" smooth="yes"/>
      <point x="571" y="69"/>
      <point x="580" y="79"/>
      <point x="580" y="95" type="curve" smooth="yes"/>
      <point x="580" y="113"/>
      <point x="571" y="136"/>
    </contour>
  </outline>
</glyph>
<glyph name="Thorn" format="2">
  <advance width="575"/>
  <unicode hex="00DE"/>
  <outline>
    <contour>
      <point x="135" y="-11" type="curve" smooth="yes"/>
      <point x="151" y="-11"/>
      <point x="161" y="0"/>
      <point x="161" y="19" type="curve" smooth="yes"/>
      <point x="161" y="73"/>
      <point x="149" y="69"/>
      <point x="149" y="225" type="curve" smooth="yes"/>
      <point x="149.0" y="337.88990825688074"/>
      <point x="169.0" y="480.32110091743124"/>
      <point x="169" y="570" type="curve" smooth="yes"/>
      <point x="169.0" y="627.5949367088607"/>
      <point x="163.57692307692307" y="710.0"/>
      <point x="122" y="710" type="curve" smooth="yes"/>
      <point x="107" y="710"/>
      <point x="95" y="700"/>
      <point x="95" y="676" type="curve" smooth="yes"/>
      <point x="95.0" y="642.6612903225806"/>
      <point x="102.0" y="626.4193548387096"/>
      <point x="102" y="570" type="curve" smooth="yes"/>
      <point x="102.0" y="498.6465753424658"/>
      <point x="83.0" y="353.84109589041094"/>
      <point x="83" y="187" type="curve" smooth="yes"/>
      <point x="83" y="41"/>
      <point x="96" y="-11"/>
    </contour>
    <contour>
      <point x="186" y="469" type="curve" smooth="yes"/>
      <point x="207.49153534118128" y="505.8426320134536"/>
      <point x="250.26785714285714" y="523.0"/>
      <point x="308" y="523" type="curve" smooth="yes"/>
      <point x="385.8125" y="523.0"/>
      <point x="458.0" y="476.0"/>
      <point x="458" y="380" type="curve" smooth="yes"/>
      <point x="458" y="289"/>
      <point x="377" y="208"/>
      <point x="256" y="208" type="curve" smooth="yes"/>
      <point x="190.9795918367347" y="208.0"/>
      <point x="177.75510204081633" y="236.0"/>
      <point x="148" y="236" type="curve" smooth="yes"/>
      <point x="137" y="236"/>
      <point x="129" y="228"/>
      <point x="129" y="213" type="curve" smooth="yes"/>
      <point x="129.0" y="176.83333333333331"/>
      <point x="183.16666666666666" y="143.0"/>
      <point x="259" y="143" type="curve" smooth="yes"/>
      <point x="416" y="143"/>
      <point x="525" y="260"/>
      <point x="525" y="380" type="curve" smooth="yes"/>
      <point x="525.0" y="512.0"/>
      <point x="427.5132743362832" y="588.0"/>
      <point x="309" y="588" type="curve" smooth="yes"/>
      <point x="223.0909090909091" y="588.0"/>
      <point x="165.4632293582472" y="556.8218585388256"/>
      <point x="134" y="501" type="curve" smooth="yes"/>
      <point x="121" y="479"/>
      <point x="133" y="453.0"/>
      <point x="153" y="453" type="curve" smooth="yes"/>
      <point x="167.0" y="453.0"/>
      <point x="179" y="458"/>
    </contour>
  </outline>
</glyph>
<glyph name="germandbls" format="2">
  <advance width="645"/>
  <unicode hex="00DF"/>
  <outline>
    <contour>
      <point x="309" y="810" type="curve" smooth="yes"/>
      <point x="167" y="810"/>
      <point x="49" y="696"/>
      <point x="49" y="489" type="curve" smooth="yes"/>
      <point x="49" y="314"/>
      <point x="67" y="246"/>
      <point x="67" y="46" type="curve" smooth="yes"/>
      <point x="67" y="9"/>
      <point x="89" y="-13"/>
      <point x="110" y="-13" type="curve" smooth="yes"/>
      <point x="128" y="-13"/>
      <point x="137" y="-4"/>
      <point x="137" y="29" type="curve" smooth="yes"/>
      <point x="137.0" y="227.0"/>
      <point x="119" y="337"/>
      <point x="119" y="475" type="curve" smooth="yes"/>
      <point x="119" y="639.0"/>
      <point x="190.0" y="741.0"/>
      <point x="313" y="741" type="curve" smooth="yes"/>
      <point x="396" y="741"/>
      <point x="456.0" y="695.0"/>
      <point x="456" y="602" type="curve" smooth="yes"/>
      <point x="456.0" y="465.0"/>
      <point x="252.0" y="479.241935483871"/>
      <point x="252" y="344" type="curve" smooth="yes"/>
      <point x="252.0" y="199.0"/>
      <point x="513.0208867447795" y="230.9164530208816"/>
      <point x="539" y="127" type="curve"/>
      <point x="515.0755644398615" y="69.18261406299882"/>
      <point x="442.1521739130435" y="45.0"/>
      <point x="359" y="45" type="curve" smooth="yes"/>
      <point x="278" y="45"/>
      <point x="285" y="79"/>
      <point x="261" y="79" type="curve" smooth="yes"/>
      <point x="242" y="79"/>
      <point x="232" y="66"/>
      <point x="232" y="50" type="curve" smooth="yes"/>
      <point x="232" y="13.0"/>
      <point x="275.0" y="-20"/>
      <point x="363" y="-20" type="curve" smooth="yes"/>
      <point x="486" y="-20"/>
      <point x="602" y="28"/>
      <point x="602" y="136" type="curve" smooth="yes"/>
      <point x="602" y="289"/>
      <point x="333.98029459966614" y="253.0891434777007"/>
      <point x="313" y="348" type="curve"/>
      <point x="348" y="438"/>
      <point x="526.0" y="432.0"/>
      <point x="526" y="609" type="curve" smooth="yes"/>
      <point x="526.0" y="745.0"/>
      <point x="427.0" y="810.0"/>
    </contour>
  </outline>
</glyph>
<glyph name="divide" format="2">
  <advance width="700"/>
  <unicode hex="00F7"/>
  <outline>
    <contour>
      <point x="134" y="264" type="curve" smooth="yes"/>
      <point x="105" y="256"/>
      <point x="89" y="272"/>
      <point x="89" y="291" type="curve" smooth="yes"/>
      <point x="90" y="315"/>
      <point x="98" y="330"/>
      <point x="150" y="338" type="curve" smooth="yes"/>
      <point x="277" y="360"/>
      <point x="429" y="380"/>
      <point x="549" y="380" type="curve" smooth="yes"/>
      <point x="575" y="380"/>
      <point x="596" y="364"/>
      <point x="596" y="345" type="curve" smooth="yes"/>
      <point x="596" y="326"/>
      <point x="586" y="318"/>
      <point x="561" y="317" type="curve" smooth="yes"/>
      <point x="368" y="308"/>
      <point x="257" y="292"/>
    </contour>
    <component base="period" xOffset="226" yOffset="472"/>
    <component base="period" xOffset="209" yOffset="55"/>
  </outline>
</glyph>
<glyph name="oslash" format="2">
  <advance width="600"/>
  <unicode hex="00F8"/>
  <anchor x="323" y="485" name="top"/>
  <outline>
    <contour>
      <point x="132" y="89"/>
      <point x="111" y="62"/>
      <point x="48" y="-33" type="curve" smooth="yes"/>
      <point x="29" y="-62"/>
      <point x="39" y="-94"/>
      <point x="71" y="-94" type="curve" smooth="yes"/>
      <point x="82" y="-94"/>
      <point x="94" y="-86"/>
      <point x="106" y="-68" type="curve" smooth="yes"/>
      <point x="159" y="12"/>
      <point x="187" y="43"/>
      <point x="187" y="58" type="curve" smooth="yes"/>
      <point x="187" y="79"/>
      <point x="174" y="89"/>
      <point x="152" y="89" type="curve" smooth="yes"/>
    </contour>
    <contour>
      <point x="561" y="474" type="curve" smooth="yes"/>
      <point x="604" y="517"/>
      <point x="592" y="553"/>
      <point x="564" y="553" type="curve" smooth="yes"/>
      <point x="539.0" y="553.0"/>
      <point x="524" y="543"/>
      <point x="497" y="514" type="curve" smooth="yes"/>
      <point x="223" y="214"/>
      <point x="198" y="177"/>
      <point x="198" y="143" type="curve" smooth="yes"/>
      <point x="198" y="130"/>
      <point x="210" y="118"/>
      <point x="224" y="118" type="curve" smooth="yes"/>
      <point x="261" y="118"/>
      <point x="276" y="186"/>
    </contour>
    <component base="o"/>
  </outline>
</glyph>
<glyph name="dcroat" format="2">
  <advance width="603"/>
  <unicode hex="0111"/>
  <outline>
    <contour>
      <point x="223" y="601" type="curve" smooth="yes"/>
      <point x="269.4018691588785" y="601.0"/>
      <point x="345.7071651090343" y="612.0"/>
      <point x="554" y="612" type="curve" smooth="yes"/>
      <point x="581.0" y="612.0"/>
      <point x="596.0" y="621.0"/>
      <point x="596" y="638" type="curve" smooth="yes"/>
      <point x="596" y="658"/>
      <point x="581.0" y="675.0"/>
      <point x="541" y="675" type="curve" smooth="yes"/>
      <point x="428.5506329113924" y="675.0"/>
      <point x="331.5485850277633" y="672.3140340732534"/>
      <point x="215" y="662" type="curve" smooth="yes"/>
      <point x="190" y="659"/>
      <point x="177" y="650"/>
      <point x="177" y="632" type="curve" smooth="yes"/>
      <point x="177" y="614"/>
      <point x="190.0" y="601.0"/>
    </contour>
    <component base="d"/>
  </outline>
</glyph>
<glyph name="Hbar" format="2">
  <advance width="736"/>
  <unicode hex="0126"/>
  <anchor x="359" y="0" name="bottom"/>
  <anchor x="359" y="700" name="top"/>
  <outline>
    <contour>
      <point x="116" y="500" type="curve" smooth="yes"/>
      <point x="188.63" y="500"/>
      <point x="305.706" y="510"/>
      <point x="632" y="510" type="curve" smooth="yes"/>
      <point x="664" y="510"/>
      <point x="683" y="521"/>
      <point x="683" y="539" type="curve" smooth="yes"/>
      <point x="683" y="552"/>
      <point x="661" y="573"/>
      <point x="599" y="573" type="curve" smooth="yes"/>
      <point x="426.582" y="573"/>
      <point x="263.875" y="569.841"/>
      <point x="85" y="559" type="curve" smooth="yes"/>
      <point x="60" y="557"/>
      <point x="53" y="541"/>
      <point x="53" y="530" type="curve" smooth="yes"/>
      <point x="53" y="515"/>
      <point x="75" y="500"/>
    </contour>
    <component base="H"/>
  </outline>
</glyph>
<glyph name="kra" format="2">
  <advance width="548"/>
  <unicode hex="0138"/>
  <outline>
    <contour>
      <point x="471" y="-7" type="curve" smooth="yes"/>
      <point x="491" y="-7"/>
      <point x="501" y="3"/>
      <point x="501" y="19" type="curve" smooth="yes"/>
      <point x="501" y="36"/>
      <point x="491" y="50"/>
      <point x="438" y="68" type="curve" smooth="yes"/>
      <point x="305" y="111"/>
      <point x="239" y="195"/>
      <point x="239" y="229" type="curve" smooth="yes"/>
      <point x="239" y="276"/>
      <point x="346" y="384"/>
      <point x="444" y="424" type="curve" smooth="yes"/>
      <point x="471" y="435"/>
      <point x="485" y="447"/>
      <point x="485" y="468" type="curve" smooth="yes"/>
      <point x="485" y="486"/>
      <point x="473" y="495"/>
      <point x="451" y="495" type="curve" smooth="yes"/>
      <point x="374" y="495"/>
      <point x="172" y="330"/>
      <point x="172" y="229" type="curve" smooth="yes"/>
      <point x="172" y="118"/>
      <point x="373" y="-7"/>
    </contour>
    <contour>
      <point x="140" y="494" type="curve" smooth="yes"/>
      <point x="123.303" y="494"/>
      <point x="113.991" y="483.945"/>
      <point x="111" y="466" type="curve" smooth="yes"/>
      <point x="104" y="421"/>
      <point x="103" y="360"/>
      <point x="89" y="276" type="curve" smooth="yes"/>
      <point x="78" y="213"/>
      <point x="75" y="147.75"/>
      <point x="75" y="117" type="curve" smooth="yes"/>
      <point x="75" y="15"/>
      <point x="100" y="-10"/>
      <point x="124" y="-10" type="curve" smooth="yes"/>
      <point x="140" y="-10"/>
      <point x="149" y="1"/>
      <point x="149" y="25" type="curve" smooth="yes"/>
      <point x="149" y="58"/>
      <point x="144" y="87"/>
      <point x="144" y="129" type="curve" smooth="yes"/>
      <point x="144" y="174.499"/>
      <point x="146" y="204"/>
      <point x="158" y="284" type="curve" smooth="yes"/>
      <point x="182.174" y="444.152"/>
      <point x="180.393" y="494"/>
    </contour>
  </outline>
</glyph>
<glyph name="ldot" format="2">
	<unicode hex="013F"/>
	<advance width="381"/>
	<outline>
		<contour>
			<point x="313" y="303" type="curve" smooth="yes"/>
			<point x="347" y="303"/>
			<point x="360" y="329"/>
			<point x="360" y="354" type="curve" smooth="yes"/>
			<point x="360" y="389"/>
			<point x="331" y="432"/>
			<point x="283" y="432" type="curve" smooth="yes"/>
			<point x="257" y="432"/>
			<point x="235" y="412"/>
			<point x="235" y="384" type="curve" smooth="yes"/>
			<point x="235" y="343"/>
			<point x="271" y="303"/>
		</contour>
		<component base="l"/>
	</outline>
</glyph>
<glyph name="lslash" format="2">
	<unicode hex="0142"/>
	<advance width="353"/>
	<outline>
		<contour>
			<point x="105" y="323" type="curve" smooth="yes"/>
			<point x="133" y="338"/>
			<point x="176" y="354"/>
			<point x="298" y="426" type="curve" smooth="yes"/>
			<point x="338" y="450"/>
			<point x="329" y="493"/>
			<point x="300" y="493" type="curve" smooth="yes"/>
			<point x="285" y="493"/>
			<point x="275" y="489"/>
			<point x="243" y="471" type="curve" smooth="yes"/>
			<point x="167" y="427"/>
			<point x="118" y="410"/>
			<point x="51" y="371" type="curve" smooth="yes"/>
			<point x="14" y="348"/>
			<point x="29" y="309"/>
			<point x="59" y="309" type="curve" smooth="yes"/>
			<point x="71" y="309"/>
			<point x="87" y="313"/>
		</contour>
		<component base="l" xOffset="35"/>
	</outline>
	<note>
just draw this
</note>
</glyph>
<glyph name="Eng" format="2">
	<unicode hex="014A"/>
	<advance width="753"/>
	<outline>
		<contour>
			<point x="117" y="-8" type="curve" smooth="yes"/>
			<point x="99" y="-8"/>
			<point x="83" y="4"/>
			<point x="83" y="43" type="curve" smooth="yes"/>
			<point x="83" y="96"/>
			<point x="123" y="140"/>
			<point x="123" y="342" type="curve" smooth="yes"/>
			<point x="123" y="457"/>
			<point x="107" y="605"/>
			<point x="107" y="638" type="curve" smooth="yes"/>
			<point x="107" y="678"/>
			<point x="124" y="710"/>
			<point x="156" y="710" type="curve" smooth="yes"/>
			<point x="354" y="710"/>
			<point x="432" y="68"/>
			<point x="576" y="68" type="curve" smooth="yes"/>
			<point x="596" y="68"/>
			<point x="610" y="52.1025641026"/>
			<point x="610" y="37" type="curve" smooth="yes"/>
			<point x="610" y="12.8974358974"/>
			<point x="597.7142857143" y="-10"/>
			<point x="567" y="-10" type="curve" smooth="yes"/>
			<point x="374" y="-10"/>
			<point x="353" y="486"/>
			<point x="164" y="637" type="curve"/>
			<point x="175" y="641" type="line"/>
			<point x="188" y="515"/>
			<point x="193" y="420"/>
			<point x="193" y="342" type="curve" smooth="yes"/>
			<point x="193" y="217"/>
			<point x="182" y="114"/>
			<point x="154" y="29" type="curve" smooth="yes"/>
			<point x="148" y="8"/>
			<point x="135" y="-8"/>
		</contour>
		<contour>
			<point x="594" y="39" type="curve" smooth="yes"/>
			<point x="594" y="271"/>
			<point x="555" y="489"/>
			<point x="593" y="662" type="curve" smooth="yes"/>
			<point x="600" y="694"/>
			<point x="611" y="707"/>
			<point x="632" y="707" type="curve" smooth="yes"/>
			<point x="657" y="707"/>
			<point x="670" y="674"/>
			<point x="663" y="637" type="curve" smooth="yes"/>
			<point x="625" y="448"/>
			<point x="664" y="269"/>
			<point x="664" y="44" type="curve" smooth="yes"/>
			<point x="664" y="-158"/>
			<point x="577" y="-260"/>
			<point x="429" y="-260" type="curve" smooth="yes"/>
			<point x="343" y="-260"/>
			<point x="294" y="-234"/>
			<point x="294" y="-203" type="curve" smooth="yes"/>
			<point x="294" y="-183"/>
			<point x="306" y="-172"/>
			<point x="324" y="-172" type="curve" smooth="yes"/>
			<point x="359" y="-172"/>
			<point x="378" y="-194"/>
			<point x="420" y="-194" type="curve" smooth="yes"/>
			<point x="531" y="-194"/>
			<point x="594" y="-116"/>
		</contour>
	</outline>
</glyph>
<glyph name="eng" format="2">
  <advance width="581"/>
  <unicode hex="014B"/>
  <outline>
    <contour>
      <point x="428" y="61" type="curve" smooth="yes"/>
      <point x="428.0" y="299.92452830188677"/>
      <point x="411.17790943271035" y="378.52892812383163"/>
      <point x="365" y="439" type="curve"/>
      <point x="403.0" y="462.0"/>
      <point x="426.0" y="442.0"/>
      <point x="428" y="396" type="curve"/>
      <point x="412" y="418"/>
      <point x="401" y="429"/>
      <point x="378" y="429" type="curve" smooth="yes"/>
      <point x="334.8241206030151" y="429.0"/>
      <point x="232.90213044055054" y="266.4300537420296"/>
      <point x="199" y="69" type="curve" smooth="yes"/>
      <point x="189" y="12"/>
      <point x="175" y="-9"/>
      <point x="150" y="-9" type="curve" smooth="yes"/>
      <point x="104" y="-9"/>
      <point x="80" y="58"/>
      <point x="80" y="151" type="curve" smooth="yes"/>
      <point x="80" y="288"/>
      <point x="109" y="340"/>
      <point x="109" y="465" type="curve" smooth="yes"/>
      <point x="109" y="482"/>
      <point x="119" y="495"/>
      <point x="136" y="495" type="curve" smooth="yes"/>
      <point x="153" y="495"/>
      <point x="176" y="478"/>
      <point x="176" y="429" type="curve" smooth="yes"/>
      <point x="176" y="339"/>
      <point x="138" y="260"/>
      <point x="148" y="81" type="curve"/>
      <point x="136" y="73" type="line"/>
      <point x="180.09454187226982" y="346.48597200661544"/>
      <point x="295" y="496.0"/>
      <point x="378" y="496.0" type="curve" smooth="yes"/>
      <point x="449.0" y="496.0"/>
      <point x="498.0" y="361.18918918918916"/>
      <point x="498" y="66" type="curve" smooth="yes"/>
      <point x="498.0" y="-150.20725388601036"/>
      <point x="434.2962962962963" y="-260.0"/>
      <point x="326" y="-260" type="curve" smooth="yes"/>
      <point x="240" y="-260"/>
      <point x="191" y="-234"/>
      <point x="191" y="-203" type="curve" smooth="yes"/>
      <point x="191" y="-183"/>
      <point x="203" y="-172"/>
      <point x="221" y="-172" type="curve" smooth="yes"/>
      <point x="256" y="-172"/>
      <point x="275" y="-194"/>
      <point x="317" y="-194" type="curve" smooth="yes"/>
      <point x="387.33663366336634" y="-194.0"/>
      <point x="428.0" y="-109.0"/>
    </contour>
  </outline>
</glyph>
<glyph name="OE" format="2">
	<unicode hex="0152"/>
	<advance width="1179"/>
	<outline>
		<contour>
			<point x="675" y="291" type="curve" smooth="yes"/>
			<point x="744" y="307"/>
			<point x="877" y="324"/>
			<point x="969" y="330" type="curve" smooth="yes"/>
			<point x="1007" y="332"/>
			<point x="1042" y="340"/>
			<point x="1042" y="370" type="curve" smooth="yes"/>
			<point x="1042" y="386"/>
			<point x="1032" y="396"/>
			<point x="996" y="396" type="curve"/>
			<point x="934" y="395"/>
			<point x="788" y="379"/>
			<point x="685" y="362" type="curve" smooth="yes"/>
			<point x="642" y="355"/>
			<point x="618" y="340"/>
			<point x="618" y="322" type="curve" smooth="yes"/>
			<point x="618" y="303"/>
			<point x="632" y="281"/>
		</contour>
		<contour>
			<point x="588" y="293" type="curve" smooth="yes"/>
			<point x="588" y="119"/>
			<point x="695" y="-7"/>
			<point x="881" y="-7" type="curve" smooth="yes"/>
			<point x="1052" y="-7"/>
			<point x="1138" y="66"/>
			<point x="1138" y="104" type="curve" smooth="yes"/>
			<point x="1138" y="120"/>
			<point x="1132" y="132"/>
			<point x="1119" y="132" type="curve" smooth="yes"/>
			<point x="1086" y="132"/>
			<point x="1048" y="58"/>
			<point x="877" y="58" type="curve" smooth="yes"/>
			<point x="744" y="58"/>
			<point x="654" y="153"/>
			<point x="656" y="295" type="curve" smooth="yes"/>
			<point x="659" y="511"/>
			<point x="820" y="643"/>
			<point x="1085" y="643" type="curve" smooth="yes"/>
			<point x="1118" y="643"/>
			<point x="1130" y="658.3"/>
			<point x="1130" y="679" type="curve" smooth="yes"/>
			<point x="1130" y="695.24"/>
			<point x="1118.78" y="708"/>
			<point x="1084" y="708" type="curve" smooth="yes"/>
			<point x="775.114" y="708"/>
			<point x="588" y="560"/>
		</contour>
		<contour>
			<point x="276" y="567" type="curve" smooth="yes"/>
			<point x="303" y="584"/>
			<point x="322" y="605"/>
			<point x="305" y="630" type="curve" smooth="yes"/>
			<point x="296" y="644"/>
			<point x="287" y="645"/>
			<point x="279" y="645" type="curve" smooth="yes"/>
			<point x="245" y="645"/>
			<point x="70" y="519"/>
			<point x="70" y="290" type="curve" smooth="yes"/>
			<point x="70" y="131"/>
			<point x="166" y="-10"/>
			<point x="347" y="-10" type="curve" smooth="yes"/>
			<point x="535" y="-10"/>
			<point x="656" y="127"/>
			<point x="656" y="300" type="curve" smooth="yes"/>
			<point x="656" y="526"/>
			<point x="550" y="711"/>
			<point x="363" y="711" type="curve" smooth="yes"/>
			<point x="283" y="711"/>
			<point x="243" y="649"/>
			<point x="243" y="580" type="curve" smooth="yes"/>
			<point x="243" y="551"/>
			<point x="262" y="535"/>
			<point x="280" y="535" type="curve" smooth="yes"/>
			<point x="298" y="535"/>
			<point x="315" y="550"/>
			<point x="315" y="580" type="curve" smooth="yes"/>
			<point x="315" y="617"/>
			<point x="326" y="646"/>
			<point x="372" y="646" type="curve" smooth="yes"/>
			<point x="512" y="646"/>
			<point x="586" y="462"/>
			<point x="586" y="300" type="curve" smooth="yes"/>
			<point x="586" y="151"/>
			<point x="484" y="56"/>
			<point x="347" y="56" type="curve" smooth="yes"/>
			<point x="205" y="56"/>
			<point x="140" y="169"/>
			<point x="140" y="290" type="curve" smooth="yes"/>
			<point x="140" y="443"/>
			<point x="225" y="533"/>
		</contour>
	</outline>
</glyph>
<glyph name="tcaron" format="2">
	<unicode hex="0165"/>
	<advance width="443"/>
	<outline>
		<contour>
			<point x="349" y="809" type="curve" smooth="yes"/>
			<point x="323" y="809"/>
			<point x="312" y="793"/>
			<point x="312" y="758" type="curve" smooth="yes"/>
			<point x="312" y="719"/>
			<point x="306" y="690"/>
			<point x="289" y="658" type="curve" smooth="yes"/>
			<point x="272" y="625"/>
			<point x="269" y="615"/>
			<point x="269" y="602" type="curve" smooth="yes"/>
			<point x="269" y="587"/>
			<point x="279" y="578"/>
			<point x="298" y="578" type="curve" smooth="yes"/>
			<point x="316" y="578"/>
			<point x="333" y="585"/>
			<point x="350" y="606" type="curve" smooth="yes"/>
			<point x="383" y="647"/>
			<point x="401" y="707"/>
			<point x="401" y="745" type="curve" smooth="yes"/>
			<point x="401" y="792"/>
			<point x="381" y="809"/>
		</contour>
		<component base="t"/>
	</outline>
</glyph>
<glyph name="Schwa" format="2">
	<unicode hex="018F"/>
	<advance width="655"/>
	<outline>
		<contour>
			<point x="332" y="396" type="curve" smooth="yes"/>
			<point x="187" y="396"/>
			<point x="78" y="318.4470588235"/>
			<point x="78" y="190" type="curve" smooth="yes"/>
			<point x="78" y="55.7534246575"/>
			<point x="170" y="-10"/>
			<point x="313" y="-10" type="curve" smooth="yes"/>
			<point x="502" y="-10"/>
			<point x="621" y="147"/>
			<point x="621" y="305" type="curve" smooth="yes"/>
			<point x="621" y="544"/>
			<point x="515" y="710"/>
			<point x="337" y="710" type="curve" smooth="yes"/>
			<point x="226" y="710"/>
			<point x="116" y="634"/>
			<point x="116" y="586" type="curve" smooth="yes"/>
			<point x="116" y="566"/>
			<point x="120" y="557"/>
			<point x="135" y="557" type="curve" smooth="yes"/>
			<point x="167.4186046512" y="557"/>
			<point x="206" y="645"/>
			<point x="340" y="645" type="curve" smooth="yes"/>
			<point x="474" y="645"/>
			<point x="554" y="505"/>
			<point x="554" y="314" type="curve" smooth="yes"/>
			<point x="554" y="174"/>
			<point x="455" y="56"/>
			<point x="316" y="56" type="curve" smooth="yes"/>
			<point x="194" y="56"/>
			<point x="145" y="100.4736842105"/>
			<point x="145" y="186" type="curve" smooth="yes"/>
			<point x="145" y="274.5357142857"/>
			<point x="220" y="334"/>
			<point x="336" y="334" type="curve" smooth="yes"/>
			<point x="468.7659574468" y="334"/>
			<point x="519.6595744681" y="266"/>
			<point x="544" y="266" type="curve" smooth="yes"/>
			<point x="563" y="266"/>
			<point x="569" y="273"/>
			<point x="569" y="288" type="curve" smooth="yes"/>
			<point x="569" y="328"/>
			<point x="476" y="396"/>
		</contour>
	</outline>
</glyph>
<glyph name="Ohorn" format="2">
	<unicode hex="01A0"/>
	<advance width="726"/>
	<outline>
		<contour>
			<point x="489" y="672" type="curve" smooth="yes"/>
			<point x="580.3333333333" y="672"/>
			<point x="626" y="696.75"/>
			<point x="626" y="738" type="curve" smooth="yes"/>
			<point x="626" y="769"/>
			<point x="604" y="783"/>
			<point x="604" y="808" type="curve" smooth="yes"/>
			<point x="604" y="826"/>
			<point x="614" y="838"/>
			<point x="632" y="838" type="curve" smooth="yes"/>
			<point x="666" y="838"/>
			<point x="698" y="803"/>
			<point x="698" y="741" type="curve" smooth="yes"/>
			<point x="698" y="656.5537190083"/>
			<point x="612.9523809524" y="610"/>
			<point x="510" y="610" type="curve" smooth="yes"/>
			<point x="484" y="610"/>
			<point x="470" y="630"/>
			<point x="470" y="652" type="curve" smooth="yes"/>
			<point x="470" y="662"/>
			<point x="477" y="672"/>
		</contour>
		<component base="O"/>
	</outline>
	<anchor name="top" x="359" y="700"/>
	<anchor name="bottom" x="359" y="0"/>
</glyph>
<glyph name="Uhorn" format="2">
	<unicode hex="01AF"/>
	<advance width="704"/>
	<outline>
		<contour>
			<point x="549" y="682" type="curve" smooth="yes"/>
			<point x="537" y="682"/>
			<point x="530" y="672"/>
			<point x="530" y="662" type="curve" smooth="yes"/>
			<point x="530" y="640"/>
			<point x="544" y="620"/>
			<point x="570" y="620" type="curve" smooth="yes"/>
			<point x="662" y="620"/>
			<point x="738" y="663"/>
			<point x="738" y="741" type="curve" smooth="yes"/>
			<point x="738" y="803"/>
			<point x="706" y="838"/>
			<point x="672" y="838" type="curve" smooth="yes"/>
			<point x="654" y="838"/>
			<point x="644" y="826"/>
			<point x="644" y="808" type="curve" smooth="yes"/>
			<point x="644" y="783"/>
			<point x="666" y="769"/>
			<point x="666" y="738" type="curve" smooth="yes"/>
			<point x="666" y="703"/>
			<point x="627" y="682"/>
		</contour>
		<component base="U" xOffset="-2"/>
	</outline>
	<anchor name="bottom" x="337" y="0"/>
	<anchor name="top" x="337" y="700"/>
	<anchor name="ogonek" x="444" y="12"/>
</glyph>
<glyph name="uhorn" format="2">
	<unicode hex="01B0"/>
	<advance width="619"/>
	<outline>
		<contour>
			<point x="462" y="473" type="curve" smooth="yes"/>
			<point x="439.6388888889" y="473"/>
			<point x="427" y="458"/>
			<point x="427" y="444" type="curve" smooth="yes"/>
			<point x="427" y="428"/>
			<point x="438.6666666667" y="414"/>
			<point x="462" y="414" type="curve" smooth="yes"/>
			<point x="561" y="414"/>
			<point x="612" y="457.0930232558"/>
			<point x="612" y="523" type="curve" smooth="yes"/>
			<point x="612" y="590"/>
			<point x="583" y="628"/>
			<point x="552" y="628" type="curve" smooth="yes"/>
			<point x="534" y="628"/>
			<point x="524" y="616"/>
			<point x="524" y="598" type="curve" smooth="yes"/>
			<point x="524" y="573"/>
			<point x="547" y="559"/>
			<point x="547" y="528" type="curve" smooth="yes"/>
			<point x="547" y="493.5223880597"/>
			<point x="519" y="473"/>
		</contour>
		<component base="u"/>
	</outline>
	<anchor name="top" x="287" y="485"/>
	<anchor name="bottom" x="287" y="0"/>
</glyph>
<glyph name="jdotless" format="2">
	<unicode hex="0237"/>
	<advance width="241"/>
	<outline>
		<contour>
			<point x="146" y="444" type="curve" smooth="yes"/>
			<point x="138.996" y="488.027"/>
			<point x="123.45" y="496"/>
			<point x="105" y="496" type="curve" smooth="yes"/>
			<point x="90.469" y="496"/>
			<point x="74" y="485"/>
			<point x="74" y="457" type="curve" smooth="yes"/>
			<point x="74" y="393"/>
			<point x="122" y="260"/>
			<point x="122" y="-72" type="curve" smooth="yes"/>
			<point x="122" y="-154"/>
			<point x="97.356" y="-195"/>
			<point x="55" y="-195" type="curve" smooth="yes"/>
			<point x="24" y="-195"/>
			<point x="10" y="-172"/>
			<point x="-15" y="-172" type="curve" smooth="yes"/>
			<point x="-33" y="-172"/>
			<point x="-45" y="-181.935"/>
			<point x="-45" y="-200" type="curve" smooth="yes"/>
			<point x="-45" y="-230.526"/>
			<point x="-7" y="-260"/>
			<point x="60" y="-260" type="curve" smooth="yes"/>
			<point x="138" y="-260"/>
			<point x="189" y="-191.818"/>
			<point x="189" y="-60" type="curve" smooth="yes"/>
			<point x="189" y="124.344"/>
			<point x="176" y="266"/>
		</contour>
	</outline>
	<anchor name="top" x="111" y="485"/>
</glyph>
<glyph name="schwa" format="2">
  <advance width="563"/>
  <unicode hex="0259"/>
  <outline>
    <contour>
      <point x="309" y="305" type="curve" smooth="yes"/>
      <point x="170" y="305"/>
      <point x="65" y="245"/>
      <point x="65" y="140" type="curve" smooth="yes"/>
      <point x="65" y="39"/>
      <point x="140.421" y="-11"/>
      <point x="256" y="-11" type="curve" smooth="yes"/>
      <point x="401.403" y="-11"/>
      <point x="498" y="78.963"/>
      <point x="498" y="216" type="curve" smooth="yes"/>
      <point x="498" y="373.34"/>
      <point x="430.529" y="494"/>
      <point x="276" y="494" type="curve" smooth="yes"/>
      <point x="182.095" y="494"/>
      <point x="89" y="435.2"/>
      <point x="89" y="396" type="curve" smooth="yes"/>
      <point x="89" y="378"/>
      <point x="94" y="369"/>
      <point x="115" y="369" type="curve" smooth="yes"/>
      <point x="140.935" y="369"/>
      <point x="167.749" y="429"/>
      <point x="279" y="429" type="curve" smooth="yes"/>
      <point x="390.164" y="429"/>
      <point x="431" y="331.636"/>
      <point x="431" y="219" type="curve" smooth="yes"/>
      <point x="431" y="110.377"/>
      <point x="365" y="55"/>
      <point x="259" y="55" type="curve" smooth="yes"/>
      <point x="170" y="55"/>
      <point x="132" y="86"/>
      <point x="132" y="141" type="curve" smooth="yes"/>
      <point x="132" y="202"/>
      <point x="203" y="243"/>
      <point x="313" y="243" type="curve" smooth="yes"/>
      <point x="373.923" y="243"/>
      <point x="400.231" y="235"/>
      <point x="421" y="235" type="curve" smooth="yes"/>
      <point x="440" y="235"/>
      <point x="446" y="242"/>
      <point x="446" y="257" type="curve" smooth="yes"/>
      <point x="446" y="281"/>
      <point x="415.271" y="305"/>
    </contour>
  </outline>
</glyph>
<glyph name="gravecomb" format="2">
	<unicode hex="0300"/>
	<outline>
		<contour>
			<point x="-69" y="581" type="line"/>
			<point x="59" y="581" type="line"/>
			<point x="-4" y="755" type="line"/>
			<point x="-133" y="709" type="line"/>
		</contour>
	</outline>
	<anchor name="_top" x="0" y="515"/>
</glyph>
<glyph name="acutecomb" format="2">
	<unicode hex="0301"/>
	<outline>
		<contour>
			<point x="68" y="581" type="line"/>
			<point x="132" y="709" type="line"/>
			<point x="3" y="755" type="line"/>
			<point x="-60" y="581" type="line"/>
		</contour>
	</outline>
	<anchor name="_top" x="0" y="515"/>
</glyph>
<glyph name="circumflexcomb" format="2">
	<unicode hex="0302"/>
	<image fileName="accents.png" xScale="8.3736395703" yScale="8.3736395703" xOffset="-1726.4771943907" yOffset="-810.5627197247" color="0,0,0,0.26066"/>
	<outline>
		<contour>
			<point x="-7" y="698" type="curve"/>
			<point x="10" y="699" type="line"/>
			<point x="-102" y="580"/>
			<point x="-120" y="576"/>
			<point x="-142" y="576" type="curve" smooth="yes"/>
			<point x="-164" y="576"/>
			<point x="-181" y="590"/>
			<point x="-181" y="605" type="curve" smooth="yes"/>
			<point x="-181" y="617"/>
			<point x="-174" y="625"/>
			<point x="-102" y="686" type="curve" smooth="yes"/>
			<point x="-40" y="739"/>
			<point x="-37" y="761"/>
			<point x="2" y="761" type="curve" smooth="yes"/>
			<point x="31" y="761"/>
			<point x="48" y="751"/>
			<point x="75" y="712" type="curve" smooth="yes"/>
			<point x="137" y="625"/>
			<point x="182" y="621"/>
			<point x="182" y="594" type="curve" smooth="yes"/>
			<point x="182" y="584"/>
			<point x="170" y="576"/>
			<point x="153" y="576" type="curve" smooth="yes"/>
			<point x="105" y="576"/>
			<point x="71" y="592"/>
		</contour>
	</outline>
	<anchor name="_top" x="0" y="485"/>
	<anchor name="side" x="170" y="649"/>
	<anchor name="top" x="0" y="751"/>
</glyph>
<glyph name="tildecomb" format="2">
	<unicode hex="0303"/>
	<outline>
		<contour>
			<point x="-119" y="583" type="line"/>
			<point x="-111" y="625"/>
			<point x="-97" y="637"/>
			<point x="-74" y="637" type="curve" smooth="yes"/>
			<point x="-62" y="637"/>
			<point x="-52" y="633"/>
			<point x="-41" y="627" type="curve" smooth="yes"/>
			<point x="17" y="594" type="line" smooth="yes"/>
			<point x="34" y="584"/>
			<point x="57" y="578"/>
			<point x="80" y="578" type="curve" smooth="yes"/>
			<point x="137" y="578"/>
			<point x="198" y="615"/>
			<point x="214" y="713" type="curve"/>
			<point x="119" y="749" type="line"/>
			<point x="112" y="708"/>
			<point x="98" y="695"/>
			<point x="75" y="695" type="curve" smooth="yes"/>
			<point x="62" y="695"/>
			<point x="53" y="699"/>
			<point x="41" y="706" type="curve" smooth="yes"/>
			<point x="-16" y="738" type="line" smooth="yes"/>
			<point x="-34" y="748"/>
			<point x="-56" y="754"/>
			<point x="-79" y="754" type="curve" smooth="yes"/>
			<point x="-136" y="754"/>
			<point x="-198" y="718"/>
			<point x="-213" y="619" type="curve"/>
		</contour>
	</outline>
	<anchor name="_top" x="0" y="515"/>
</glyph>
<glyph name="macroncomb" format="2">
	<unicode hex="0304"/>
	<outline>
		<contour>
			<point x="-158" y="581" type="line"/>
			<point x="159" y="581" type="line"/>
			<point x="159" y="709" type="line"/>
			<point x="-158" y="709" type="line"/>
		</contour>
	</outline>
	<anchor name="_top" x="0" y="515"/>
</glyph>
<glyph name="brevecomb" format="2">
	<unicode hex="0306"/>
	<outline>
		<contour>
			<point x="0" y="573" type="curve" smooth="yes"/>
			<point x="90" y="573"/>
			<point x="149" y="623"/>
			<point x="160" y="708" type="curve"/>
			<point x="68" y="728" type="line"/>
			<point x="57" y="687"/>
			<point x="34" y="669"/>
			<point x="0" y="669" type="curve" smooth="yes"/>
			<point x="-34" y="669"/>
			<point x="-56" y="687"/>
			<point x="-67" y="728" type="curve"/>
			<point x="-159" y="708" type="line"/>
			<point x="-148" y="623"/>
			<point x="-89" y="573"/>
		</contour>
	</outline>
	<anchor name="_top" x="0" y="515"/>
	<anchor name="top" x="0" y="683"/>
</glyph>
<glyph name="dotaccentcmb" format="2">
	<unicode hex="0307"/>
	<outline>
		<contour>
			<point x="10" y="635" type="curve" smooth="yes"/>
			<point x="49" y="635"/>
			<point x="64" y="662"/>
			<point x="64" y="683" type="curve" smooth="yes"/>
			<point x="64" y="717"/>
			<point x="32" y="759"/>
			<point x="-19" y="759" type="curve" smooth="yes"/>
			<point x="-46" y="759"/>
			<point x="-67" y="739"/>
			<point x="-67" y="714" type="curve" smooth="yes"/>
			<point x="-67" y="674"/>
			<point x="-31" y="635"/>
		</contour>
	</outline>
	<anchor name="_top" x="0" y="483"/>
</glyph>
<glyph name="dieresiscomb" format="2">
	<unicode hex="0308"/>
	<outline>
		<contour>
			<point x="-169" y="581" type="line"/>
			<point x="-169" y="709" type="line"/>
			<point x="-31" y="709" type="line"/>
			<point x="-31" y="581" type="line"/>
		</contour>
		<contour>
			<point x="31" y="581" type="line"/>
			<point x="31" y="709" type="line"/>
			<point x="170" y="709" type="line"/>
			<point x="170" y="581" type="line"/>
		</contour>
	</outline>
	<anchor name="_top" x="0" y="515"/>
</glyph>
<glyph name="hookcomb" format="2">
	<unicode hex="0309"/>
	<outline>
		<contour>
			<point x="58" y="581" type="line"/>
			<point x="83" y="603" type="line" smooth="yes"/>
			<point x="112" y="627"/>
			<point x="125" y="655"/>
			<point x="125" y="688" type="curve" smooth="yes"/>
			<point x="125" y="746"/>
			<point x="83" y="785"/>
			<point x="8" y="785" type="curve" smooth="yes"/>
			<point x="-102" y="785" type="line"/>
			<point x="-102" y="680" type="line"/>
			<point x="-13" y="680" type="line" smooth="yes"/>
			<point x="2" y="680"/>
			<point x="8" y="673"/>
			<point x="8" y="662" type="curve" smooth="yes"/>
			<point x="8" y="655"/>
			<point x="4" y="649"/>
			<point x="-6" y="640" type="curve" smooth="yes"/>
			<point x="-72" y="584" type="line"/>
			<point x="-72" y="581" type="line"/>
		</contour>
	</outline>
	<anchor name="_top" x="0" y="515"/>
	<guideline x="-38" y="1288" angle="220.5526151499" identifier="Nmuy90JRKJ"/>
</glyph>
<glyph name="ringcomb" format="2">
	<unicode hex="030A"/>
	<outline>
		<contour>
			<point x="-6" y="553" type="curve" smooth="yes"/>
			<point x="87" y="553"/>
			<point x="158" y="622"/>
			<point x="158" y="715" type="curve" smooth="yes"/>
			<point x="158" y="802"/>
			<point x="98" y="862"/>
			<point x="-5" y="862" type="curve" smooth="yes"/>
			<point x="-87" y="862"/>
			<point x="-133" y="823"/>
			<point x="-133" y="775" type="curve" smooth="yes"/>
			<point x="-133" y="756"/>
			<point x="-125" y="753"/>
			<point x="-108" y="753" type="curve" smooth="yes"/>
			<point x="-81" y="753"/>
			<point x="-74" y="799"/>
			<point x="1" y="799" type="curve" smooth="yes"/>
			<point x="54" y="799"/>
			<point x="87" y="764"/>
			<point x="87" y="717" type="curve" smooth="yes"/>
			<point x="87" y="652"/>
			<point x="52" y="616"/>
			<point x="-14" y="616" type="curve" smooth="yes"/>
			<point x="-74" y="616"/>
			<point x="-117" y="651"/>
			<point x="-117" y="706" type="curve" smooth="yes"/>
			<point x="-117" y="756"/>
			<point x="-99" y="787"/>
			<point x="-41" y="808" type="curve" smooth="yes"/>
			<point x="-15" y="817"/>
			<point x="-6" y="825"/>
			<point x="-6" y="839" type="curve" smooth="yes"/>
			<point x="-6" y="859"/>
			<point x="-14" y="869"/>
			<point x="-36" y="869" type="curve" smooth="yes"/>
			<point x="-117" y="869"/>
			<point x="-188" y="795"/>
			<point x="-188" y="715" type="curve" smooth="yes"/>
			<point x="-188" y="617"/>
			<point x="-122" y="553"/>
		</contour>
	</outline>
	<anchor name="_top" x="0" y="485"/>
</glyph>
<glyph name="hungarumlautcmb" format="2">
  <unicode hex="030B"/>
  <anchor x="0" y="515" name="_top"/>
  <outline>
    <contour>
      <point x="26" y="764" type="curve" smooth="yes"/>
      <point x="26" y="689.0"/>
      <point x="-56.0" y="587.0"/>
      <point x="-99" y="587.0" type="curve" smooth="yes"/>
      <point x="-113" y="587"/>
      <point x="-123" y="595"/>
      <point x="-123" y="610" type="curve" smooth="yes"/>
      <point x="-123.0" y="623.0"/>
      <point x="-118" y="637"/>
      <point x="-97" y="668" type="curve" smooth="yes"/>
      <point x="-69" y="709"/>
      <point x="-60.232521411581445" y="727.0001435729089"/>
      <point x="-50" y="767" type="curve" smooth="yes"/>
      <point x="-44" y="793"/>
      <point x="-32" y="803.0"/>
      <point x="-14" y="803.0" type="curve" smooth="yes"/>
      <point x="11" y="803.0"/>
      <point x="26" y="791"/>
    </contour>
    <contour>
      <point x="200" y="776" type="curve" smooth="yes"/>
      <point x="200.0" y="685.0756756756757"/>
      <point x="127" y="592"/>
      <point x="78" y="592" type="curve" smooth="yes"/>
      <point x="63.0" y="592.0"/>
      <point x="55.0" y="599.0"/>
      <point x="55" y="613" type="curve" smooth="yes"/>
      <point x="55" y="629"/>
      <point x="62" y="643.0"/>
      <point x="76" y="665" type="curve" smooth="yes"/>
      <point x="101" y="705"/>
      <point x="111.91723755772708" y="731.7673831802059"/>
      <point x="124" y="779" type="curve" smooth="yes"/>
      <point x="131" y="807"/>
      <point x="142" y="818"/>
      <point x="161" y="818.0" type="curve" smooth="yes"/>
      <point x="185" y="818"/>
      <point x="200" y="805"/>
    </contour>
  </outline>
</glyph>
<glyph name="cedillacomb" format="2">
	<unicode hex="0327"/>
	<image fileName="S_creen S_hot 2020-09-24 at 10.58.01 P_M_.png" xScale="5.8856538257" yScale="5.8856538257" xOffset="-13240.9909182198" yOffset="-705.563910406" color="0,0,0,0.31859"/>
	<outline>
		<contour>
			<point x="110" y="-84" type="curve" smooth="yes"/>
			<point x="110" y="-41"/>
			<point x="99" y="-12"/>
			<point x="69" y="14" type="curve" smooth="yes"/>
			<point x="42" y="38"/>
			<point x="19" y="47"/>
			<point x="-15" y="47" type="curve" smooth="yes"/>
			<point x="-41" y="47"/>
			<point x="-56" y="37"/>
			<point x="-56" y="6" type="curve"/>
			<point x="17" y="-12"/>
			<point x="30" y="-43"/>
			<point x="30" y="-69" type="curve" smooth="yes"/>
			<point x="30" y="-116"/>
			<point x="7" y="-140"/>
			<point x="-88" y="-145" type="curve" smooth="yes"/>
			<point x="-127" y="-147"/>
			<point x="-136" y="-156"/>
			<point x="-136" y="-178" type="curve" smooth="yes"/>
			<point x="-136" y="-207"/>
			<point x="-115" y="-226"/>
			<point x="-75" y="-226" type="curve" smooth="yes"/>
			<point x="43" y="-226"/>
			<point x="110" y="-158"/>
		</contour>
	</outline>
	<anchor name="_bottom" x="1" y="0"/>
</glyph>
<glyph name="ogonekcmb" format="2">
	<unicode hex="0328"/>
	<outline>
		<contour>
			<point x="-35" y="0" type="line"/>
			<point x="-35" y="-4" type="line"/>
			<point x="-83" y="-26" type="line" smooth="yes"/>
			<point x="-125" y="-46"/>
			<point x="-143" y="-67"/>
			<point x="-143" y="-105" type="curve" smooth="yes"/>
			<point x="-143" y="-152"/>
			<point x="-109" y="-178"/>
			<point x="-47" y="-178" type="curve" smooth="yes"/>
			<point x="76" y="-178" type="line"/>
			<point x="76" y="-78" type="line"/>
			<point x="1" y="-78" type="line" smooth="yes"/>
			<point x="-10" y="-78"/>
			<point x="-15" y="-72"/>
			<point x="-15" y="-65" type="curve" smooth="yes"/>
			<point x="-15" y="-59"/>
			<point x="-14" y="-54"/>
			<point x="-7" y="-50" type="curve" smooth="yes"/>
			<point x="76" y="0" type="line"/>
			<point x="52" y="33" type="line"/>
		</contour>
	</outline>
	<anchor name="_ogonek" x="76" y="0"/>
	<guideline x="26" y="-177" angle="48.1449574647" identifier="4uLH7EeGYo"/>
</glyph>
<glyph name="belowbrevecmb" format="2">
	<unicode hex="032E"/>
	<advance width="492"/>
	<outline>
		<contour>
			<point x="393.75" y="-71.6346153846" type="line"/>
			<point x="370.1923076923" y="-122.5961538462"/>
			<point x="290.3846153846" y="-180.2884615385"/>
			<point x="239.9038461538" y="-180.2884615385" type="qcurve" smooth="yes"/>
			<point x="189.9038461538" y="-180.2884615385"/>
			<point x="110.0961538462" y="-122.5961538462"/>
			<point x="86.5384615385" y="-71.6346153846" type="qcurve"/>
			<point x="49.0384615385" y="-85.5769230769" type="line"/>
			<point x="70.6730769231" y="-143.2692307692"/>
			<point x="170.6730769231" y="-222.5961538462"/>
			<point x="240.3846153846" y="-222.5961538462" type="qcurve" smooth="yes"/>
			<point x="310.5769230769" y="-222.5961538462"/>
			<point x="410.0961538462" y="-142.7884615385"/>
			<point x="430.7692307692" y="-85.5769230769" type="qcurve"/>
		</contour>
	</outline>
	<anchor name="_bottom" x="246.1538461538" y="0"/>
	<anchor name="bottom" x="246.1538461538" y="-222.5961538462"/>
</glyph>
<glyph name="Djecyr" format="2">
	<unicode hex="0402"/>
	<advance width="827"/>
	<outline>
		<contour>
			<point x="257.2115384615" y="0" type="line"/>
			<point x="309.6153846154" y="0" type="line"/>
			<point x="309.6153846154" y="651.9230769231" type="line"/>
			<point x="574.0384615385" y="651.9230769231" type="line"/>
			<point x="574.0384615385" y="700" type="line"/>
			<point x="11.5384615385" y="700" type="line"/>
			<point x="11.5384615385" y="651.9230769231" type="line"/>
			<point x="257.2115384615" y="651.9230769231" type="line"/>
		</contour>
		<contour>
			<point x="563.9423076923" y="0" type="line"/>
			<point x="567.7884615385" y="0" type="line" smooth="yes"/>
			<point x="659.6153846154" y="0"/>
			<point x="760.0961538462" y="96.6346153846"/>
			<point x="760.0961538462" y="196.1538461538" type="qcurve" smooth="yes"/>
			<point x="760.0961538462" y="204.3269230769" type="line" smooth="yes"/>
			<point x="760.0961538462" y="315.8653846154"/>
			<point x="630.2637362638" y="414.9038461538"/>
			<point x="504.8076923077" y="414.9038461538" type="qcurve" smooth="yes"/>
			<point x="432.7134869536" y="414.9038461538"/>
			<point x="333.9027396293" y="401.6194102909"/>
			<point x="283.6538461538" y="389.4230769231" type="qcurve"/>
			<point x="283.6538461538" y="341.3461538462" type="line"/>
			<point x="332.938127708" y="354.0331966225"/>
			<point x="437.9807692308" y="366.8269230769"/>
			<point x="504.8076923077" y="366.8269230769" type="qcurve" smooth="yes"/>
			<point x="605.7692307692" y="366.8269230769"/>
			<point x="707.2115384615" y="291.3461538462"/>
			<point x="707.2115384615" y="204.3269230769" type="qcurve" smooth="yes"/>
			<point x="707.2115384615" y="195.6730769231" type="line" smooth="yes"/>
			<point x="707.2115384615" y="120.1923076923"/>
			<point x="636.0576923077" y="48.5576923077"/>
			<point x="567.7884615385" y="48.5576923077" type="qcurve" smooth="yes"/>
			<point x="563.9423076923" y="48.5576923077" type="line"/>
		</contour>
	</outline>
</glyph>
<glyph name="Eukrcyr" format="2">
	<unicode hex="0404"/>
	<advance width="618"/>
	<outline>
		<contour>
			<point x="325" y="382" type="curve" smooth="yes"/>
			<point x="240" y="382"/>
			<point x="151" y="368"/>
			<point x="91" y="349" type="curve"/>
			<point x="93" y="296" type="line"/>
			<point x="141" y="296"/>
			<point x="202" y="325"/>
			<point x="310" y="325" type="curve" smooth="yes"/>
			<point x="347" y="325"/>
			<point x="384" y="317"/>
			<point x="415" y="317" type="curve" smooth="yes"/>
			<point x="449" y="317"/>
			<point x="463" y="325"/>
			<point x="463" y="341" type="curve" smooth="yes"/>
			<point x="463" y="367"/>
			<point x="403" y="382"/>
		</contour>
		<contour>
			<point x="336" y="-10" type="curve" smooth="yes"/>
			<point x="495" y="-10"/>
			<point x="568" y="87"/>
			<point x="568" y="136" type="curve" smooth="yes"/>
			<point x="568" y="154"/>
			<point x="561" y="169"/>
			<point x="548" y="169" type="curve" smooth="yes"/>
			<point x="515" y="169"/>
			<point x="495" y="55"/>
			<point x="335" y="55" type="curve" smooth="yes"/>
			<point x="214" y="55"/>
			<point x="137" y="142"/>
			<point x="137" y="298" type="curve" smooth="yes"/>
			<point x="137" y="489"/>
			<point x="246" y="646"/>
			<point x="404" y="646" type="curve" smooth="yes"/>
			<point x="465" y="646"/>
			<point x="473" y="618"/>
			<point x="473" y="590" type="curve" smooth="yes"/>
			<point x="473" y="558"/>
			<point x="466" y="530"/>
			<point x="496" y="530" type="curve" smooth="yes"/>
			<point x="526" y="530"/>
			<point x="541" y="562"/>
			<point x="541" y="595" type="curve" smooth="yes"/>
			<point x="541" y="665"/>
			<point x="504" y="711"/>
			<point x="406" y="711" type="curve" smooth="yes"/>
			<point x="207" y="711"/>
			<point x="70" y="524"/>
			<point x="70" y="299" type="curve" smooth="yes"/>
			<point x="70" y="125"/>
			<point x="143" y="-10"/>
		</contour>
	</outline>
	<guideline x="101.4423076923" y="378.3653846154" angle="90" identifier="b1V3DjCVlD"/>
</glyph>
<glyph name="Ljecyr" format="2">
	<unicode hex="0409"/>
	<advance width="1069"/>
	<outline>
		<contour>
			<point x="536" y="308" type="curve" smooth="yes"/>
			<point x="575" y="154"/>
			<point x="597" y="59"/>
			<point x="698" y="59" type="curve" smooth="yes"/>
			<point x="804" y="59"/>
			<point x="914" y="194"/>
			<point x="914" y="290" type="curve" smooth="yes"/>
			<point x="914" y="351"/>
			<point x="884" y="378"/>
			<point x="814" y="378" type="curve" smooth="yes"/>
			<point x="747" y="378"/>
			<point x="674" y="362"/>
			<point x="532" y="291" type="curve"/>
			<point x="509" y="347" type="line"/>
			<point x="618" y="413"/>
			<point x="717" y="448"/>
			<point x="826" y="448" type="curve" smooth="yes"/>
			<point x="918" y="448"/>
			<point x="990" y="402"/>
			<point x="990" y="300" type="curve" smooth="yes"/>
			<point x="990" y="169"/>
			<point x="845" y="-10"/>
			<point x="697" y="-10" type="curve" smooth="yes"/>
			<point x="535.185840708" y="-10"/>
			<point x="507" y="129"/>
			<point x="467" y="287" type="curve" smooth="yes"/>
			<point x="448" y="361"/>
			<point x="399.0212765957" y="591.5374331551"/>
			<point x="377" y="658" type="curve"/>
			<point x="390" y="647" type="line"/>
			<point x="351.4468085106" y="573"/>
			<point x="287.1914893617" y="386"/>
			<point x="239" y="264" type="curve" smooth="yes"/>
			<point x="200" y="158"/>
			<point x="157" y="59"/>
			<point x="133" y="19" type="curve" smooth="yes"/>
			<point x="121" y="-2"/>
			<point x="109" y="-9"/>
			<point x="92" y="-9" type="curve" smooth="yes"/>
			<point x="74" y="-9"/>
			<point x="63" y="7"/>
			<point x="63" y="25" type="curve" smooth="yes"/>
			<point x="63" y="46"/>
			<point x="104" y="113"/>
			<point x="175" y="298" type="curve" smooth="yes"/>
			<point x="233.8474576271" y="436.8780487805"/>
			<point x="275" y="550"/>
			<point x="299" y="610" type="curve" smooth="yes"/>
			<point x="325" y="675"/>
			<point x="354" y="712"/>
			<point x="399" y="712" type="curve" smooth="yes"/>
			<point x="427" y="712"/>
			<point x="446" y="676"/>
			<point x="462" y="618" type="curve" smooth="yes"/>
			<point x="473.1" y="574.9716088328"/>
			<point x="518" y="386"/>
		</contour>
	</outline>
	<guideline x="94.7115384615" y="657.6923076923" angle="0" identifier="b3w6f6co8h"/>
	<guideline x="94.7115384615" y="657.6923076923" angle="0" identifier="jdn5JLBvkG"/>
	<guideline x="94.7115384615" y="657.6923076923" angle="0" identifier="mF84iu6Knu"/>
</glyph>
<glyph name="Njecyr" format="2">
	<unicode hex="040A"/>
	<advance width="1022"/>
	<outline>
		<contour>
			<point x="81.7307692308" y="0" type="line"/>
			<point x="134.1346153846" y="0" type="line"/>
			<point x="134.1346153846" y="373.0769230769" type="line"/>
			<point x="528.3653846154" y="373.0769230769" type="line"/>
			<point x="528.3653846154" y="0" type="line"/>
			<point x="758.6538461538" y="0" type="line" smooth="yes"/>
			<point x="878.3653846154" y="0"/>
			<point x="998.5576923077" y="117.7884615385"/>
			<point x="998.5576923077" y="211.0576923077" type="qcurve" smooth="yes"/>
			<point x="998.5576923077" y="303.3653846154"/>
			<point x="878.3653846154" y="421.6346153846"/>
			<point x="758.6538461538" y="421.6346153846" type="qcurve" smooth="yes"/>
			<point x="580.7692307692" y="421.6346153846" type="line"/>
			<point x="580.7692307692" y="700" type="line"/>
			<point x="528.3653846154" y="700" type="line"/>
			<point x="528.3653846154" y="421.6346153846" type="line"/>
			<point x="134.1346153846" y="421.6346153846" type="line"/>
			<point x="134.1346153846" y="700" type="line"/>
			<point x="81.7307692308" y="700" type="line"/>
		</contour>
		<contour>
			<point x="580.7692307692" y="373.0769230769" type="line"/>
			<point x="580.7692307692" y="48.5576923077" type="line"/>
			<point x="758.6538461538" y="48.5576923077" type="line" smooth="yes"/>
			<point x="862.5" y="48.5576923077"/>
			<point x="945.6730769231" y="141.8269230769"/>
			<point x="945.6730769231" y="211.0576923077" type="qcurve" smooth="yes"/>
			<point x="945.6730769231" y="279.8076923077"/>
			<point x="862.5" y="373.0769230769"/>
			<point x="758.6538461538" y="373.0769230769" type="qcurve" smooth="yes"/>
		</contour>
	</outline>
</glyph>
<glyph name="Tshecyr" format="2">
	<unicode hex="040B"/>
	<advance width="766"/>
	<outline>
		<contour>
			<point x="112" y="642" type="curve" smooth="yes"/>
			<point x="229" y="638"/>
			<point x="298" y="637"/>
			<point x="437" y="637" type="curve" smooth="yes"/>
			<point x="501" y="637"/>
			<point x="566" y="651"/>
			<point x="566" y="681" type="curve" smooth="yes"/>
			<point x="566" y="696"/>
			<point x="556" y="707"/>
			<point x="534" y="707" type="curve" smooth="yes"/>
			<point x="503" y="707"/>
			<point x="493" y="700"/>
			<point x="400" y="700" type="curve" smooth="yes"/>
			<point x="276" y="700"/>
			<point x="210" y="706"/>
			<point x="58" y="706" type="curve" smooth="yes"/>
			<point x="30" y="706"/>
			<point x="19" y="697"/>
			<point x="19" y="685" type="curve" smooth="yes"/>
			<point x="19" y="664"/>
			<point x="34" y="644"/>
		</contour>
		<contour>
			<point x="304" y="44" type="curve" smooth="yes"/>
			<point x="381" y="230"/>
			<point x="441" y="311"/>
			<point x="523" y="356" type="curve"/>
			<point x="551" y="315.0196078431"/>
			<point x="559" y="216"/>
			<point x="578" y="136" type="curve" smooth="yes"/>
			<point x="600" y="42"/>
			<point x="623" y="-6"/>
			<point x="663" y="-6" type="curve" smooth="yes"/>
			<point x="679" y="-6"/>
			<point x="687" y="2"/>
			<point x="687" y="14" type="curve" smooth="yes"/>
			<point x="687" y="43"/>
			<point x="669" y="70"/>
			<point x="656" y="110" type="curve" smooth="yes"/>
			<point x="643" y="148.1460674157"/>
			<point x="626" y="233.1573033708"/>
			<point x="616" y="304" type="curve" smooth="yes"/>
			<point x="609" y="357"/>
			<point x="590" y="420"/>
			<point x="530" y="420" type="curve" smooth="yes"/>
			<point x="431.562962963" y="420"/>
			<point x="322" y="278"/>
			<point x="256" y="91" type="curve"/>
			<point x="277" y="88" type="line"/>
			<point x="270" y="192"/>
			<point x="258" y="336"/>
			<point x="273" y="573" type="curve" smooth="yes"/>
			<point x="278" y="652"/>
			<point x="271" y="677"/>
			<point x="242" y="677" type="curve" smooth="yes"/>
			<point x="225" y="677"/>
			<point x="215" y="659"/>
			<point x="213" y="633" type="curve" smooth="yes"/>
			<point x="189" y="342"/>
			<point x="201" y="173"/>
			<point x="210" y="89" type="curve" smooth="yes"/>
			<point x="219" y="9"/>
			<point x="240" y="-13"/>
			<point x="263" y="-13" type="curve" smooth="yes"/>
			<point x="286.4285714286" y="-13"/>
			<point x="289" y="8"/>
		</contour>
	</outline>
</glyph>
<glyph name="Ushortcyr" format="2">
  <advance width="641"/>
  <unicode hex="040E"/>
  <anchor x="328" y="700" name="top"/>
  <outline>
    <contour>
      <point x="337" y="825" type="curve" smooth="yes"/>
      <point x="305" y="825"/>
      <point x="282" y="850"/>
      <point x="262" y="875" type="curve" smooth="yes"/>
      <point x="246" y="896"/>
      <point x="235" y="918"/>
      <point x="209" y="918" type="curve" smooth="yes"/>
      <point x="187" y="918"/>
      <point x="175" y="902"/>
      <point x="175" y="883" type="curve" smooth="yes"/>
      <point x="175" y="846"/>
      <point x="233" y="765"/>
      <point x="332" y="765" type="curve" smooth="yes"/>
      <point x="428" y="765"/>
      <point x="503" y="826"/>
      <point x="503" y="858" type="curve" smooth="yes"/>
      <point x="503" y="872"/>
      <point x="494" y="886"/>
      <point x="476" y="886" type="curve" smooth="yes"/>
      <point x="457" y="886"/>
      <point x="439" y="870"/>
      <point x="418" y="855" type="curve" smooth="yes"/>
      <point x="390" y="835"/>
      <point x="368" y="825"/>
    </contour>
    <component base="Ucyr"/>
  </outline>
</glyph>
<glyph name="Dzhecyr" format="2">
	<unicode hex="040F"/>
	<advance width="719"/>
	<outline>
		<contour>
			<point x="398" y="-146" type="curve" smooth="yes"/>
			<point x="391" y="-184"/>
			<point x="377" y="-197"/>
			<point x="356" y="-197" type="curve" smooth="yes"/>
			<point x="333" y="-197"/>
			<point x="322" y="-177"/>
			<point x="322" y="-146" type="curve" smooth="yes"/>
			<point x="322" y="-83"/>
			<point x="378.7368421053" y="36"/>
			<point x="420" y="36" type="curve" smooth="yes"/>
			<point x="435.7894736842" y="36"/>
			<point x="445" y="26"/>
			<point x="445" y="9" type="curve" smooth="yes"/>
			<point x="445" y="-24"/>
			<point x="410.2608695652" y="-80.3046357616"/>
		</contour>
		<contour>
			<point x="193" y="627" type="curve" smooth="yes"/>
			<point x="193" y="525"/>
			<point x="182" y="437"/>
			<point x="182" y="325" type="curve" smooth="yes"/>
			<point x="182" y="205"/>
			<point x="188" y="77"/>
			<point x="208" y="77" type="curve" smooth="yes"/>
			<point x="261" y="77"/>
			<point x="331" y="207"/>
			<point x="394" y="342" type="curve" smooth="yes"/>
			<point x="439" y="438"/>
			<point x="478" y="566"/>
			<point x="512" y="643" type="curve" smooth="yes"/>
			<point x="529" y="682"/>
			<point x="545" y="708"/>
			<point x="559" y="708" type="curve" smooth="yes"/>
			<point x="586" y="708"/>
			<point x="599" y="674"/>
			<point x="599" y="613" type="curve" smooth="yes"/>
			<point x="599" y="572"/>
			<point x="598" y="411"/>
			<point x="603" y="329" type="curve" smooth="yes"/>
			<point x="612" y="189"/>
			<point x="647" y="52"/>
			<point x="647" y="19" type="curve" smooth="yes"/>
			<point x="647" y="2"/>
			<point x="638" y="-12"/>
			<point x="624" y="-12" type="curve" smooth="yes"/>
			<point x="589" y="-12"/>
			<point x="576" y="21"/>
			<point x="565" y="67" type="curve" smooth="yes"/>
			<point x="550" y="133"/>
			<point x="538" y="237"/>
			<point x="534" y="341" type="curve" smooth="yes"/>
			<point x="530" y="445"/>
			<point x="529" y="541"/>
			<point x="529" y="577" type="curve"/>
			<point x="559" y="590" type="line"/>
			<point x="544" y="536"/>
			<point x="493" y="385"/>
			<point x="424" y="253" type="curve" smooth="yes"/>
			<point x="354" y="112"/>
			<point x="281" y="-6"/>
			<point x="199" y="-6" type="curve" smooth="yes"/>
			<point x="128" y="-6"/>
			<point x="110" y="118"/>
			<point x="110" y="268" type="curve" smooth="yes"/>
			<point x="110" y="376"/>
			<point x="118" y="531"/>
			<point x="117" y="621" type="curve" smooth="yes"/>
			<point x="117" y="666"/>
			<point x="124" y="711"/>
			<point x="141" y="711" type="curve" smooth="yes"/>
			<point x="171" y="711"/>
			<point x="193" y="679"/>
		</contour>
	</outline>
</glyph>
<glyph name="Becyr" format="2">
	<unicode hex="0411"/>
	<advance width="658"/>
	<outline>
		<contour>
			<point x="213" y="658" type="curve" smooth="yes"/>
			<point x="213" y="658"/>
			<point x="204" y="473"/>
			<point x="204" y="424" type="curve" smooth="yes"/>
			<point x="204" y="365"/>
			<point x="198" y="227"/>
			<point x="198" y="175" type="curve" smooth="yes"/>
			<point x="198" y="104"/>
			<point x="228" y="51"/>
			<point x="291" y="51" type="curve" smooth="yes"/>
			<point x="372" y="51"/>
			<point x="508" y="157"/>
			<point x="508" y="257" type="curve" smooth="yes"/>
			<point x="508" y="306"/>
			<point x="469" y="329"/>
			<point x="413" y="337" type="curve" smooth="yes"/>
			<point x="336" y="348"/>
			<point x="232" y="349"/>
			<point x="205" y="349" type="curve" smooth="yes"/>
			<point x="179" y="349"/>
			<point x="175" y="356"/>
			<point x="175" y="374" type="curve" smooth="yes"/>
			<point x="175" y="393"/>
			<point x="187" y="409"/>
			<point x="213" y="409" type="curve" smooth="yes"/>
			<point x="256" y="409"/>
			<point x="351" y="408"/>
			<point x="418" y="401" type="curve" smooth="yes"/>
			<point x="520" y="390"/>
			<point x="585" y="344"/>
			<point x="585" y="261" type="curve" smooth="yes"/>
			<point x="585" y="141"/>
			<point x="409" y="-14"/>
			<point x="286" y="-14" type="curve" smooth="yes"/>
			<point x="190" y="-14"/>
			<point x="130" y="70"/>
			<point x="130" y="175" type="curve" smooth="yes"/>
			<point x="130" y="232"/>
			<point x="136" y="358"/>
			<point x="136" y="426" type="curve" smooth="yes"/>
			<point x="136" y="475"/>
			<point x="145" y="660"/>
			<point x="145" y="660" type="curve" smooth="yes"/>
			<point x="145" y="678"/>
			<point x="164" y="693"/>
			<point x="182" y="693" type="curve" smooth="yes"/>
			<point x="199" y="692"/>
			<point x="210" y="677"/>
			<point x="210" y="660" type="curve" smooth="yes"/>
			<point x="210" y="660"/>
			<point x="213" y="659"/>
		</contour>
		<contour>
			<point x="94" y="688" type="curve" smooth="yes"/>
			<point x="94" y="688"/>
			<point x="211" y="710"/>
			<point x="336" y="710" type="curve" smooth="yes"/>
			<point x="463" y="710"/>
			<point x="550" y="696"/>
			<point x="551" y="696" type="curve" smooth="yes"/>
			<point x="567" y="693"/>
			<point x="579" y="678"/>
			<point x="579" y="662" type="curve" smooth="yes"/>
			<point x="579" y="649"/>
			<point x="564" y="633"/>
			<point x="544" y="633" type="curve" smooth="yes"/>
			<point x="523" y="633"/>
			<point x="457" y="647"/>
			<point x="336" y="647" type="curve" smooth="yes"/>
			<point x="193" y="647"/>
			<point x="120" y="625"/>
			<point x="99" y="625" type="curve" smooth="yes"/>
			<point x="79" y="625"/>
			<point x="67" y="642"/>
			<point x="67" y="655" type="curve" smooth="yes"/>
			<point x="67" y="670"/>
			<point x="78" y="685"/>
		</contour>
	</outline>
</glyph>
<glyph name="Vecyr" format="2">
	<unicode hex="0412"/>
	<advance width="608.1730769231"/>
	<outline>
		<contour>
			<point x="81.7307692308" y="0" type="line"/>
			<point x="81.7307692308" y="700" type="line"/>
			<point x="312.6150075415" y="700" type="line" smooth="yes"/>
			<point x="418.9423076923" y="700"/>
			<point x="538.2528280543" y="613.8461538462"/>
			<point x="538.2528280543" y="522.2692307692" type="qcurve" smooth="yes"/>
			<point x="538.2528280543" y="461.3076923077"/>
			<point x="476.7941176471" y="382.6538461538"/>
			<point x="430.2705505279" y="368.5769230769" type="qcurve"/>
			<point x="430.2705505279" y="366.6538461538" type="line"/>
			<point x="488.1685520362" y="352.5769230769"/>
			<point x="560.0401583711" y="264"/>
			<point x="560.0401583711" y="192.7692307692" type="qcurve" smooth="yes"/>
			<point x="560.0401583711" y="101.1923076923"/>
			<point x="434.9417420814" y="0"/>
			<point x="329.588612368" y="0" type="qcurve" smooth="yes"/>
		</contour>
		<contour>
			<point x="133.9724736048" y="47.2812971342" type="line"/>
			<point x="329.588612368" y="47.2812971342" type="line" smooth="yes"/>
			<point x="421.4705882353" y="47.2812971342"/>
			<point x="507.1926847662" y="127.1021870287"/>
			<point x="507.2696078431" y="194.483785822" type="qcurve" smooth="yes"/>
			<point x="507.2696078431" y="261.8846153846"/>
			<point x="421.4391390215" y="341.1670437406"/>
			<point x="329.588612368" y="341.1670437406" type="qcurve" smooth="yes"/>
			<point x="133.9724736048" y="341.1670437406" type="line"/>
		</contour>
		<contour>
			<point x="133.9724736048" y="387.6791101056" type="line"/>
			<point x="312.6150075415" y="387.6791101056" type="line" smooth="yes"/>
			<point x="404.6508295626" y="387.6791101056"/>
			<point x="485.4822775264" y="457.8461538462"/>
			<point x="485.4822775264" y="520.3239064857" type="qcurve" smooth="yes"/>
			<point x="485.5015082956" y="583.6255656109"/>
			<point x="404.6556236354" y="652.7187028658"/>
			<point x="312.6150075415" y="652.7187028658" type="qcurve" smooth="yes"/>
			<point x="133.9724736048" y="652.7187028658" type="line"/>
		</contour>
	</outline>
</glyph>
<glyph name="Gecyr" format="2">
	<unicode hex="0413"/>
	<advance width="533.1730769231"/>
	<outline>
		<contour>
			<point x="81.7307692308" y="0" type="line"/>
			<point x="81.7307692308" y="700" type="line"/>
			<point x="509.1346153846" y="700" type="line"/>
			<point x="509.1346153846" y="651.9230769231" type="line"/>
			<point x="134.1346153846" y="651.9230769231" type="line"/>
			<point x="134.1346153846" y="0" type="line"/>
		</contour>
	</outline>
</glyph>
<glyph name="Decyr" format="2">
	<unicode hex="0414"/>
	<advance width="724"/>
	<outline>
		<contour>
			<point x="666.8269230769" y="-139.4230769231" type="line"/>
			<point x="713.9423076923" y="-139.4230769231" type="line"/>
			<point x="713.9423076923" y="48.0769230769" type="line"/>
			<point x="4.8076923077" y="48.0769230769" type="line"/>
			<point x="4.8076923077" y="-139.4230769231" type="line"/>
			<point x="51.9230769231" y="-139.4230769231" type="line"/>
			<point x="51.9230769231" y="0" type="line"/>
			<point x="666.8269230769" y="0" type="line"/>
		</contour>
		<contour>
			<point x="150" y="700" type="line"/>
			<point x="128.8461538462" y="276.4423076923" type="line" smooth="yes"/>
			<point x="124.5192307692" y="187.5"/>
			<point x="102.4038461538" y="70.1923076923"/>
			<point x="68.75" y="24.0384615385" type="qcurve"/>
			<point x="128.3653846154" y="24.0384615385" type="line"/>
			<point x="150.4807692308" y="67.3076923077"/>
			<point x="173.5576923077" y="181.7307692308"/>
			<point x="177.8846153846" y="270.1923076923" type="qcurve" smooth="yes"/>
			<point x="196.6346153846" y="651.9230769231" type="line"/>
			<point x="562.0192307692" y="651.9230769231" type="line"/>
			<point x="562.0192307692" y="0" type="line"/>
			<point x="614.4230769231" y="0" type="line"/>
			<point x="614.4230769231" y="700" type="line"/>
		</contour>
	</outline>
</glyph>
<glyph name="Iecyr" format="2">
	<unicode hex="0415"/>
	<advance width="559.1346153846"/>
	<outline>
		<contour>
			<point x="81.7307692308" y="0" type="line"/>
			<point x="81.7307692308" y="700" type="line"/>
			<point x="521.1538461538" y="700" type="line"/>
			<point x="521.1538461538" y="651.4423076923" type="line"/>
			<point x="134.1346153846" y="651.4423076923" type="line"/>
			<point x="134.1346153846" y="385.0961538462" type="line"/>
			<point x="469.2307692308" y="385.0961538462" type="line"/>
			<point x="469.2307692308" y="337.0192307692" type="line"/>
			<point x="134.1346153846" y="337.0192307692" type="line"/>
			<point x="134.1346153846" y="48.5576923077" type="line"/>
			<point x="526.4423076923" y="48.5576923077" type="line"/>
			<point x="526.4423076923" y="0" type="line"/>
		</contour>
	</outline>
</glyph>
<glyph name="Zecyr" format="2">
	<unicode hex="0417"/>
	<advance width="606"/>
	<outline>
		<contour>
			<point x="79" y="599" type="curve" smooth="yes"/>
			<point x="79" y="580"/>
			<point x="88" y="568"/>
			<point x="110" y="568" type="curve" smooth="yes"/>
			<point x="144" y="568"/>
			<point x="175" y="650"/>
			<point x="307" y="650" type="curve" smooth="yes"/>
			<point x="400" y="650"/>
			<point x="462" y="610"/>
			<point x="462" y="552" type="curve" smooth="yes"/>
			<point x="462" y="488"/>
			<point x="403" y="451"/>
			<point x="301" y="419" type="curve" smooth="yes"/>
			<point x="259" y="406"/>
			<point x="231" y="399"/>
			<point x="215" y="392" type="curve" smooth="yes"/>
			<point x="202" y="386"/>
			<point x="198" y="378"/>
			<point x="198" y="368" type="curve" smooth="yes"/>
			<point x="198" y="344"/>
			<point x="223" y="329"/>
			<point x="291" y="321" type="curve" smooth="yes"/>
			<point x="414" y="307"/>
			<point x="483" y="271"/>
			<point x="483" y="192" type="curve" smooth="yes"/>
			<point x="483" y="104"/>
			<point x="397" y="51"/>
			<point x="276" y="51" type="curve" smooth="yes"/>
			<point x="131" y="51"/>
			<point x="114" y="141"/>
			<point x="76" y="141" type="curve" smooth="yes"/>
			<point x="55" y="141"/>
			<point x="40" y="129"/>
			<point x="40" y="104" type="curve" smooth="yes"/>
			<point x="40" y="56"/>
			<point x="154" y="-15"/>
			<point x="275" y="-15" type="curve" smooth="yes"/>
			<point x="424" y="-15"/>
			<point x="555" y="66"/>
			<point x="555" y="195" type="curve" smooth="yes"/>
			<point x="555" y="295"/>
			<point x="476" y="374"/>
			<point x="282" y="378" type="curve"/>
			<point x="287" y="369" type="line"/>
			<point x="468" y="395"/>
			<point x="532" y="477"/>
			<point x="532" y="552" type="curve" smooth="yes"/>
			<point x="532" y="639"/>
			<point x="433" y="713"/>
			<point x="307" y="713" type="curve" smooth="yes"/>
			<point x="188" y="713"/>
			<point x="79" y="643"/>
		</contour>
	</outline>
	<anchor name="top" x="302" y="700"/>
	<guideline x="551" y="362" angle="90" identifier="ZzoGr9IEv9"/>
	<guideline x="538" y="633" angle="90" identifier="rir6xKM5MM"/>
	<guideline x="-165" y="348" angle="90" identifier="MDMSsOprqX"/>
	<guideline x="104" y="130" angle="90" identifier="VpVaGmY9Xx"/>
	<guideline x="101" y="378" angle="90" identifier="otb2EjpWXm"/>
</glyph>
<glyph name="Icyr" format="2">
  <advance width="703"/>
  <unicode hex="0418"/>
  <guideline x="355" y="447" angle="90" identifier="9d4iEHlV35"/>
  <anchor x="353" y="700" name="top"/>
  <outline>
    <contour>
      <point x="132" y="-14" type="curve" smooth="yes"/>
      <point x="96" y="-14"/>
      <point x="87" y="19"/>
      <point x="87" y="62" type="curve" smooth="yes"/>
      <point x="87" y="111"/>
      <point x="106" y="254"/>
      <point x="106" y="411" type="curve" smooth="yes"/>
      <point x="106" y="533"/>
      <point x="95" y="645"/>
      <point x="95" y="676" type="curve" smooth="yes"/>
      <point x="95" y="695"/>
      <point x="107" y="717"/>
      <point x="130" y="717" type="curve" smooth="yes"/>
      <point x="147" y="717"/>
      <point x="159" y="706"/>
      <point x="163" y="685" type="curve" smooth="yes"/>
      <point x="171" y="644"/>
      <point x="175" y="524"/>
      <point x="175" y="411" type="curve" smooth="yes"/>
      <point x="175" y="240"/>
      <point x="153" y="124"/>
      <point x="153" y="53" type="curve"/>
      <point x="134" y="52" type="line"/>
      <point x="209" y="124"/>
      <point x="280" y="220"/>
      <point x="338" y="327" type="curve" smooth="yes"/>
      <point x="445.273" y="523.364"/>
      <point x="506.444" y="713"/>
      <point x="562" y="713" type="curve" smooth="yes"/>
      <point x="588" y="713"/>
      <point x="603" y="691"/>
      <point x="603" y="661" type="curve" smooth="yes"/>
      <point x="603" y="635"/>
      <point x="594" y="461"/>
      <point x="594" y="310" type="curve" smooth="yes"/>
      <point x="594" y="133"/>
      <point x="627" y="47"/>
      <point x="627" y="22" type="curve" smooth="yes"/>
      <point x="627" y="5"/>
      <point x="612" y="-13"/>
      <point x="595" y="-13" type="curve" smooth="yes"/>
      <point x="580" y="-13"/>
      <point x="567" y="-3"/>
      <point x="562" y="12" type="curve" smooth="yes"/>
      <point x="541" y="74"/>
      <point x="524" y="198"/>
      <point x="524" y="310" type="curve" smooth="yes"/>
      <point x="524" y="429"/>
      <point x="537" y="619"/>
      <point x="539" y="646" type="curve"/>
      <point x="567" y="637" type="line"/>
      <point x="556" y="617"/>
      <point x="441" y="382"/>
      <point x="396" y="301" type="curve" smooth="yes"/>
      <point x="313.428" y="153.549"/>
      <point x="186" y="-14"/>
    </contour>
  </outline>
</glyph>
